<?xml version="1.0" encoding="UTF-8" standalone="no"?>
<!-- Created with Inkscape (http://www.inkscape.org/) -->

<svg
   version="1.1"
   id="svg1"
   width="479.99808"
   height="120"
   viewBox="0 0 479.99808 120"
   sodipodi:docname="BestDay.svg"
   inkscape:version="1.3 (0e150ed, 2023-07-21)"
   xmlns:inkscape="http://www.inkscape.org/namespaces/inkscape"
   xmlns:sodipodi="http://sodipodi.sourceforge.net/DTD/sodipodi-0.dtd"
   xmlns="http://www.w3.org/2000/svg"
   xmlns:svg="http://www.w3.org/2000/svg">
  <defs
     id="defs1">
    <clipPath
       clipPathUnits="userSpaceOnUse"
       id="clipPath2">
      <path
         d="m 4.636,135.678 h 348.169 v 88.645 H 4.636 Z"
         transform="translate(-110.845,-205.77921)"
         id="path2" />
    </clipPath>
    <clipPath
       clipPathUnits="userSpaceOnUse"
       id="clipPath4">
      <path
         d="m 4.636,135.678 h 348.169 v 88.645 H 4.636 Z"
         transform="translate(-144.22671,-203.45101)"
         id="path4" />
    </clipPath>
    <clipPath
       clipPathUnits="userSpaceOnUse"
       id="clipPath6">
      <path
         d="m 4.636,135.678 h 348.169 v 88.645 H 4.636 Z"
         transform="translate(-175.7527,-196.6717)"
         id="path6" />
    </clipPath>
    <clipPath
       clipPathUnits="userSpaceOnUse"
       id="clipPath8">
      <path
         d="m 4.636,135.678 h 348.169 v 88.645 H 4.636 Z"
         transform="translate(-206.08381,-212.86771)"
         id="path8" />
    </clipPath>
    <clipPath
       clipPathUnits="userSpaceOnUse"
       id="clipPath10">
      <path
         d="m 4.636,135.678 h 348.169 v 88.645 H 4.636 Z"
         transform="translate(-251.21331,-189.5628)"
         id="path10" />
    </clipPath>
    <clipPath
       clipPathUnits="userSpaceOnUse"
       id="clipPath12">
      <path
         d="m 4.636,135.678 h 348.169 v 88.645 H 4.636 Z"
         transform="translate(-285.1129,-189.13041)"
         id="path12" />
    </clipPath>
    <clipPath
       clipPathUnits="userSpaceOnUse"
       id="clipPath14">
      <path
         d="m 4.636,135.678 h 348.169 v 88.645 H 4.636 Z"
         transform="translate(-320.59591,-215.5669)"
         id="path14" />
    </clipPath>
    <clipPath
       clipPathUnits="userSpaceOnUse"
       id="clipPath16">
      <path
         d="m 4.636,135.678 h 348.169 v 88.645 H 4.636 Z"
         transform="translate(-111.09081,-164.6446)"
         id="path16" />
    </clipPath>
    <clipPath
       clipPathUnits="userSpaceOnUse"
       id="clipPath18">
      <path
         d="m 4.636,135.678 h 348.169 v 88.645 H 4.636 Z"
         transform="translate(-143.3698,-174.12291)"
         id="path18" />
    </clipPath>
    <clipPath
       clipPathUnits="userSpaceOnUse"
       id="clipPath20">
      <path
         d="m 4.636,135.678 h 348.169 v 88.645 H 4.636 Z"
         transform="translate(-181.4274,-162.3165)"
         id="path20" />
    </clipPath>
    <clipPath
       clipPathUnits="userSpaceOnUse"
       id="clipPath22">
      <path
         d="m 4.636,135.678 h 348.169 v 88.645 H 4.636 Z"
         transform="translate(-230.23101,-168.3945)"
         id="path22" />
    </clipPath>
    <clipPath
       clipPathUnits="userSpaceOnUse"
       id="clipPath24">
      <path
         d="m 4.636,135.678 h 348.169 v 88.645 H 4.636 Z"
         transform="translate(-260.71821,-147.99621)"
         id="path24" />
    </clipPath>
    <clipPath
       clipPathUnits="userSpaceOnUse"
       id="clipPath26">
      <path
         d="m 4.636,135.678 h 348.169 v 88.645 H 4.636 Z"
         transform="translate(-304.55611,-161.18271)"
         id="path26" />
    </clipPath>
    <clipPath
       clipPathUnits="userSpaceOnUse"
       id="clipPath28">
      <path
         d="m 4.636,135.678 h 348.169 v 88.645 H 4.636 Z"
         transform="translate(-323.23671,-170.53761)"
         id="path28" />
    </clipPath>
    <clipPath
       clipPathUnits="userSpaceOnUse"
       id="clipPath30">
      <path
         d="m 4.636,135.678 h 348.169 v 88.645 H 4.636 Z"
         transform="translate(-92.893405,-180.6903)"
         id="path30" />
    </clipPath>
  </defs>
  <sodipodi:namedview
     id="namedview1"
     pagecolor="#ffffff"
     bordercolor="#666666"
     borderopacity="1.0"
     inkscape:showpageshadow="2"
     inkscape:pageopacity="0.0"
     inkscape:pagecheckerboard="0"
     inkscape:deskcolor="#d1d1d1"
     inkscape:zoom="0.85035105"
     inkscape:cx="262.24463"
     inkscape:cy="264.00861"
     inkscape:window-width="864"
     inkscape:window-height="480"
     inkscape:window-x="174"
     inkscape:window-y="44"
     inkscape:window-maximized="0"
     inkscape:current-layer="layer-MC0">
    <inkscape:page
       x="0"
       y="0"
       inkscape:label="1"
       id="page1"
       width="479.99808"
       height="120"
       margin="180.90401 9.592 180.90401 6.1807466"
       bleed="0" />
  </sodipodi:namedview>
  <g
     id="layer-MC0"
     inkscape:groupmode="layer"
     inkscape:label="Layer 1"
     transform="translate(-5.8638659e-4,6.4647182e-4)">
    <g
       id="g30"
       transform="translate(1.7056295,-5.096119)">
      <path
         id="path1"
         d="m 0,0 v 2.226 c 0.013,0.741 -0.073,1.26 -0.258,1.555 -0.185,0.295 -0.594,0.642 -1.226,1.04 l -1.112,0.701 c -0.701,0.537 -1.038,1.168 -1.01,1.897 -0.014,1.73 0.955,2.616 2.905,2.657 L 3.4,9.828 5.913,9.746 8.531,9.685 c 0.892,-0.014 1.75,0.013 2.575,0.082 l 1.978,0.165 2.144,0.144 c 1.277,0 2.454,-0.106 3.533,-0.319 1.078,-0.214 1.996,-0.498 2.75,-0.856 1.155,-0.535 2.109,-1.421 2.864,-2.657 0.687,-1.099 1.045,-2.35 1.072,-3.75 -0.013,-1.91 -0.72,-3.504 -2.122,-4.781 l -0.887,-0.804 c -0.37,-0.358 -0.569,-0.694 -0.597,-1.009 0,-0.165 0.083,-0.309 0.248,-0.433 l 0.432,-0.268 1.009,-0.37 c 1.416,-0.523 2.528,-1.45 3.339,-2.783 0.769,-1.277 1.161,-2.679 1.174,-4.203 -0.013,-2.184 -0.761,-4.094 -2.245,-5.728 -1.636,-1.855 -4.032,-2.982 -7.191,-3.38 -1.155,-0.151 -2.281,-0.22 -3.379,-0.206 -0.936,0 -2.268,0.069 -3.998,0.206 l -2.782,0.186 H 5.254 l -1.504,-0.083 -4.307,-0.309 c -2.047,0.014 -3.063,0.913 -3.049,2.7 -0.028,1.236 0.398,2.087 1.277,2.555 l 1.134,0.556 c 0.577,0.261 0.92,1.119 1.03,2.576 L 0,-10.426 Z m 10.096,-0.927 c -0.014,-0.522 0.021,-0.99 0.104,-1.401 l 0.124,-0.371 c 0.164,-0.317 0.61,-0.468 1.339,-0.454 2.334,-0.028 3.502,1.299 3.502,3.978 -0.028,1.236 -0.329,2.225 -0.906,2.966 -0.687,0.893 -1.6,1.333 -2.74,1.319 C 10.708,5.124 10.234,4.836 10.096,4.244 V 3.029 Z m 0.063,-12.693 c 0.013,-1.95 0.872,-2.913 2.575,-2.885 0.962,-0.028 1.799,0.419 2.514,1.34 0.604,0.755 0.913,1.683 0.927,2.782 0,0.577 -0.097,1.167 -0.288,1.771 -0.467,1.402 -1.333,2.301 -2.597,2.699 -0.399,0.124 -0.824,0.187 -1.277,0.187 -1.1,-0.014 -1.697,-0.42 -1.793,-1.217 l -0.061,-1.277 z"
         style="fill:#eff0c0;fill-opacity:1;fill-rule:nonzero;stroke:none"
         transform="matrix(1.3333333,0,0,-1.3333333,147.79333,30.723723)"
         clip-path="url(#clipPath2)" />
      <path
         id="path3"
         d="m 0,0 c -0.014,1.744 -0.049,3.094 -0.102,4.049 -0.056,0.954 -0.18,1.596 -0.372,1.927 -0.261,0.439 -0.796,0.83 -1.607,1.174 -0.687,0.288 -1.098,0.562 -1.236,0.824 -0.193,0.344 -0.289,0.838 -0.289,1.484 0.014,1.923 1.209,2.905 3.586,2.946 l 2.843,-0.082 3.277,-0.144 3.482,-0.104 3.193,-0.041 3.277,-0.02 c 1.113,-0.014 2.067,0.034 2.864,0.144 0.646,0.055 1.257,0.151 1.833,0.289 0.427,0.095 0.777,0.144 1.051,0.144 1.016,-0.014 1.889,-0.825 2.618,-2.431 C 24.926,9.073 25.193,7.864 25.221,6.531 25.207,5.639 25.056,4.945 24.767,4.451 24.328,3.722 23.745,3.372 23.016,3.4 22.247,3.386 21.656,3.667 21.245,4.244 l -1.072,1.464 c -0.879,1.153 -2.988,1.73 -6.327,1.73 L 12.178,7.376 C 10.612,7.171 9.815,6.147 9.787,4.306 V 1.092 c 0,-1.181 0.75,-1.751 2.246,-1.71 0.811,-0.014 1.415,0.171 1.813,0.557 0.22,0.205 0.392,0.823 0.516,1.854 0.11,1.317 0.734,1.998 1.875,2.039 1.36,-0.014 2.225,-0.852 2.597,-2.513 0.246,-1.059 0.377,-2.37 0.391,-3.935 0,-0.935 -0.062,-1.876 -0.186,-2.825 -0.37,-2.829 -1.333,-4.23 -2.884,-4.202 -0.866,0.013 -1.463,0.541 -1.793,1.586 l -0.433,1.463 c -0.274,0.893 -0.941,1.36 -1.998,1.401 -0.742,-0.014 -1.251,-0.206 -1.526,-0.577 -0.179,-0.234 -0.26,-0.777 -0.246,-1.627 v -4.368 c -0.028,-1.416 0.721,-2.185 2.246,-2.309 0.645,-0.083 1.393,-0.117 2.246,-0.103 2.183,0 3.687,0.186 4.512,0.557 1.525,0.701 2.596,1.744 3.214,3.132 l 0.639,1.36 c 0.343,0.549 0.92,0.837 1.731,0.865 1.443,-0.055 2.15,-1.038 2.122,-2.947 -0.028,-1.4 -0.405,-2.919 -1.132,-4.553 -1.045,-2.363 -1.965,-3.551 -2.762,-3.565 -0.22,-0.014 -0.502,0.041 -0.846,0.165 -0.575,0.178 -1.008,0.288 -1.297,0.329 -0.371,0.056 -1.099,0.083 -2.185,0.083 l -6.593,-0.041 -5.296,-0.042 -4.162,-0.122 -3.151,-0.187 c -1.1,0.014 -1.863,0.275 -2.289,0.784 -0.494,0.59 -0.748,1.38 -0.762,2.369 -0.014,1.113 0.33,1.813 1.031,2.101 l 1.236,0.537 c 0.715,0.315 1.119,0.823 1.215,1.524 0.069,0.385 0.11,1.072 0.124,2.061 z"
         style="fill:#eff0c0;fill-opacity:1;fill-rule:nonzero;stroke:none"
         transform="matrix(1.3333333,0,0,-1.3333333,192.30227,33.827993)"
         clip-path="url(#clipPath4)" />
      <path
         id="path5"
         d="m 0,0 c 0.797,-0.041 1.525,-0.488 2.185,-1.339 l 1.462,-1.875 c 1.14,-1.429 2.837,-2.356 5.089,-2.782 0.701,-0.151 1.361,-0.22 1.979,-0.206 0.686,0 1.373,0.082 2.06,0.247 1.25,0.275 1.848,0.776 1.793,1.504 0,0.866 -0.927,1.538 -2.781,2.02 -1.278,0.301 -2.563,0.728 -3.854,1.277 -2.047,0.837 -3.799,1.766 -5.254,2.782 -2.362,1.62 -3.545,3.963 -3.545,7.027 -0.014,2.719 0.9,4.978 2.742,6.779 1.4,1.4 3.159,2.417 5.274,3.049 1.58,0.467 3.214,0.707 4.905,0.721 1.606,-0.014 3.344,-0.35 5.212,-1.01 0.55,-0.205 1.01,-0.309 1.38,-0.309 0.317,0 0.585,0.069 0.805,0.206 l 0.577,0.371 c 0.342,0.22 0.638,0.33 0.885,0.33 0.756,0.014 1.573,-0.563 2.453,-1.73 0.453,-0.592 0.858,-1.23 1.215,-1.917 0.673,-1.278 1.023,-2.376 1.051,-3.297 C 25.619,9.665 24.686,8.565 22.83,8.551 21.951,8.523 21.19,8.86 20.544,9.561 l -1.051,1.112 c -1.47,1.539 -3.401,2.315 -5.79,2.329 -0.907,0 -1.621,-0.172 -2.143,-0.515 -0.742,-0.482 -1.12,-1.086 -1.133,-1.814 0.013,-1.112 1.092,-1.902 3.234,-2.37 1.072,-0.233 2.212,-0.542 3.421,-0.927 1.882,-0.591 3.454,-1.221 4.719,-1.894 2.692,-1.429 4.045,-3.772 4.059,-7.027 0.013,-1.648 -0.333,-3.153 -1.041,-4.514 -0.708,-1.358 -1.637,-2.479 -2.792,-3.358 -1.264,-0.988 -2.699,-1.724 -4.307,-2.205 -1.703,-0.535 -3.577,-0.796 -5.624,-0.783 -0.976,0 -1.958,0.056 -2.947,0.166 -1.277,0.123 -2.439,0.33 -3.482,0.617 -1.443,0.357 -2.728,0.776 -3.854,1.258 -0.878,0.37 -1.459,0.711 -1.74,1.02 -0.282,0.309 -0.595,0.896 -0.939,1.761 -0.645,1.552 -0.975,3.187 -0.988,4.904 C -1.868,-0.894 -1.25,0 0,0"
         style="fill:#eff0c0;fill-opacity:1;fill-rule:nonzero;stroke:none"
         transform="matrix(1.3333333,0,0,-1.3333333,234.33693,42.867063)"
         clip-path="url(#clipPath6)" />
      <path
         id="path7"
         d="M 0,0 C 1.415,2.115 2.795,3.173 4.142,3.173 4.444,3.159 4.939,3.084 5.626,2.947 6.669,2.699 7.397,2.582 7.809,2.596 h 6.986 6.305 c 0.7,0.069 1.428,0.185 2.184,0.351 0.673,0.137 1.181,0.212 1.524,0.226 1.045,-0.014 2.165,-0.756 3.36,-2.226 0.92,-1.126 1.614,-2.329 2.081,-3.605 0.275,-0.756 0.411,-1.519 0.411,-2.287 -0.014,-0.907 -0.281,-1.635 -0.803,-2.184 -0.605,-0.633 -1.305,-0.955 -2.102,-0.969 -0.77,-0.014 -1.455,0.24 -2.061,0.762 -0.632,0.523 -1.195,1.181 -1.689,1.978 -0.59,0.948 -1.12,1.683 -1.586,2.205 -0.33,0.357 -0.66,0.537 -0.989,0.537 -0.673,-0.014 -1.106,-0.386 -1.299,-1.114 -0.096,-0.384 -0.165,-0.982 -0.205,-1.792 l -0.269,-1.773 c -0.095,-0.522 -0.137,-1.642 -0.123,-3.358 -0.014,-2.335 0.04,-4.307 0.164,-5.914 l 0.228,-3.338 c 0.095,-1.663 0.357,-2.768 0.782,-3.317 0.179,-0.247 0.405,-0.419 0.681,-0.515 l 0.576,-0.227 c 0.756,-0.303 1.146,-0.832 1.174,-1.586 -0.014,-1.169 -1.284,-2.034 -3.811,-2.597 -1.36,-0.302 -2.988,-0.454 -4.884,-0.454 -1.882,0 -3.502,0.152 -4.862,0.454 -2.527,0.55 -3.799,1.394 -3.813,2.534 -0.027,0.825 0.364,1.374 1.175,1.649 l 0.556,0.227 c 0.935,0.384 1.429,1.661 1.484,3.832 l 0.185,3.338 c 0.124,2.006 0.193,3.503 0.207,4.492 -0.014,1.292 -0.103,2.885 -0.268,4.78 L 8.984,-5.522 C 8.956,-3.6 8.49,-2.63 7.583,-2.616 6.909,-2.616 6.01,-3.531 4.884,-5.358 4.376,-6.169 3.819,-6.827 3.214,-7.336 2.61,-7.858 1.931,-8.112 1.175,-8.098 c -0.824,0 -1.533,0.309 -2.122,0.927 -0.523,0.549 -0.791,1.277 -0.805,2.184 C -1.738,-3.38 -1.153,-1.717 0,0"
         style="fill:#eff0c0;fill-opacity:1;fill-rule:nonzero;stroke:none"
         transform="matrix(1.3333333,0,0,-1.3333333,274.7784,21.272393)"
         clip-path="url(#clipPath8)" />
      <path
         id="path9"
         d="M 0,0 C 0.824,0.467 1.305,0.845 1.443,1.134 1.62,1.491 1.73,2.108 1.772,2.988 l 0.391,7.974 v 7.439 l -0.02,1.051 c -0.055,0.521 -0.24,0.886 -0.556,1.092 -0.165,0.109 -0.557,0.274 -1.175,0.494 -1.223,0.412 -1.841,1.223 -1.855,2.431 0,0.894 0.358,1.6 1.071,2.122 0.647,0.467 1.429,0.701 2.35,0.701 0.605,-0.014 1.49,-0.075 2.658,-0.185 1.291,-0.151 3.208,-0.22 5.749,-0.206 h 2.019 c 1.127,0.041 2.432,0.117 3.916,0.226 1.4,0.11 2.527,0.165 3.378,0.165 2.033,0 3.984,-0.446 5.852,-1.339 2.679,-1.305 4.691,-3.269 6.039,-5.893 1.276,-2.514 1.915,-5.283 1.915,-8.304 0,-4.932 -1.429,-8.86 -4.287,-11.786 -2.76,-2.83 -6.689,-4.237 -11.785,-4.224 -1.057,0 -2.301,0.055 -3.73,0.164 l -3.564,0.228 c -1.607,0 -2.755,-0.028 -3.441,-0.083 -2.624,-0.22 -4.224,-0.322 -4.801,-0.309 -0.935,-0.027 -1.725,0.217 -2.37,0.731 -0.646,0.516 -0.969,1.254 -0.969,2.216 0,0.988 0.482,1.758 1.443,2.307 m 12.322,3.565 c -0.014,-1.14 0.136,-2.053 0.453,-2.74 0.358,-0.77 1.147,-1.142 2.37,-1.114 1.689,0 3.125,0.578 4.306,1.732 1.017,0.988 1.656,2.411 1.916,4.265 0.179,1.25 0.268,2.617 0.268,4.1 -0.014,1.786 -0.138,3.408 -0.37,4.863 -0.166,1.031 -0.516,2.061 -1.051,3.092 -1.237,2.389 -3.064,3.577 -5.481,3.563 -1.251,-0.012 -1.985,-0.404 -2.206,-1.174 -0.15,-0.576 -0.219,-1.462 -0.205,-2.658 z"
         style="fill:#eff0c0;fill-opacity:1;fill-rule:nonzero;stroke:none"
         transform="matrix(1.3333333,0,0,-1.3333333,334.95107,52.345593)"
         clip-path="url(#clipPath10)" />
      <path
         id="path11"
         d="m 0,0 1.422,0.535 c 0.466,0.289 0.961,0.921 1.483,1.896 1.388,2.638 2.782,5.447 4.183,8.428 1.14,2.404 2.047,4.471 2.72,6.201 0.453,1.169 0.707,2.165 0.763,2.988 l 0.123,2.041 c 0.096,1.731 0.858,3.008 2.287,3.833 0.934,0.549 1.944,0.823 3.03,0.823 2.279,-0.028 4.307,-1.25 6.078,-3.668 1.483,-2.074 2.768,-4.216 3.853,-6.428 L 31.65,4.616 33.113,1.689 C 33.524,0.811 34.142,0.246 34.967,0 c 1.154,-0.398 1.738,-0.969 1.751,-1.71 -0.013,-1.457 -1.326,-2.37 -3.936,-2.741 -1.868,-0.289 -3.777,-0.425 -5.728,-0.413 -5.288,-0.012 -7.933,0.915 -7.933,2.783 -0.041,1.058 0.529,1.752 1.711,2.081 0.425,0.137 0.728,0.254 0.907,0.35 l 0.205,0.227 0.062,0.247 c 0,0.66 -0.584,1.162 -1.751,1.504 -0.947,0.247 -2.116,0.378 -3.502,0.392 L 12.033,2.328 C 10.468,2.191 9.519,1.903 9.19,1.463 9.094,1.339 9.045,1.202 9.045,1.051 9.059,0.693 9.218,0.46 9.519,0.35 L 10.612,0 c 0.948,-0.343 1.415,-0.969 1.401,-1.876 0,-1.95 -2.047,-2.945 -6.141,-2.988 -0.892,0 -2.109,0.077 -3.646,0.228 -2.707,0.247 -4.047,1.079 -4.019,2.493 C -1.821,-1.168 -1.223,-0.453 0,0 m 17.473,7.933 0.825,0.041 c 0.205,0.096 0.309,0.301 0.309,0.618 l -0.124,0.413 -0.35,0.762 -2.185,4.553 -0.329,0.66 -0.268,0.33 -0.206,0.102 C 14.993,15.399 14.89,15.377 14.836,15.351 14.671,15.255 14.547,15.131 14.464,14.98 L 14.135,14.3 12.57,10.426 12.24,9.519 C 12.033,9.108 11.937,8.805 11.952,8.613 c 0,-0.137 0.04,-0.247 0.123,-0.33 0.206,-0.246 0.694,-0.364 1.462,-0.35 z"
         style="fill:#eff0c0;fill-opacity:1;fill-rule:nonzero;stroke:none"
         transform="matrix(1.3333333,0,0,-1.3333333,380.15053,52.922123)"
         clip-path="url(#clipPath12)" />
      <path
         id="path13"
         d="m 0,0 c 1.923,0.177 3.736,0.281 5.439,0.309 1.732,-0.014 3.537,-0.132 5.42,-0.35 2.761,-0.317 4.134,-1.209 4.121,-2.679 0,-0.384 -0.221,-0.817 -0.66,-1.298 l -0.514,-0.535 -0.372,-0.475 -0.061,-0.226 c 0,-0.165 0.158,-0.447 0.473,-0.846 0.096,-0.15 0.632,-1.16 1.608,-3.028 l 0.35,-0.557 0.309,-0.289 0.185,-0.061 0.227,0.083 0.454,0.411 0.618,0.764 1.896,2.616 c 0.315,0.425 0.473,0.748 0.473,0.968 0.013,0.152 -0.103,0.364 -0.349,0.64 l -0.62,0.782 c -0.315,0.412 -0.466,0.852 -0.453,1.319 0,1.814 2.459,2.733 7.378,2.761 4.093,0 6.153,-0.866 6.181,-2.596 -0.042,-1.168 -0.845,-1.924 -2.411,-2.266 -1.511,-0.331 -2.83,-1.045 -3.957,-2.144 -1.36,-1.36 -2.768,-2.85 -4.224,-4.471 -0.906,-1.03 -1.559,-1.82 -1.957,-2.369 -0.481,-0.701 -0.748,-1.671 -0.803,-2.907 l -0.021,-1.524 c 0.013,-2.088 0.143,-4.279 0.391,-6.572 0.097,-1.031 0.461,-1.663 1.093,-1.896 l 0.803,-0.33 c 0.852,-0.371 1.291,-0.934 1.319,-1.69 -0.041,-1.167 -1.038,-1.937 -2.988,-2.308 -1.745,-0.356 -3.51,-0.536 -5.295,-0.536 -6.058,0.028 -9.087,1.004 -9.087,2.927 -0.014,0.851 0.309,1.374 0.969,1.565 l 1.194,0.372 c 0.687,0.191 1.038,0.906 1.051,2.142 0.014,1.086 0.123,3.043 0.33,5.873 l 0.062,1.709 c 0,1.209 -0.323,2.281 -0.969,3.215 -0.302,0.426 -1.023,1.312 -2.164,2.659 -1.455,1.73 -2.973,3.447 -4.553,5.151 -0.618,0.646 -1.319,1.023 -2.102,1.134 l -0.701,0.122 c -1.181,0.234 -1.75,0.846 -1.709,1.835 C -3.654,-1.112 -2.445,-0.248 0,0"
         style="fill:#eff0c0;fill-opacity:1;fill-rule:nonzero;stroke:none"
         transform="matrix(1.3333333,0,0,-1.3333333,427.4612,17.673463)"
         clip-path="url(#clipPath14)" />
      <path
         id="path15"
         d="m 0,0 v 2.226 c 0.014,0.741 -0.073,1.26 -0.258,1.555 -0.185,0.295 -0.594,0.642 -1.226,1.04 l -1.112,0.701 c -0.701,0.535 -1.038,1.168 -1.01,1.897 -0.014,1.73 0.955,2.616 2.905,2.657 L 3.4,9.828 5.913,9.746 8.531,9.684 c 0.892,-0.013 1.75,0.014 2.575,0.083 l 1.978,0.165 2.144,0.144 c 1.277,0 2.454,-0.106 3.533,-0.319 1.078,-0.214 1.996,-0.498 2.75,-0.856 1.155,-0.535 2.109,-1.421 2.864,-2.657 0.687,-1.099 1.045,-2.35 1.072,-3.75 -0.013,-1.91 -0.72,-3.504 -2.122,-4.781 l -0.887,-0.804 c -0.37,-0.358 -0.569,-0.694 -0.596,-1.009 0,-0.165 0.082,-0.309 0.247,-0.433 l 0.432,-0.268 1.009,-0.37 c 1.416,-0.523 2.528,-1.451 3.339,-2.783 0.769,-1.277 1.161,-2.679 1.175,-4.203 -0.014,-2.185 -0.762,-4.094 -2.246,-5.728 -1.636,-1.854 -4.032,-2.98 -7.191,-3.38 -1.155,-0.151 -2.281,-0.22 -3.379,-0.206 -0.935,0 -2.268,0.069 -3.998,0.206 l -2.782,0.186 H 5.254 L 3.75,-21.16 -0.557,-21.471 c -2.047,0.014 -3.063,0.913 -3.049,2.7 -0.028,1.236 0.398,2.087 1.277,2.555 l 1.134,0.556 c 0.577,0.261 0.92,1.119 1.03,2.576 L 0,-10.426 Z m 10.096,-0.927 c -0.014,-0.522 0.021,-0.99 0.104,-1.401 l 0.124,-0.371 c 0.164,-0.317 0.61,-0.468 1.339,-0.454 2.334,-0.028 3.502,1.299 3.502,3.978 -0.028,1.236 -0.329,2.224 -0.906,2.966 -0.687,0.893 -1.6,1.332 -2.74,1.319 C 10.708,5.123 10.234,4.836 10.096,4.244 V 3.029 Z m 0.063,-12.693 c 0.013,-1.95 0.872,-2.913 2.575,-2.885 0.962,-0.028 1.799,0.419 2.514,1.34 0.604,0.755 0.913,1.683 0.927,2.782 0,0.576 -0.097,1.167 -0.288,1.771 -0.468,1.401 -1.333,2.301 -2.597,2.699 -0.399,0.124 -0.824,0.187 -1.277,0.187 -1.1,-0.014 -1.697,-0.42 -1.793,-1.217 l -0.061,-1.277 z"
         style="fill:#eff0c0;fill-opacity:1;fill-rule:nonzero;stroke:none"
         transform="matrix(1.3333333,0,0,-1.3333333,148.12107,85.569863)"
         clip-path="url(#clipPath16)" />
      <path
         id="path17"
         d="M 0,0 C 0.769,0.384 1.744,0.584 2.927,0.598 L 5.069,0.433 C 6.484,0.268 7.734,0.192 8.819,0.206 9.643,0.192 10.501,0.227 11.395,0.309 l 2.411,0.185 c 0.878,0.069 1.661,0.104 2.349,0.104 1.016,0 2.053,-0.069 3.11,-0.206 1.814,-0.248 3.38,-0.674 4.698,-1.278 1.25,-0.591 2.26,-1.518 3.03,-2.781 0.742,-1.195 1.112,-2.514 1.112,-3.957 -0.013,-2.486 -1.002,-4.375 -2.967,-5.666 l -1.175,-0.804 c -0.151,-0.124 -0.267,-0.247 -0.35,-0.37 l -0.061,-0.228 c -0.028,-0.246 0.144,-0.461 0.514,-0.638 l 0.784,-0.351 c 1.58,-0.604 2.767,-1.539 3.564,-2.802 0.618,-0.989 1.059,-2.451 1.319,-4.39 l 0.268,-1.647 c 0.151,-0.88 0.673,-1.416 1.566,-1.607 1.113,-0.289 1.669,-0.832 1.669,-1.627 0.028,-1.168 -0.817,-2.055 -2.535,-2.659 -1.098,-0.385 -2.368,-0.578 -3.811,-0.578 -1.264,-0.013 -2.472,0.152 -3.627,0.495 -1.469,0.413 -2.583,1.059 -3.339,1.937 -0.549,0.631 -1.084,1.807 -1.606,3.523 l -0.99,3.421 c -0.301,1.071 -0.658,1.964 -1.071,2.679 -0.563,0.933 -1.388,1.401 -2.472,1.401 -0.949,-0.027 -1.47,-0.488 -1.567,-1.381 l -0.04,-0.845 c 0.028,-1.47 0.158,-2.897 0.392,-4.285 0.15,-1.016 0.679,-1.711 1.585,-2.081 1.1,-0.468 1.642,-1.051 1.628,-1.751 0.014,-1.841 -1.628,-2.851 -4.924,-3.03 -0.865,-0.069 -1.806,-0.096 -2.822,-0.083 -6.429,0.028 -9.637,1.107 -9.623,3.237 0,0.507 0.198,0.912 0.598,1.214 l 0.699,0.413 c 0.852,0.398 1.36,0.908 1.525,1.524 0.193,0.687 0.323,1.435 0.392,2.246 l 0.392,5.687 -0.063,4.74 c -0.054,1.661 -0.164,3.296 -0.329,4.903 -0.069,0.728 -0.199,1.23 -0.392,1.505 -0.124,0.164 -0.563,0.453 -1.318,0.865 -1.003,0.482 -1.504,1.25 -1.504,2.308 0,1.016 0.529,1.8 1.586,2.349 m 11.952,-11.312 c 0.122,-1.127 0.651,-1.676 1.585,-1.648 1.388,0.013 2.363,0.782 2.927,2.307 0.234,0.618 0.35,1.271 0.35,1.958 -0.028,1.03 -0.254,1.951 -0.679,2.76 -0.551,1.031 -1.286,1.553 -2.206,1.567 -0.879,0.027 -1.422,-0.563 -1.628,-1.772 -0.274,-1.484 -0.406,-2.816 -0.392,-3.998 z"
         style="fill:#eff0c0;fill-opacity:1;fill-rule:nonzero;stroke:none"
         transform="matrix(1.3333333,0,0,-1.3333333,191.15973,72.932123)"
         clip-path="url(#clipPath18)" />
      <path
         id="path19"
         d="m 0,0 c -0.014,1.744 -0.049,3.094 -0.102,4.049 -0.056,0.954 -0.18,1.596 -0.372,1.927 -0.261,0.439 -0.796,0.83 -1.607,1.174 -0.687,0.288 -1.098,0.562 -1.236,0.824 -0.193,0.344 -0.289,0.838 -0.289,1.484 0.014,1.923 1.209,2.905 3.586,2.946 l 2.843,-0.082 3.277,-0.144 3.482,-0.104 3.193,-0.041 3.277,-0.02 c 1.113,-0.014 2.067,0.034 2.864,0.144 0.646,0.055 1.257,0.151 1.833,0.289 0.427,0.095 0.776,0.144 1.051,0.144 1.016,-0.014 1.889,-0.825 2.618,-2.431 C 24.926,9.073 25.193,7.864 25.221,6.531 25.207,5.639 25.056,4.945 24.767,4.451 24.328,3.722 23.745,3.372 23.016,3.4 22.247,3.386 21.656,3.667 21.245,4.244 l -1.072,1.464 c -0.879,1.153 -2.988,1.73 -6.327,1.73 L 12.178,7.376 C 10.612,7.171 9.815,6.147 9.787,4.306 V 1.092 c 0,-1.181 0.75,-1.751 2.246,-1.71 0.811,-0.014 1.415,0.171 1.813,0.557 0.22,0.205 0.392,0.823 0.516,1.854 0.11,1.319 0.734,1.998 1.875,2.039 1.36,-0.014 2.225,-0.852 2.597,-2.513 0.246,-1.059 0.377,-2.37 0.391,-3.935 0,-0.935 -0.062,-1.876 -0.186,-2.825 -0.37,-2.829 -1.333,-4.23 -2.884,-4.203 -0.866,0.014 -1.463,0.542 -1.793,1.587 l -0.433,1.463 c -0.274,0.893 -0.941,1.36 -1.998,1.401 -0.742,-0.014 -1.251,-0.206 -1.526,-0.577 -0.179,-0.234 -0.26,-0.775 -0.246,-1.627 v -4.368 c -0.028,-1.415 0.721,-2.185 2.246,-2.309 0.645,-0.081 1.394,-0.116 2.246,-0.103 2.183,0 3.687,0.186 4.512,0.557 1.525,0.701 2.596,1.745 3.214,3.132 l 0.639,1.36 c 0.343,0.549 0.92,0.837 1.731,0.865 1.443,-0.055 2.15,-1.038 2.122,-2.947 -0.028,-1.4 -0.405,-2.919 -1.132,-4.553 -1.045,-2.362 -1.965,-3.551 -2.762,-3.565 -0.22,-0.014 -0.502,0.041 -0.846,0.165 -0.575,0.178 -1.008,0.288 -1.297,0.33 -0.371,0.055 -1.099,0.082 -2.185,0.082 l -6.593,-0.041 -5.296,-0.041 -4.162,-0.123 -3.151,-0.186 c -1.1,0.014 -1.863,0.275 -2.289,0.783 -0.494,0.59 -0.748,1.38 -0.762,2.369 -0.014,1.113 0.33,1.813 1.031,2.101 l 1.236,0.537 c 0.715,0.315 1.119,0.825 1.215,1.524 0.069,0.386 0.11,1.072 0.124,2.061 z"
         style="fill:#eff0c0;fill-opacity:1;fill-rule:nonzero;stroke:none"
         transform="matrix(1.3333333,0,0,-1.3333333,241.9032,88.673993)"
         clip-path="url(#clipPath20)" />
      <path
         id="path21"
         d="m 0,0 c -0.22,0.467 -0.405,0.776 -0.557,0.928 l -0.679,0.556 c -0.618,0.481 -0.935,1.126 -0.947,1.937 -0.029,1.415 0.905,2.28 2.801,2.596 1.264,0.219 2.63,0.329 4.1,0.329 C 9.952,6.333 12.57,5.323 12.57,3.317 L 12.527,2.803 C 12.446,2.582 12.328,2.39 12.178,2.226 L 11.374,1.484 C 11.127,1.25 11.01,1.002 11.023,0.742 11.01,0.481 11.1,0.11 11.291,-0.37 l 2.123,-5.791 0.247,-0.659 c 0.096,-0.262 0.226,-0.481 0.392,-0.66 0.054,-0.082 0.137,-0.116 0.247,-0.102 0.138,-0.028 0.33,0.177 0.577,0.618 l 0.371,0.886 1.566,4.285 0.309,0.969 c 0.124,0.466 0.193,0.858 0.207,1.175 -0.014,0.218 -0.069,0.446 -0.166,0.679 -0.096,0.193 -0.226,0.344 -0.391,0.454 l -0.804,0.514 c -0.631,0.372 -0.948,0.908 -0.948,1.608 0,1.841 1.848,2.754 5.543,2.74 4.588,-0.041 6.875,-0.947 6.862,-2.72 C 27.412,2.994 27.205,2.535 26.808,2.246 26.587,2.081 26.14,1.827 25.468,1.484 24.739,1.113 24.239,0.693 23.964,0.227 23.826,-0.02 23.579,-0.624 23.222,-1.586 l -6.985,-18.277 c -0.454,-1.14 -0.948,-2.26 -1.484,-3.358 -0.329,-0.673 -0.663,-1.183 -0.999,-1.525 -0.337,-0.343 -0.904,-0.516 -1.7,-0.516 -1.112,-0.026 -1.958,0.708 -2.535,2.206 l -3.997,9.663 -0.845,1.874 c -0.096,0.152 -0.205,0.303 -0.329,0.454 -0.083,0.069 -0.165,0.103 -0.248,0.103 -0.096,-0.014 -0.179,-0.041 -0.246,-0.082 l -0.289,-0.329 -0.598,-1.217 -3.482,-7.891 -1.113,-2.535 c -0.77,-1.51 -1.628,-2.258 -2.575,-2.246 -0.852,-0.012 -1.566,0.537 -2.143,1.649 -0.427,0.797 -0.811,1.579 -1.154,2.349 l -7.501,17.04 -0.968,2.246 c -0.591,1.484 -1.229,2.452 -1.916,2.906 l -0.927,0.556 c -0.907,0.536 -1.36,1.167 -1.36,1.896 0.013,1.373 1.161,2.252 3.44,2.637 1.126,0.192 2.713,0.302 4.76,0.329 4.809,-0.041 7.198,-1.126 7.171,-3.255 0,-0.536 -0.152,-0.975 -0.453,-1.319 L -5.543,1.484 C -5.831,1.223 -5.969,1.016 -5.955,0.866 c 0,-0.124 0.089,-0.344 0.268,-0.659 l 0.35,-0.764 2.7,-6.427 0.247,-0.64 c 0.083,-0.22 0.213,-0.425 0.392,-0.618 0.053,-0.082 0.122,-0.116 0.205,-0.102 l 0.165,0.061 0.372,0.474 0.453,0.845 1.915,4.286 z"
         style="fill:#eff0c0;fill-opacity:1;fill-rule:nonzero;stroke:none"
         transform="matrix(1.3333333,0,0,-1.3333333,306.97467,80.569993)"
         clip-path="url(#clipPath22)" />
      <path
         id="path23"
         d="M 0,0 C 0.769,0.289 1.242,0.572 1.421,0.854 1.6,1.136 1.73,1.682 1.813,2.492 l 0.248,3.751 c 0.082,1.868 0.13,3.579 0.143,5.13 0,1.443 -0.047,3.222 -0.143,5.337 -0.055,1.113 -0.138,2.123 -0.248,3.029 -0.124,0.962 -0.701,1.675 -1.731,2.143 -1.003,0.412 -1.497,0.975 -1.484,1.69 0.028,1.497 1.416,2.432 4.163,2.802 1.814,0.248 3.544,0.37 5.193,0.37 5.343,0.014 8.015,-1.051 8.015,-3.192 -0.029,-0.798 -0.482,-1.355 -1.36,-1.67 -0.769,-0.302 -1.25,-0.598 -1.442,-0.885 -0.193,-0.29 -0.331,-0.805 -0.412,-1.546 -0.11,-0.989 -0.2,-2.019 -0.268,-3.09 -0.083,-1.484 -0.124,-3.03 -0.124,-4.637 -0.014,-1.978 0.041,-3.813 0.164,-5.502 L 12.755,2.72 C 12.81,1.895 12.919,1.324 13.084,1.01 13.29,0.624 13.757,0.289 14.485,0 c 0.961,-0.398 1.455,-0.976 1.484,-1.731 -0.014,-1.429 -1.037,-2.314 -3.07,-2.658 -1.758,-0.316 -3.518,-0.475 -5.275,-0.475 -1.717,0 -3.449,0.145 -5.193,0.433 -1.099,0.193 -1.937,0.405 -2.514,0.64 -0.893,0.37 -1.332,1.043 -1.319,2.019 0,0.837 0.467,1.427 1.402,1.772"
         style="fill:#eff0c0;fill-opacity:1;fill-rule:nonzero;stroke:none"
         transform="matrix(1.3333333,0,0,-1.3333333,347.62427,107.76772)"
         clip-path="url(#clipPath24)" />
      <path
         id="path25"
         d="m 0,0 0.907,-0.866 0.514,-0.246 0.187,0.433 C 1.854,0.652 1.984,2.04 1.998,3.482 1.984,4.581 1.943,5.659 1.874,6.718 1.82,7.322 1.707,7.744 1.535,7.984 1.364,8.224 1.002,8.462 0.453,8.695 c -1.374,0.564 -2.061,1.279 -2.061,2.143 0,1.388 1.169,2.226 3.504,2.514 1.043,0.137 1.944,0.206 2.699,0.206 4.794,-0.069 7.198,-1.029 7.211,-2.885 C 11.793,9.932 11.257,9.273 10.2,8.695 9.252,8.228 8.716,7.37 8.592,6.12 L 8.386,3.4 C 8.249,1.051 8.187,-1.092 8.2,-3.029 v -5.337 c -0.013,-1.936 -0.082,-3.763 -0.206,-5.48 -0.192,-2.844 -1.085,-4.245 -2.678,-4.204 -0.604,-0.013 -1.182,0.199 -1.731,0.639 -0.453,0.343 -1.016,0.831 -1.689,1.463 l -13.641,12.775 -1.071,0.907 -0.372,0.226 -0.185,0.02 -0.207,-0.102 -0.246,-0.309 c -0.248,-0.494 -0.378,-1.614 -0.392,-3.358 -0.014,-1.649 0.049,-3.187 0.185,-4.616 0.069,-0.756 0.21,-1.315 0.423,-1.679 0.213,-0.364 0.683,-0.732 1.412,-1.102 1.03,-0.496 1.559,-1.093 1.586,-1.794 -0.014,-1.992 -2.287,-3.015 -6.82,-3.07 -1.415,0 -2.713,0.172 -3.894,0.516 -1.828,0.521 -2.728,1.332 -2.7,2.43 0.014,0.811 0.48,1.449 1.401,1.918 0.811,0.425 1.285,0.817 1.423,1.173 0.136,0.358 0.268,0.955 0.39,1.793 0.248,2.033 0.378,3.763 0.392,5.192 0,0.784 -0.041,1.855 -0.124,3.215 -0.192,2.843 -0.281,5.035 -0.268,6.573 0.014,1.785 -0.357,2.905 -1.112,3.358 l -0.989,0.577 c -0.756,0.427 -1.127,1.003 -1.113,1.732 -0.014,1.167 0.824,2.025 2.515,2.575 1.098,0.357 2.396,0.543 3.893,0.556 1.717,-0.013 3.016,-0.261 3.895,-0.742 0.55,-0.329 1.538,-1.167 2.967,-2.513 z"
         style="fill:#eff0c0;fill-opacity:1;fill-rule:nonzero;stroke:none"
         transform="matrix(1.3333333,0,0,-1.3333333,406.0748,90.185723)"
         clip-path="url(#clipPath26)" />
      <path
         id="path27"
         d="m 0,0 c 3.159,2.803 7.088,4.203 11.785,4.203 1.856,0 3.476,-0.246 4.864,-0.741 0.866,-0.33 1.476,-0.488 1.834,-0.474 0.316,-0.014 0.845,0.205 1.587,0.659 0.618,0.371 1.154,0.556 1.607,0.556 1.153,-0.014 2.184,-1.016 3.09,-3.008 0.659,-1.455 0.996,-2.919 1.01,-4.388 0,-1.072 -0.329,-2.027 -0.989,-2.864 -0.714,-0.921 -1.58,-1.381 -2.596,-1.381 -0.811,-0.014 -1.545,0.302 -2.205,0.948 -0.37,0.37 -0.948,0.961 -1.73,1.772 -1.813,1.826 -3.75,2.732 -5.811,2.72 C 9.96,-2.026 8.187,-3.049 7.13,-5.069 6.498,-6.236 6.188,-7.474 6.202,-8.777 c -0.014,-1.663 0.262,-3.38 0.825,-5.152 0.673,-2.184 1.463,-3.799 2.369,-4.842 1.401,-1.607 2.974,-2.417 4.719,-2.431 0.851,-0.015 1.552,0.343 2.101,1.072 0.468,0.631 0.701,1.407 0.701,2.327 0.013,1.25 -0.467,1.903 -1.443,1.958 l -1.297,0.041 c -1.471,0.054 -2.199,0.61 -2.185,1.669 0.055,1.772 1.923,2.754 5.605,2.946 l 4.306,0.247 c 1.099,0 2.006,-0.054 2.72,-0.164 1.594,-0.247 2.837,-0.591 3.73,-1.031 0.783,-0.37 1.189,-1.03 1.216,-1.978 0.014,-0.851 -0.495,-1.414 -1.525,-1.689 -0.797,-0.205 -1.313,-0.583 -1.545,-1.134 l -0.577,-1.421 c -0.618,-1.553 -1.36,-2.858 -2.226,-3.915 -2.72,-3.406 -6.649,-5.117 -11.787,-5.132 -4.807,0.015 -8.811,1.492 -12.011,4.431 -3.339,3.063 -5.002,6.958 -4.988,11.684 C -5.076,-6.744 -3.379,-2.982 0,0"
         style="fill:#eff0c0;fill-opacity:1;fill-rule:nonzero;stroke:none"
         transform="matrix(1.3333333,0,0,-1.3333333,430.98227,77.712523)"
         clip-path="url(#clipPath28)" />
      <path
         id="path29"
         d="M 0,0 C -1.485,1.343 -3.411,2.264 -5.571,2.662 -6.636,2.863 -7.765,2.877 -8.85,2.707 -8.924,2.707 -9.076,2.675 -9.079,2.675 -9.329,2.632 -9.58,2.584 -9.86,2.505 L -10.636,2.261 C -10.855,2.186 -11.065,2.085 -11.271,1.983 L -12.13,1.562 c -0.911,-0.491 -2.159,-0.804 -3.932,-0.986 -0.159,-0.018 -0.325,-0.028 -0.49,-0.038 -0.618,0.978 -0.109,2.263 0.264,2.961 1.028,0.111 2.065,0.408 3.172,0.907 0.236,0.113 0.471,0.229 0.725,0.386 l 0.678,0.443 c 0.193,0.132 0.372,0.287 0.542,0.443 l 0.71,0.635 c 0.747,0.717 1.864,1.357 3.519,2.012 1.111,0.441 2.285,0.819 3.53,1.218 l 1.323,0.428 c 0.47,0.156 0.793,0.594 0.803,1.091 0.01,0.498 -0.297,0.948 -0.763,1.119 -1.837,0.683 -3.864,0.902 -6.035,0.639 -1.198,-0.159 -2.18,-0.414 -3.089,-0.802 -1.199,-0.503 -2.16,-1.115 -2.931,-1.864 l -0.445,-0.418 c -0.061,-0.053 -0.12,-0.11 -0.222,-0.208 -0.027,-0.027 -0.053,-0.056 -0.107,-0.096 L -15.285,9.113 C -15.316,9.09 -15.351,9.072 -15.422,9.03 -15.528,8.966 -15.63,8.901 -15.63,8.897 c -0.58,-0.353 -1.202,-0.65 -1.852,-0.883 -0.147,-0.054 -0.304,-0.097 -0.462,-0.142 -0.025,-0.008 -0.052,-0.015 -0.079,-0.023 -0.369,0.373 -0.568,0.9 -0.594,1.572 0.174,0.037 0.347,0.079 0.52,0.135 1.039,0.333 2.036,0.87 3.059,1.645 0.211,0.166 0.42,0.332 0.632,0.544 l 0.569,0.587 c 0.155,0.17 0.292,0.36 0.421,0.547 l 0.555,0.78 c 0.565,0.863 1.512,1.736 2.982,2.745 0.959,0.66 2.002,1.281 3.166,1.971 l 1.196,0.716 c 0.426,0.255 0.644,0.755 0.542,1.243 -0.102,0.485 -0.5,0.857 -0.994,0.922 -1.944,0.253 -3.968,0.012 -6.026,-0.724 -1.133,-0.424 -2.034,-0.891 -2.832,-1.47 -1.055,-0.758 -1.855,-1.569 -2.44,-2.47 l -0.341,-0.505 c -0.055,-0.074 -0.105,-0.15 -0.166,-0.247 -0.022,-0.036 -0.045,-0.074 -0.087,-0.124 l -0.329,-0.404 0.385,-0.315 -0.485,0.218 c -0.093,-0.089 -0.185,-0.182 -0.186,-0.189 -0.486,-0.472 -1.026,-0.9 -1.609,-1.274 -0.119,-0.077 -0.244,-0.151 -0.371,-0.226 -1.142,0.41 -1.421,1.692 -1.469,2.598 0.011,0.008 0.022,0.014 0.032,0.021 0.913,0.602 1.73,1.389 2.506,2.413 0.155,0.215 0.308,0.43 0.459,0.692 l 0.384,0.715 c 0.106,0.207 0.186,0.429 0.263,0.648 l 0.322,0.897 c 0.311,0.988 0.988,2.085 2.128,3.45 0.759,0.911 1.608,1.803 2.509,2.748 l 0.966,1.018 c 0.341,0.364 0.413,0.903 0.185,1.343 -0.229,0.437 -0.711,0.688 -1.206,0.619 -1.935,-0.277 -3.82,-1.058 -5.606,-2.325 -0.977,-0.715 -1.718,-1.408 -2.329,-2.182 -0.811,-1.014 -1.363,-2.01 -1.683,-3.038 l -0.192,-0.579 c -0.032,-0.086 -0.058,-0.171 -0.09,-0.28 -0.013,-0.041 -0.025,-0.083 -0.053,-0.144 l -0.204,-0.471 c -0.015,-0.035 -0.036,-0.067 -0.073,-0.128 -0.065,-0.11 -0.129,-0.224 -0.129,-0.233 -0.342,-0.589 -0.745,-1.146 -1.205,-1.659 -0.115,-0.132 -0.238,-0.262 -0.39,-0.422 -0.891,0.189 -1.421,0.995 -1.726,1.756 0.079,0.076 0.157,0.153 0.229,0.235 0.727,0.812 1.317,1.78 1.809,2.969 0.097,0.247 0.19,0.495 0.269,0.787 l 0.191,0.788 c 0.048,0.226 0.071,0.459 0.089,0.69 l 0.084,0.952 c 0.051,1.035 0.428,2.267 1.184,3.878 0.503,1.078 1.098,2.154 1.729,3.296 l 0.675,1.228 c 0.238,0.435 0.174,0.976 -0.161,1.347 -0.337,0.368 -0.869,0.485 -1.322,0.291 -1.803,-0.759 -3.428,-1.993 -4.835,-3.672 -0.763,-0.94 -1.303,-1.799 -1.699,-2.702 -0.528,-1.189 -0.808,-2.292 -0.857,-3.362 l -0.038,-0.61 c -0.009,-0.091 -0.013,-0.18 -0.018,-0.298 0,-0.041 -10e-4,-0.084 -0.013,-0.15 l -0.078,-0.509 c -0.007,-0.044 -0.023,-0.089 -0.039,-0.145 -0.035,-0.124 -0.067,-0.248 -0.064,-0.253 -0.18,-0.652 -0.429,-1.295 -0.743,-1.91 -0.101,-0.202 -0.211,-0.404 -0.323,-0.607 -1.221,0.034 -2.051,1.184 -2.416,1.819 0.463,0.962 0.761,2.035 0.909,3.282 0.027,0.265 0.051,0.532 0.047,0.833 l -0.031,0.815 c -0.014,0.229 -0.056,0.459 -0.099,0.687 l -0.178,0.938 c -0.231,1.009 -0.201,2.296 0.092,4.052 0.191,1.164 0.473,2.363 0.774,3.64 l 0.317,1.366 c 0.111,0.485 -0.097,0.988 -0.52,1.254 -0.421,0.263 -0.965,0.232 -1.352,-0.078 -1.529,-1.219 -2.759,-2.846 -3.661,-4.842 -0.48,-1.109 -0.767,-2.082 -0.905,-3.059 -0.187,-1.286 -0.159,-2.425 0.085,-3.471 l 0.127,-0.595 c 0.015,-0.089 0.037,-0.178 0.06,-0.279 0.011,-0.045 0.025,-0.091 0.032,-0.161 l 0.062,-0.515 c 0.004,-0.037 0.003,-0.075 0.003,-0.14 -10e-4,-0.133 0.001,-0.267 0.005,-0.268 0.004,-0.678 -0.063,-1.364 -0.199,-2.042 -0.041,-0.212 -0.09,-0.428 -0.141,-0.644 -1.044,-0.263 -2.073,0.497 -2.621,1.009 0.005,0.026 0.011,0.05 0.015,0.075 0.204,1.074 0.211,2.211 0.018,3.482 -0.045,0.262 -0.092,0.52 -0.175,0.81 l -0.245,0.774 c -0.074,0.219 -0.175,0.431 -0.278,0.637 l -0.421,0.858 c -0.49,0.912 -0.803,2.162 -0.985,3.931 -0.125,1.189 -0.17,2.427 -0.219,3.737 l -0.055,1.381 c -0.022,0.494 -0.356,0.925 -0.828,1.068 -0.478,0.148 -0.995,-0.026 -1.289,-0.431 -1.151,-1.58 -1.907,-3.477 -2.247,-5.64 -0.168,-1.197 -0.189,-2.212 -0.061,-3.189 0.161,-1.291 0.489,-2.382 1.001,-3.325 l 0.282,-0.543 c 0.036,-0.076 0.077,-0.151 0.141,-0.267 0.019,-0.033 0.039,-0.067 0.063,-0.131 l 0.197,-0.482 c 0.017,-0.04 0.026,-0.083 0.041,-0.141 0.032,-0.12 0.068,-0.24 0.074,-0.247 0.183,-0.65 0.3,-1.328 0.35,-2.021 l 0.007,-0.161 c -0.3,-0.415 -0.663,-0.668 -1.089,-0.767 -0.655,-0.111 -1.343,0.083 -1.875,0.312 0,0.058 -0.004,0.115 -0.009,0.172 -0.092,1.071 -0.383,2.16 -0.846,3.18 -0.002,0.009 -0.085,0.193 -0.085,0.194 -0.113,0.233 -0.225,0.464 -0.381,0.717 l -0.444,0.678 c -0.132,0.191 -0.286,0.369 -0.443,0.54 l -0.632,0.71 c -0.722,0.749 -1.36,1.868 -2.014,3.519 -0.438,1.102 -0.814,2.274 -1.214,3.515 l -0.433,1.337 c -0.156,0.472 -0.594,0.795 -1.097,0.804 -0.531,-0.014 -0.942,-0.301 -1.115,-0.763 -0.68,-1.835 -0.895,-3.863 -0.637,-6.035 0.161,-1.199 0.417,-2.181 0.803,-3.09 0.505,-1.2 1.116,-2.16 1.862,-2.926 l 0.419,-0.449 c 0.059,-0.067 0.123,-0.134 0.209,-0.222 0.026,-0.025 0.055,-0.052 0.096,-0.11 l 0.321,-0.406 c 0.021,-0.029 0.039,-0.062 0.07,-0.116 0.068,-0.113 0.137,-0.223 0.145,-0.228 0.353,-0.577 0.649,-1.201 0.881,-1.851 0.078,-0.209 0.141,-0.435 0.206,-0.66 l 0.01,-0.037 c -0.476,-0.286 -1.054,-0.351 -1.552,-0.335 -0.037,0.157 -0.077,0.311 -0.128,0.464 -0.333,1.041 -0.868,2.039 -1.642,3.06 -0.166,0.21 -0.333,0.418 -0.547,0.634 l -0.586,0.565 c -0.168,0.155 -0.359,0.292 -0.548,0.425 l -0.778,0.554 c -0.867,0.567 -1.74,1.513 -2.746,2.98 -0.669,0.971 -1.296,2.028 -1.976,3.175 l -0.71,1.187 c -0.256,0.427 -0.755,0.645 -1.243,0.544 -0.487,-0.102 -0.858,-0.501 -0.923,-0.993 -0.254,-1.943 -0.013,-3.968 0.724,-6.029 0.424,-1.132 0.891,-2.032 1.47,-2.83 0.761,-1.06 1.572,-1.859 2.469,-2.442 l 0.509,-0.343 c 0.072,-0.053 0.149,-0.104 0.251,-0.167 0.033,-0.021 0.068,-0.041 0.118,-0.083 l 0.404,-0.331 c 0.032,-0.024 0.059,-0.056 0.094,-0.095 0.091,-0.095 0.185,-0.189 0.19,-0.189 0.434,-0.444 0.825,-0.929 1.168,-1.446 -0.02,-1.212 -0.761,-1.949 -2.205,-2.195 -0.082,0.132 -0.163,0.267 -0.261,0.402 -0.715,0.977 -1.408,1.717 -2.18,2.328 -1.014,0.812 -2.011,1.363 -3.039,1.685 l -0.581,0.192 c -0.085,0.032 -0.169,0.057 -0.283,0.092 -0.038,0.01 -0.077,0.021 -0.139,0.049 l -0.479,0.209 c -10e-4,0.001 -0.12,0.068 -0.121,0.068 -0.111,0.067 -0.223,0.129 -0.231,0.129 -0.586,0.339 -1.143,0.744 -1.661,1.206 -1.158,1.016 -2.281,2.287 -3.427,3.61 -0.326,0.371 -0.852,0.501 -1.314,0.321 -0.461,-0.182 -0.76,-0.637 -0.742,-1.134 0.074,-1.999 0.758,-4.023 1.98,-5.848 0.604,-0.913 1.391,-1.73 2.415,-2.504 0.213,-0.155 0.429,-0.309 0.692,-0.458 l 0.709,-0.381 c 0.209,-0.109 0.434,-0.191 0.655,-0.268 l 0.895,-0.32 c 0.987,-0.31 2.082,-0.987 3.449,-2.129 0.512,-0.425 1.015,-0.881 1.58,-1.409 -0.57,-0.604 -1.13,-1.266 -1.697,-2.004 -0.436,0.543 -0.888,1.022 -1.373,1.451 -0.814,0.726 -1.773,1.315 -2.941,1.798 -0.257,0.1 -0.512,0.199 -0.817,0.282 l -0.788,0.187 c -0.222,0.05 -0.453,0.072 -0.681,0.091 l -0.961,0.083 c -1.033,0.051 -2.265,0.427 -3.877,1.184 -1.039,0.486 -2.087,1.063 -3.288,1.726 l -1.237,0.679 c -0.438,0.237 -0.978,0.172 -1.346,-0.162 -0.368,-0.334 -0.485,-0.865 -0.291,-1.321 0.758,-1.802 1.992,-3.426 3.671,-4.835 0.942,-0.766 1.802,-1.306 2.702,-1.7 1.189,-0.526 2.292,-0.807 3.364,-0.857 l 0.612,-0.037 c 0.089,-0.009 0.179,-0.013 0.298,-0.018 0.037,0 0.077,0 0.146,-0.014 l 0.515,-0.078 c 0.043,-0.008 0.086,-0.022 0.135,-0.037 0.124,-0.036 0.265,-0.068 0.256,-0.065 0.606,-0.167 1.201,-0.393 1.838,-0.71 0.503,-1.23 -0.263,-2.199 -1.108,-2.845 -0.066,0.036 -0.137,0.07 -0.212,0.105 -1.106,0.479 -2.079,0.767 -3.062,0.906 -1.282,0.184 -2.418,0.156 -3.469,-0.085 l -0.601,-0.129 c -0.089,-0.015 -0.177,-0.036 -0.284,-0.063 -0.042,-0.01 -0.084,-0.021 -0.149,-0.028 l -0.519,-0.062 0.06,-0.496 -0.203,0.494 c -0.129,0 -0.262,-0.002 -0.256,-0.006 -0.7,10e-4 -1.406,0.07 -2.047,0.2 -1.512,0.292 -3.125,0.819 -4.786,1.382 -0.465,0.153 -0.987,-0.003 -1.293,-0.389 -0.306,-0.391 -0.332,-0.935 -0.067,-1.353 1.077,-1.689 2.691,-3.087 4.666,-4.042 0.961,-0.473 2.047,-0.786 3.151,-0.914 0.007,-0.002 0.082,-0.016 0.23,-0.03 0.25,-0.024 0.501,-0.041 0.799,-0.043 l 0.807,0.032 c 0.23,0.012 0.461,0.053 0.686,0.098 l 0.944,0.177 c 1.01,0.23 2.297,0.201 4.052,-0.09 l 0.069,-0.014 c 0.585,-0.96 0.151,-1.984 -0.412,-2.754 -1.064,0.199 -2.189,0.212 -3.271,0.043 -0.069,0 -0.194,-0.026 -0.225,-0.032 -0.253,-0.043 -0.505,-0.091 -0.785,-0.17 l -0.777,-0.244 c -0.219,-0.075 -0.429,-0.176 -0.636,-0.278 l -0.859,-0.421 c -0.91,-0.491 -2.159,-0.804 -3.93,-0.986 -1.186,-0.124 -2.416,-0.17 -3.72,-0.218 l -1.395,-0.057 c -0.5,-0.02 -0.93,-0.356 -1.072,-0.832 -0.144,-0.474 0.03,-0.991 0.432,-1.286 1.583,-1.15 3.478,-1.906 5.64,-2.245 1.214,-0.171 2.202,-0.19 3.19,-0.062 1.292,0.161 2.382,0.49 3.324,1.002 l 0.543,0.282 c 0.081,0.039 0.16,0.081 0.266,0.139 0.036,0.021 0.073,0.043 0.131,0.066 l 0.479,0.195 c 0.038,0.015 0.079,0.025 0.135,0.039 0.127,0.035 0.253,0.071 0.257,0.077 0.481,0.135 0.977,0.235 1.483,0.298 1.054,-0.594 1.352,-1.594 0.883,-2.974 -0.046,-0.003 -0.093,-0.007 -0.143,-0.013 -1.196,-0.16 -2.178,-0.415 -3.089,-0.802 -1.197,-0.503 -2.158,-1.115 -2.93,-1.864 l -0.444,-0.418 c -0.059,-0.051 -0.114,-0.103 -0.215,-0.201 -0.029,-0.03 -0.059,-0.06 -0.116,-0.103 l -0.407,-0.319 c -0.03,-0.021 -0.062,-0.039 -0.128,-0.078 -0.111,-0.067 -0.221,-0.138 -0.217,-0.139 -0.58,-0.354 -1.202,-0.65 -1.852,-0.882 -1.446,-0.53 -3.1,-0.911 -4.808,-1.285 -0.484,-0.106 -0.851,-0.507 -0.912,-0.999 -0.061,-0.493 0.197,-0.973 0.64,-1.194 1.777,-0.885 3.915,-1.254 6.084,-1.058 1.092,0.096 2.187,0.398 3.362,0.929 0.236,0.112 0.471,0.227 0.725,0.384 l 0.678,0.443 c 0.192,0.132 0.371,0.287 0.542,0.443 l 0.711,0.635 c 0.716,0.691 1.781,1.31 3.381,1.956 0.534,-0.262 0.872,-0.695 1.029,-1.315 -0.124,-0.036 -0.248,-0.074 -0.376,-0.12 -1.132,-0.424 -2.032,-0.892 -2.831,-1.47 -1.056,-0.757 -1.857,-1.568 -2.442,-2.469 l -0.342,-0.506 c -0.054,-0.074 -0.103,-0.151 -0.167,-0.253 -0.021,-0.032 -0.041,-0.066 -0.086,-0.117 l -0.325,-0.401 c -0.023,-0.028 -0.051,-0.053 -0.104,-0.102 -0.094,-0.09 -0.186,-0.183 -0.185,-0.187 -0.484,-0.472 -1.024,-0.9 -1.609,-1.274 -1.296,-0.842 -2.82,-1.578 -4.402,-2.323 -0.449,-0.212 -0.715,-0.684 -0.666,-1.177 0.05,-0.496 0.409,-0.905 0.89,-1.02 1.931,-0.47 4.09,-0.357 6.165,0.324 1.038,0.332 2.042,0.871 3.077,1.656 0.203,0.161 0.405,0.323 0.618,0.533 l 0.56,0.582 c 0.159,0.17 0.298,0.362 0.43,0.553 l 0.553,0.777 c 0.497,0.759 1.298,1.526 2.515,2.409 1.142,-0.057 1.845,-0.782 2.094,-2.158 -0.016,-0.012 -0.033,-0.023 -0.049,-0.035 -0.976,-0.714 -1.717,-1.408 -2.33,-2.182 -0.812,-1.018 -1.363,-2.014 -1.681,-3.035 l -0.194,-0.585 c -0.03,-0.08 -0.055,-0.162 -0.093,-0.283 -0.011,-0.039 -0.022,-0.077 -0.052,-0.14 l -0.205,-0.478 0.458,-0.197 -0.526,0.078 c -0.065,-0.11 -0.129,-0.222 -0.13,-0.233 -0.337,-0.584 -0.742,-1.141 -1.204,-1.66 -1.015,-1.156 -2.287,-2.28 -3.609,-3.425 -0.375,-0.325 -0.505,-0.852 -0.323,-1.317 0.179,-0.449 0.606,-0.74 1.133,-0.74 2.002,0.074 4.025,0.758 5.847,1.979 0.909,0.6 1.729,1.39 2.513,2.425 0.154,0.211 0.305,0.423 0.452,0.681 l 0.384,0.715 c 0.105,0.205 0.185,0.426 0.261,0.641 l 0.323,0.903 c 0.298,0.945 0.932,1.991 1.988,3.279 0.862,0.035 1.574,-0.465 2.092,-1.485 -0.003,-0.005 -0.008,-0.009 -0.012,-0.014 -0.76,-0.935 -1.3,-1.794 -1.7,-2.703 -0.527,-1.189 -0.807,-2.292 -0.857,-3.363 l -0.038,-0.608 c -0.009,-0.092 -0.013,-0.18 -0.018,-0.304 -0.001,-0.04 -0.001,-0.082 -0.013,-0.148 l -0.079,-0.513 -0.037,-0.137 c -0.036,-0.124 -0.067,-0.249 -0.065,-0.254 -0.179,-0.653 -0.428,-1.295 -0.744,-1.912 -0.687,-1.372 -1.632,-2.784 -2.622,-4.231 -0.278,-0.407 -0.27,-0.951 0.023,-1.354 0.289,-0.394 0.83,-0.565 1.284,-0.429 1.916,0.58 3.699,1.756 5.153,3.399 0.728,0.814 1.319,1.783 1.811,2.969 0.095,0.248 0.19,0.496 0.269,0.788 l 0.189,0.789 c 0.05,0.226 0.071,0.46 0.091,0.688 l 0.083,0.955 c 0.048,0.987 0.394,2.158 1.127,3.748 1.204,0.195 2.132,-0.872 2.581,-1.537 -0.411,-1 -0.664,-1.889 -0.789,-2.779 -0.187,-1.288 -0.159,-2.427 0.084,-3.473 l 0.128,-0.59 c 0.015,-0.093 0.037,-0.184 0.066,-0.305 0.009,-0.038 0.02,-0.078 0.025,-0.139 l 0.063,-0.519 c 0,-0.001 0.003,-0.138 0.003,-0.139 -0.002,-0.13 10e-4,-0.262 0.006,-0.265 0.003,-0.682 -0.064,-1.368 -0.201,-2.042 -0.292,-1.513 -0.818,-3.126 -1.379,-4.781 -0.159,-0.47 -0.003,-0.992 0.387,-1.298 0.381,-0.297 0.935,-0.328 1.353,-0.065 1.689,1.076 3.087,2.691 4.041,4.664 0.483,0.984 0.79,2.076 0.94,3.349 0.026,0.266 0.051,0.53 0.047,0.83 l -0.031,0.814 c -0.014,0.229 -0.056,0.459 -0.099,0.687 l -0.178,0.937 c -0.23,1.011 -0.202,2.299 0.091,4.053 l 0.011,0.058 c 1.098,0.344 2.208,-0.461 2.785,-0.983 -0.12,-1.041 -0.125,-1.925 -0.015,-2.767 0.161,-1.291 0.489,-2.38 1.001,-3.324 l 0.282,-0.542 c 0.036,-0.078 0.077,-0.151 0.143,-0.271 0.018,-0.032 0.037,-0.065 0.061,-0.129 l 0.197,-0.481 c 0.017,-0.04 0.026,-0.083 0.041,-0.141 0.032,-0.12 0.068,-0.24 0.074,-0.247 0.183,-0.649 0.3,-1.328 0.35,-2.02 0.119,-1.544 0.038,-3.235 -0.064,-4.978 -0.029,-0.494 0.259,-0.956 0.716,-1.148 0.143,-0.06 0.297,-0.09 0.454,-0.09 0.332,0 0.648,0.14 0.868,0.385 1.343,1.484 2.264,3.411 2.662,5.569 0.204,1.074 0.211,2.21 0.018,3.482 -0.046,0.26 -0.092,0.521 -0.175,0.809 l -0.245,0.775 c -0.074,0.219 -0.175,0.431 -0.278,0.638 l -0.421,0.856 c -0.469,0.875 -0.776,2.057 -0.967,3.795 0.252,0.234 0.54,0.385 0.839,0.446 0.813,0.108 1.693,-0.266 2.179,-0.52 0.164,-1.033 0.402,-1.897 0.743,-2.7 0.505,-1.198 1.116,-2.158 1.863,-2.928 l 0.423,-0.455 c 0.057,-0.064 0.116,-0.124 0.197,-0.205 0.029,-0.03 0.061,-0.059 0.103,-0.117 l 0.322,-0.411 0.393,0.308 -0.322,-0.424 c 0.065,-0.112 0.136,-0.222 0.143,-0.227 0.354,-0.579 0.65,-1.199 0.883,-1.849 0.531,-1.453 0.911,-3.104 1.284,-4.81 0.106,-0.483 0.508,-0.851 0.996,-0.911 0.022,-0.003 0.126,-0.01 0.148,-0.01 0.442,0 0.853,0.256 1.048,0.65 0.893,1.794 1.258,3.898 1.058,6.082 -0.093,1.088 -0.394,2.181 -0.923,3.355 -0.114,0.239 -0.229,0.477 -0.389,0.735 l -0.444,0.679 c -0.131,0.19 -0.287,0.368 -0.443,0.54 l -0.633,0.709 c -0.719,0.747 -1.358,1.865 -2.014,3.52 -0.042,0.107 -0.083,0.218 -0.123,0.33 0.613,0.177 1.294,0.108 1.778,0.011 0.398,-1.025 0.841,-1.859 1.384,-2.61 0.757,-1.055 1.568,-1.855 2.469,-2.441 l 0.51,-0.344 c 0.073,-0.052 0.147,-0.101 0.244,-0.162 0.034,-0.022 0.07,-0.043 0.121,-0.087 l 0.405,-0.329 c 0.028,-0.024 0.055,-0.054 0.102,-0.104 0.084,-0.089 0.174,-0.177 0.185,-0.185 0.471,-0.482 0.899,-1.021 1.273,-1.606 0.838,-1.291 1.577,-2.819 2.324,-4.403 0.193,-0.407 0.608,-0.671 1.06,-0.671 0.016,0 0.101,0.005 0.119,0.006 0.493,0.051 0.902,0.409 1.02,0.89 0.47,1.947 0.356,4.08 -0.326,6.165 -0.334,1.043 -0.872,2.044 -1.652,3.071 -0.162,0.205 -0.327,0.411 -0.536,0.623 l -0.588,0.565 c -0.167,0.154 -0.353,0.29 -0.538,0.417 l -0.787,0.559 c -0.868,0.569 -1.74,1.517 -2.747,2.983 l -0.069,0.107 c 0.55,1.041 1.939,1.214 2.729,1.224 0.566,-0.755 1.259,-1.44 2.118,-2.09 0.211,-0.153 0.422,-0.302 0.68,-0.45 l 0.716,-0.384 c 0.207,-0.106 0.428,-0.187 0.644,-0.261 l 0.897,-0.322 c 0.992,-0.314 2.089,-0.991 3.452,-2.13 0.9,-0.748 1.786,-1.591 2.742,-2.503 l 1.024,-0.971 c 0.357,-0.335 0.926,-0.405 1.341,-0.184 0.443,0.227 0.692,0.712 0.621,1.205 -0.279,1.936 -1.06,3.821 -2.327,5.607 -0.714,0.975 -1.407,1.716 -2.181,2.33 -1.012,0.809 -2.008,1.36 -3.037,1.682 l -0.584,0.193 c -0.083,0.03 -0.168,0.057 -0.282,0.09 -0.037,0.012 -0.077,0.022 -0.137,0.05 l -0.476,0.208 c -0.034,0.016 -0.065,0.036 -0.128,0.073 -0.117,0.069 -0.224,0.128 -0.227,0.125 -0.587,0.34 -1.145,0.745 -1.66,1.204 -0.324,0.285 -0.666,0.612 -1.06,1.012 0.567,0.612 1.116,1.27 1.641,1.963 0.392,-0.417 0.77,-0.776 1.167,-1.109 0.936,-0.761 1.795,-1.303 2.702,-1.701 1.19,-0.527 2.293,-0.807 3.366,-0.857 l 0.61,-0.037 c 0.09,-0.009 0.18,-0.013 0.299,-0.018 0.037,-0.001 0.077,-0.001 0.147,-0.014 l 0.516,-0.079 c 0.037,-0.005 0.074,-0.018 0.14,-0.037 0.118,-0.033 0.234,-0.065 0.252,-0.065 0.648,-0.178 1.289,-0.427 1.909,-0.743 1.384,-0.694 2.791,-1.636 4.229,-2.619 0.403,-0.28 0.966,-0.268 1.356,0.019 0.399,0.294 0.572,0.81 0.429,1.285 -0.579,1.915 -1.755,3.697 -3.398,5.153 -0.799,0.715 -1.76,1.31 -2.854,1.765 -0.004,10e-4 -0.134,0.052 -0.138,0.053 -0.24,0.094 -0.481,0.184 -0.766,0.261 l -0.785,0.19 c -0.23,0.05 -0.466,0.072 -0.699,0.091 l -0.946,0.081 c -1.037,0.053 -2.269,0.428 -3.878,1.185 -0.12,0.057 -0.24,0.118 -0.361,0.18 0.195,1.23 1.638,2.043 2.09,2.271 0.82,-0.336 1.7,-0.562 2.606,-0.671 l 0.223,-0.023 c 0.242,-0.023 0.486,-0.044 0.764,-0.04 l 0.807,0.031 c 0.231,0.013 0.463,0.053 0.686,0.099 l 0.944,0.179 c 1.01,0.229 2.297,0.2 4.052,-0.092 1.18,-0.196 2.384,-0.479 3.661,-0.779 l 1.342,-0.313 c 0.462,-0.11 0.992,0.097 1.257,0.518 0.263,0.422 0.231,0.966 -0.077,1.355 -1.218,1.527 -2.845,2.757 -4.842,3.66 -1.107,0.48 -2.08,0.767 -3.062,0.906 -1.278,0.184 -2.414,0.157 -3.468,-0.085 l -0.602,-0.128 c -0.089,-0.017 -0.177,-0.037 -0.281,-0.063 -0.043,-0.011 -0.086,-0.023 -0.152,-0.029 l -0.506,-0.061 c -0.029,-0.003 -0.059,-0.003 -0.097,-0.003 -0.119,-0.002 -0.321,-0.002 -0.323,-0.008 -0.64,-0.01 -1.35,0.064 -2.039,0.202 -0.153,0.03 -0.309,0.063 -0.485,0.105 -0.06,1.238 1.147,2.384 1.467,2.663 1.048,-0.122 1.932,-0.127 2.814,-0.012 1.293,0.161 2.383,0.49 3.326,1.002 l 0.542,0.282 c 0.081,0.039 0.16,0.081 0.265,0.139 0.036,0.021 0.073,0.043 0.132,0.066 l 0.477,0.195 c 0.041,0.015 0.082,0.025 0.138,0.039 0.125,0.034 0.25,0.071 0.257,0.077 0.651,0.184 1.329,0.301 2.02,0.35 1.536,0.12 3.23,0.037 4.952,-0.063 0.489,-0.057 0.972,0.24 1.173,0.715 C 0.486,-0.863 0.368,-0.332 0,0"
         style="fill:#eff0c0;fill-opacity:1;fill-rule:nonzero;stroke:none"
         transform="matrix(1.3333333,0,0,-1.3333333,123.85787,64.175593)"
         clip-path="url(#clipPath30)" />
    </g>
  </g>
</svg>
