<?xml version="1.0" encoding="UTF-8" standalone="no"?>
<!-- Created with Inkscape (http://www.inkscape.org/) -->

<svg
   width="205.78355mm"
   height="7.1545377mm"
   viewBox="0 0 205.78355 7.1545377"
   version="1.1"
   id="svg1"
   inkscape:version="1.3 (0e150ed, 2023-07-21)"
   sodipodi:docname="blaze.svg"
   inkscape:export-filename="blaze_text_wide.png"
   inkscape:export-xdpi="200"
   inkscape:export-ydpi="200"
   xml:space="preserve"
   xmlns:inkscape="http://www.inkscape.org/namespaces/inkscape"
   xmlns:sodipodi="http://sodipodi.sourceforge.net/DTD/sodipodi-0.dtd"
   xmlns:xlink="http://www.w3.org/1999/xlink"
   xmlns="http://www.w3.org/2000/svg"
   xmlns:svg="http://www.w3.org/2000/svg"><sodipodi:namedview
     id="namedview1"
     pagecolor="#ffffff"
     bordercolor="#666666"
     borderopacity="1.0"
     inkscape:showpageshadow="2"
     inkscape:pageopacity="0.0"
     inkscape:pagecheckerboard="0"
     inkscape:deskcolor="#d1d1d1"
     inkscape:document-units="mm"
     inkscape:zoom="0.58614468"
     inkscape:cx="290.03078"
     inkscape:cy="590.29795"
     inkscape:window-width="1416"
     inkscape:window-height="839"
     inkscape:window-x="0"
     inkscape:window-y="25"
     inkscape:window-maximized="0"
     inkscape:current-layer="layer1"
     showgrid="false" /><defs
     id="defs1"><linearGradient
       id="linearGradient34"
       inkscape:collect="always"
       inkscape:label="half barrel"><stop
         style="stop-color:#009200;stop-opacity:1;"
         offset="0"
         id="stop33" /><stop
         style="stop-color:#37ff6f;stop-opacity:1;"
         offset="1"
         id="stop34" /></linearGradient><linearGradient
       id="linearGradient31"
       inkscape:collect="always"><stop
         style="stop-color:#ff7a00;stop-opacity:1;"
         offset="0"
         id="stop31" /><stop
         style="stop-color:#ffc600;stop-opacity:1;"
         offset="1"
         id="stop32" /></linearGradient><linearGradient
       inkscape:collect="always"
       xlink:href="#linearGradient31"
       id="linearGradient51"
       gradientUnits="userSpaceOnUse"
       gradientTransform="translate(-63.500003)"
       x1="102.95284"
       y1="226.73495"
       x2="102.97865"
       y2="228.69383" /><linearGradient
       inkscape:collect="always"
       xlink:href="#linearGradient31"
       id="linearGradient52"
       gradientUnits="userSpaceOnUse"
       gradientTransform="translate(-24.341666)"
       x1="102.95284"
       y1="226.73495"
       x2="102.97865"
       y2="228.69383" /><linearGradient
       inkscape:collect="always"
       xlink:href="#linearGradient31"
       id="linearGradient53"
       gradientUnits="userSpaceOnUse"
       gradientTransform="translate(16.404167,-0.52916667)"
       x1="102.95284"
       y1="226.73495"
       x2="102.97865"
       y2="228.69383" /><linearGradient
       inkscape:collect="always"
       xlink:href="#linearGradient31"
       id="linearGradient54"
       gradientUnits="userSpaceOnUse"
       gradientTransform="translate(55.562501,-0.52916667)"
       x1="102.95284"
       y1="226.73495"
       x2="102.97865"
       y2="228.69383" /><linearGradient
       inkscape:collect="always"
       xlink:href="#linearGradient31"
       id="linearGradient55"
       gradientUnits="userSpaceOnUse"
       gradientTransform="translate(95.250005)"
       x1="102.95284"
       y1="226.73495"
       x2="102.97865"
       y2="228.69383" /><linearGradient
       inkscape:collect="always"
       xlink:href="#linearGradient34"
       id="linearGradient56"
       gradientUnits="userSpaceOnUse"
       gradientTransform="translate(-4.1266621,125.34372)"
       x1="45.83057"
       y1="133.46181"
       x2="201.65053"
       y2="133.46181" /></defs><g
     inkscape:label="Layer 1"
     inkscape:groupmode="layer"
     id="layer1"
     transform="translate(-2.7331355,-283.85021)"><g
       id="g51"
       inkscape:label="top edge clean"
       inkscape:export-filename="blaze_rim_long.svg"
       inkscape:export-xdpi="1200"
       inkscape:export-ydpi="1200"
       transform="translate(-13.452222,58.862744)"><g
         id="g56"
         inkscape:label="fire"><path
           style="fill:url(#linearGradient51);stroke:#000000;stroke-width:0.264583px;stroke-linecap:butt;stroke-linejoin:miter;stroke-opacity:1"
           d="m 22.528599,231.00686 c 0.01678,-1.40653 0.213544,-2.69307 1.114359,-3.51024 0.09445,0.91914 0.126546,1.72452 0.577555,2.01553 1.689356,0.87603 1.420405,-2.26268 0.823474,-3.67816 1.425283,1.35122 1.906526,2.48548 1.997771,4.28138 l 4.401722,0.61259 c 0.689437,-0.95421 0.854147,-2.19994 0.501462,-3.73311 0.438979,0.9675 1.047074,1.42765 1.170078,3.34308 l 3.677386,-0.22287 c -0.2861,-2.77128 0.1303,-3.43508 0.39003,-4.56888 0.1422,1.15788 0.011,2.69062 0.72433,3.17593 0.71334,0.48531 0.71285,-0.0739 0.66862,-1.39295 0.22072,1.04222 0.49285,2.03303 1.17008,2.61874 l 4.568867,0.44575 c 0.25267,-0.74824 0.1632,-1.94311 0.78006,-1.95013 -0.0793,0.22086 -0.0215,1.57264 0.78425,1.32389 0.84327,0.26872 0.97955,-1.07874 1.333027,-1.88107 -0.10291,0.9129 0.61416,2.09913 1.17008,3.23164 l 4.234567,-1.05833 c -0.355907,-1.64452 0.3196,-3.09002 0.74049,-4.17968 -0.17915,1.41562 0.39158,3.81205 1.59966,4.68114 H 51.89198 l -4.937547,0.17295 -6.874657,-0.28691 -7.68909,0.0724 -6.407571,0.26447 z"
           id="path44"
           sodipodi:nodetypes="cccccccccczcccccccccccccccc" /><path
           style="fill:url(#linearGradient52);stroke:#000000;stroke-width:0.264583px;stroke-linecap:butt;stroke-linejoin:miter;stroke-opacity:1"
           d="m 61.686936,231.00686 c 0.01678,-1.40653 0.213544,-2.69307 1.114359,-3.51024 0.09445,0.91914 0.126546,1.72452 0.577555,2.01553 1.689356,0.87603 1.420405,-2.26268 0.823474,-3.67816 1.425283,1.35122 1.906526,2.48548 1.997771,4.28138 l 4.401722,0.61259 c 0.689437,-0.95421 0.854147,-2.19994 0.501462,-3.73311 0.438979,0.9675 1.047074,1.42765 1.170078,3.34308 l 3.677386,-0.22287 c -0.2861,-2.77128 0.1303,-3.43508 0.39003,-4.56888 0.1422,1.15788 0.011,2.69062 0.72433,3.17593 0.71334,0.48531 0.71285,-0.0739 0.66862,-1.39295 0.22072,1.04222 0.49285,2.03303 1.17008,2.61874 l 4.568867,0.44575 c 0.25267,-0.74824 0.1632,-1.94311 0.78006,-1.95013 -0.0793,0.22086 -0.0215,1.57264 0.78425,1.32389 0.84327,0.26872 0.97955,-1.07874 1.333027,-1.88107 -0.10291,0.9129 0.61416,2.09913 1.17008,3.23164 l 4.234567,-1.05833 c -0.355907,-1.64452 0.3196,-3.09002 0.74049,-4.17968 -0.17915,1.41562 0.39158,3.81205 1.59966,4.68114 h -3.064487 l -4.937547,0.17295 -6.874657,-0.28691 -7.68909,0.0724 -6.407571,0.26447 z"
           id="path45"
           sodipodi:nodetypes="cccccccccczcccccccccccccccc" /><path
           style="fill:url(#linearGradient53);stroke:#000000;stroke-width:0.264583px;stroke-linecap:butt;stroke-linejoin:miter;stroke-opacity:1"
           d="m 102.43277,230.47769 c 0.0168,-1.40653 0.21355,-2.69307 1.11436,-3.51024 0.0944,0.91914 0.12655,1.72452 0.57756,2.01553 1.68935,0.87603 1.4204,-2.26268 0.82347,-3.67816 1.42529,1.35122 1.90653,2.48548 1.99778,4.28138 l 4.40172,0.61259 c 0.68944,-0.95421 0.85415,-2.19994 0.50146,-3.73311 0.43898,0.9675 1.04708,1.42765 1.17008,3.34308 l 3.67739,-0.22287 c -0.2861,-2.77128 0.1303,-3.43508 0.39003,-4.56888 0.1422,1.15788 0.011,2.69062 0.72433,3.17593 0.71334,0.48531 0.71285,-0.0739 0.66862,-1.39295 0.22072,1.04222 0.49285,2.03303 1.17008,2.61874 l 4.56887,0.44575 c 0.25267,-0.74824 0.1632,-1.94311 0.78006,-1.95013 -0.0793,0.22086 -0.0215,1.57264 0.78425,1.32389 0.84327,0.26872 0.97955,-1.07874 1.33303,-1.88107 -0.10291,0.9129 0.61416,2.09913 1.17008,3.23164 l 4.23457,-1.05833 c -0.35591,-1.64452 0.3196,-3.09002 0.74049,-4.17968 -0.17915,1.41562 0.39158,3.81205 1.59966,4.68114 h -3.06449 l -4.93755,0.17295 -6.87466,-0.28691 -7.68909,0.0724 -6.40758,0.26447 z"
           id="path46"
           sodipodi:nodetypes="cccccccccczcccccccccccccccc" /><path
           style="fill:url(#linearGradient54);stroke:#000000;stroke-width:0.264583px;stroke-linecap:butt;stroke-linejoin:miter;stroke-opacity:1"
           d="m 141.59111,230.47769 c 0.0168,-1.40653 0.21355,-2.69307 1.11436,-3.51024 0.0944,0.91914 0.12655,1.72452 0.57756,2.01553 1.68935,0.87603 1.4204,-2.26268 0.82347,-3.67816 1.42529,1.35122 1.90653,2.48548 1.99778,4.28138 l 4.40172,0.61259 c 0.68944,-0.95421 0.85415,-2.19994 0.50146,-3.73311 0.43898,0.9675 1.04708,1.42765 1.17008,3.34308 l 3.67739,-0.22287 c -0.2861,-2.77128 0.1303,-3.43508 0.39003,-4.56888 0.1422,1.15788 0.011,2.69062 0.72433,3.17593 0.71334,0.48531 0.71285,-0.0739 0.66862,-1.39295 0.22072,1.04222 0.49285,2.03303 1.17008,2.61874 l 4.56887,0.44575 c 0.25267,-0.74824 0.1632,-1.94311 0.78006,-1.95013 -0.0793,0.22086 -0.0215,1.57264 0.78425,1.32389 0.84327,0.26872 0.97955,-1.07874 1.33303,-1.88107 -0.10291,0.9129 0.61416,2.09913 1.17008,3.23164 l 4.23457,-1.05833 c -0.35591,-1.64452 0.3196,-3.09002 0.74049,-4.17968 -0.17915,1.41562 0.39158,3.81205 1.59966,4.68114 h -3.06449 l -4.93755,0.17295 -6.87466,-0.28691 -7.68909,0.0724 -6.40758,0.26447 z"
           id="path47"
           sodipodi:nodetypes="cccccccccczcccccccccccccccc" /><path
           style="fill:url(#linearGradient55);stroke:#000000;stroke-width:0.264583px;stroke-linecap:butt;stroke-linejoin:miter;stroke-opacity:1"
           d="m 181.27865,231.00686 c 0.0168,-1.40653 0.21355,-2.69307 1.11436,-3.51024 0.0944,0.91914 0.12655,1.72452 0.57756,2.01553 1.68935,0.87603 1.4204,-2.26268 0.82347,-3.67816 1.42529,1.35122 1.90653,2.48548 1.99778,4.28138 l 4.40172,0.61259 c 0.68944,-0.95421 0.85415,-2.19994 0.50146,-3.73311 0.43898,0.9675 1.04708,1.42765 1.17008,3.34308 l 3.67739,-0.22287 c -0.2861,-2.77128 0.1303,-3.43508 0.39003,-4.56888 0.1422,1.15788 0.011,2.69062 0.72433,3.17593 0.71334,0.48531 0.71285,-0.0739 0.66862,-1.39295 0.22072,1.04222 0.49285,2.03303 1.17008,2.61874 l 4.56887,0.44575 c 0.25267,-0.74824 0.1632,-1.94311 0.78006,-1.95013 -0.0793,0.22086 -0.0215,1.57264 0.78425,1.32389 0.84327,0.26872 0.97955,-1.07874 1.33303,-1.88107 -0.10291,0.9129 0.61416,2.09913 1.17008,3.23164 l 4.23457,-1.05833 c -0.35591,-1.64452 0.3196,-3.09002 0.74049,-4.17968 -0.17915,1.41562 0.39158,3.81205 1.59966,4.68114 h -3.06449 l -4.93755,0.17295 -6.87466,-0.28691 -7.68909,0.0724 -6.40758,0.26447 z"
           id="path48"
           sodipodi:nodetypes="cccccccccczcccccccccccccccc" /></g><path
         id="path57"
         style="display:inline;opacity:1;fill:url(#linearGradient56);fill-rule:evenodd;stroke:none;stroke-width:0.1;stroke-linecap:butt;stroke-linejoin:round;stroke-dasharray:none;stroke-opacity:1"
         d="m 221.48152,231.96335 c 0.26253,-0.49606 0.38912,-1.01486 1.6e-4,-1.6196 -12.14235,-1.48114 -193.235282,-1.13091 -204.800011,0 -0.392781,0.51329 -0.2578,1.02657 -1.24e-4,1.54 11.69358,-0.82952 192.814975,-1.34742 204.799975,0.0796 z"
         sodipodi:nodetypes="ccccc"
         inkscape:label="fill" /><path
         style="display:inline;opacity:1;fill:none;fill-rule:evenodd;stroke:#000000;stroke-width:0.5;stroke-linecap:butt;stroke-linejoin:round;stroke-dasharray:none;stroke-opacity:1"
         d="m 16.681669,231.88358 c -0.2578,-0.51329 -0.392781,-1.02657 0,-1.53986 11.564729,-1.13091 192.657661,-1.48114 204.800011,0 0.38896,0.60474 0.26237,1.12354 0,1.61972"
         id="path49"
         sodipodi:nodetypes="cccc"
         inkscape:label="outline" /><path
         style="display:inline;fill:none;stroke:#000000;stroke-width:0.264583px;stroke-linecap:round;stroke-linejoin:miter;stroke-dasharray:2.64583, 3.96874, 1.85208, 5.55624, 1.32291, 2.11666, 4.23333, 2.64583, 1.32291, 3.96874, 2.11666;stroke-dashoffset:0;stroke-opacity:1"
         d="m 16.566193,231.9237 c 11.693704,-0.82966 193.040837,-1.34087 205.025687,0.086"
         id="path51"
         sodipodi:nodetypes="cc" /></g></g></svg>
