<?xml version="1.0" encoding="UTF-8" standalone="no"?>
<!-- Created with Inkscape (http://www.inkscape.org/) -->

<svg
   version="1.1"
   id="svg1"
   width="429.63657"
   height="425.59134"
   viewBox="0 0 429.63658 425.59134"
   sodipodi:docname="justin_barrel.svg"
   inkscape:version="1.3 (0e150ed, 2023-07-21)"
   xml:space="preserve"
   xmlns:inkscape="http://www.inkscape.org/namespaces/inkscape"
   xmlns:sodipodi="http://sodipodi.sourceforge.net/DTD/sodipodi-0.dtd"
   xmlns="http://www.w3.org/2000/svg"
   xmlns:svg="http://www.w3.org/2000/svg"><defs
     id="defs1" /><sodipodi:namedview
     id="namedview1"
     pagecolor="#ffffff"
     bordercolor="#666666"
     borderopacity="1.0"
     inkscape:showpageshadow="2"
     inkscape:pageopacity="0.0"
     inkscape:pagecheckerboard="0"
     inkscape:deskcolor="#d1d1d1"
     inkscape:zoom="1.0083886"
     inkscape:cx="1531.1557"
     inkscape:cy="204.78216"
     inkscape:window-width="1344"
     inkscape:window-height="676"
     inkscape:window-x="138"
     inkscape:window-y="187"
     inkscape:window-maximized="0"
     inkscape:current-layer="layer-MC0"
     showgrid="false" /><g
     id="layer-MC0"
     inkscape:groupmode="layer"
     inkscape:label="Layer 1"
     transform="translate(-1384.3123,-12.197949)"><path
       id="path33"
       style="opacity:1;fill:#ffffff;fill-opacity:1"
       d="m 1599.2441,12.197981 c -7.6954,-0.0052 -9.2484,0.61394 -12.3378,4.916015 -3.257,4.53533 -4.508,7.862169 -6.4239,17.080079 -2.1884,10.529286 -4.4504,15.267398 -9.664,20.240234 -7.3109,6.973442 -17.0975,9.880599 -26.1133,7.757812 -7.2988,-1.718526 -11.3358,-4.670066 -18.4785,-13.507812 -6.6256,-8.197971 -15.5687,-14.490234 -20.5938,-14.490234 -2.8135,0 -12.4824,4.810991 -13.8437,6.888671 -1.4182,2.164428 -2.3205,10.268207 -1.6993,15.267579 0.2854,2.296535 1.3628,7.177086 2.3946,10.84375 4.4388,15.773676 1.0888,26.859334 -10.5977,35.066405 -9.2275,6.48023 -16.3206,6.87072 -29.1054,1.60156 -11.3016,-4.657814 -21.7254,-6.316529 -26.3809,-4.195309 -2.1988,1.001839 -8.2632,9.852859 -8.7324,12.744139 -0.4558,2.80917 1.2052,9.02336 3.4258,12.8125 0.9766,1.66671 4.5609,6.11965 7.9648,9.89453 6.2433,6.92394 9.0674,11.60571 10.3457,17.15039 2.3592,10.23369 -1.5777,21.10147 -10.1309,27.96875 -4.6388,3.72448 -8.8658,5.07725 -18.5527,5.93946 -11.1689,0.99412 -15.6472,2.36563 -21.1094,6.46093 -2.9958,2.24608 -3.8479,4.26361 -4.7929,11.36133 -0.7407,5.56326 -0.7065,6.32385 0.3574,8.125 2.7196,4.60394 9.877,9.3002 18.9355,12.42578 3.85,1.32842 8.312,3.17544 9.916,4.10547 14.909,8.64438 19.2074,27.79013 9.3477,41.63672 -0.7953,1.11693 -4.8151,4.25429 -8.9316,6.97266 -7.4831,4.94161 -13.1282,10.40839 -17.3106,16.76172 -2.1504,3.26665 -2.0976,5.36425 0.293,11.67773 2.1497,5.67731 4.042,7.57033 9.1387,9.14453 5.2623,1.62539 11.02,1.71521 20.4355,0.31641 8.3353,-1.23832 13.1748,-0.66956 19.5098,2.29492 5.899,2.76047 10.2293,7.0361 13.3496,13.18359 3.2834,6.51413 4.9977,13.26384 2.5859,20.55078 l -4.8047,8.82422 c -5.3388,9.80716 -6.485,12.74121 -7.1582,18.31446 -0.351,2.90521 -0.1969,4.35889 0.6504,6.14453 1.2828,2.70332 8.9633,9.51966 11.4219,10.13672 5.1376,1.28946 13.8329,-1.84911 22.1172,-7.98438 9.3023,-6.88926 13.4413,-8.5165 21.6484,-8.5039 8.4009,0.17241 15.9256,3.17394 21.3242,9.20703 5.3986,6.03308 6.4885,11.73053 6.1914,21.45117 -0.3427,11.20782 0.4845,15.81761 3.9004,21.72851 1.8734,3.24188 3.7742,4.32807 10.709,6.11133 5.4355,1.39774 6.1943,1.45519 8.1094,0.61328 4.8949,-2.15216 10.4119,-8.7003 14.5937,-17.32226 1.7773,-3.66448 4.1435,-7.87556 5.2579,-9.35742 10.3577,-13.77385 29.8767,-15.76222 42.4511,-4.32422 1.0143,0.92261 3.6523,5.28642 5.8614,9.69726 4.0155,8.01816 8.7698,14.27459 14.58,19.1836 2.9874,2.52399 5.0777,2.72159 11.6309,1.09961 5.8929,-1.45852 7.9982,-3.11134 10.168,-7.98438 2.2404,-5.03146 3.0122,-10.73689 2.7441,-20.25195 -0.2372,-8.42343 0.9059,-13.16258 4.6035,-19.09961 4.9172,-4.73765 8.1286,-6.3498 11.3809,-8.03516 4.4695,-2.24174 4.8646,-2.3164 12.2851,-2.3164 9.1695,0 11.4765,0.86574 21.1153,7.91406 8.9907,6.57445 18.1711,9.7221 22.9472,7.86914 3.1805,-1.23393 10.4492,-7.96191 11.2617,-10.42383 1.6366,-4.95906 -0.38,-11.95443 -6.914,-23.9707 l -4.7442,-8.72071 c -2.0936,-7.68381 -0.9953,-14.24025 2.5059,-20.47656 4.2521,-8.60064 10.9595,-13.61723 20.9199,-15.64844 4.2656,-0.86987 5.579,-0.86281 11.8731,0.0723 3.8918,0.57818 9.1354,1.05273 11.6523,1.05273 5.8732,0 12.5319,-2.01706 14.8086,-4.48437 1.9002,-2.05931 5.2402,-10.59843 5.2402,-13.39648 0,-4.28926 -10.4816,-15.92271 -19,-21.0879 -7.2119,-4.37299 -9.151,-6.34166 -11.705,-11.88281 -4.6986,-10.19364 -2.8562,-22.0674 4.7675,-30.72851 3.6941,-4.19672 8.2116,-6.85604 16.7657,-9.86914 9.8204,-3.45914 15.322,-6.99104 19.0703,-12.24219 1.5311,-2.14502 1.5459,-2.32211 0.7578,-8.41602 -0.9215,-7.12616 -1.7816,-9.16942 -4.8223,-11.44922 -5.5126,-4.13303 -10.0368,-5.49954 -21.5,-6.49414 -4.0333,-0.34995 -8.8326,-1.12644 -10.666,-1.72461 -12.0323,-3.92585 -19.7593,-16.83549 -17.8808,-29.875 0.9895,-6.86834 3.4712,-11.55014 9.8281,-18.53515 2.9623,-3.25497 6.3515,-7.31959 7.5332,-9.03321 2.7252,-3.95188 5.1346,-11.44741 4.6465,-14.45507 -0.4833,-2.97824 -6.5109,-11.83331 -8.75,-12.853519 -4.6991,-2.141056 -15.1765,-0.448452 -26.4278,4.267579 -7.2432,3.036 -7.9263,3.19291 -13.9492,3.22461 -5.9192,0.0312 -6.6335,-0.11529 -10.9043,-2.25781 -5.6825,-2.85077 -11.6253,-8.596032 -14.0781,-13.609379 -1.0281,-2.101371 -2.1612,-5.973455 -2.5606,-8.746094 -0.6808,-4.725244 -0.5948,-5.469792 1.7168,-14.830078 1.3387,-5.420547 2.551,-11.054819 2.6934,-12.521484 0.3947,-4.063896 -0.6946,-12.301469 -1.8613,-14.082032 -0.5714,-0.872038 -3.4889,-2.818086 -6.4844,-4.324218 -4.5621,-2.293774 -5.9122,-2.686997 -8.3164,-2.416016 -4.2153,0.475123 -9.8537,4.126273 -15.5293,10.054687 -14.3892,15.030173 -14.2174,14.875241 -18.3438,16.494141 -3.2378,1.270259 -5.2697,1.572328 -10.666,1.585938 -6.1401,0.01549 -7.0237,-0.152474 -11.1914,-2.125 -5.926,-2.804758 -11.8927,-8.494777 -14.4765,-13.804688 -1.1355,-2.333414 -2.7035,-7.582107 -3.6973,-12.382812 -1.7876,-8.635108 -3.5809,-13.373664 -6.5449,-17.279297 -3.1062,-4.093018 -4.6787,-4.711897 -11.9571,-4.716797 z m -0.1132,94.011719 A 118.783,118.783 0 0 1 1717.9141,224.9929 118.783,118.783 0 0 1 1599.1309,343.77611 118.783,118.783 0 0 1 1480.3477,224.9929 118.783,118.783 0 0 1 1599.1309,106.2097 Z" /></g></svg>
