<?xml version="1.0" encoding="UTF-8" standalone="no"?>
<!-- Created with Inkscape (http://www.inkscape.org/) -->

<svg
   width="2.1413062in"
   height="0.81162059in"
   viewBox="0 0 54.389177 20.615163"
   version="1.1"
   id="svg1"
   inkscape:version="1.3 (0e150ed, 2023-07-21)"
   sodipodi:docname="dethtrap.svg"
   xml:space="preserve"
   inkscape:export-filename="poster_fun.pdf"
   inkscape:export-xdpi="150"
   inkscape:export-ydpi="150"
   xmlns:inkscape="http://www.inkscape.org/namespaces/inkscape"
   xmlns:sodipodi="http://sodipodi.sourceforge.net/DTD/sodipodi-0.dtd"
   xmlns="http://www.w3.org/2000/svg"
   xmlns:svg="http://www.w3.org/2000/svg"><sodipodi:namedview
     id="namedview1"
     pagecolor="#ffffff"
     bordercolor="#666666"
     borderopacity="1.0"
     inkscape:showpageshadow="2"
     inkscape:pageopacity="0.0"
     inkscape:pagecheckerboard="0"
     inkscape:deskcolor="#d1d1d1"
     inkscape:document-units="mm"
     inkscape:zoom="2.0968455"
     inkscape:cx="107.5425"
     inkscape:cy="-6.4382426"
     inkscape:window-width="1328"
     inkscape:window-height="792"
     inkscape:window-x="40"
     inkscape:window-y="25"
     inkscape:window-maximized="0"
     inkscape:current-layer="g214"
     showguides="false"
     showgrid="false"><sodipodi:guide
       position="-109.38374,817.38442"
       orientation="-1,0"
       id="guide1"
       inkscape:locked="false"
       inkscape:label=""
       inkscape:color="rgb(0,134,229)" /><sodipodi:guide
       position="150.96627,822.53379"
       orientation="-1,0"
       id="guide2"
       inkscape:label=""
       inkscape:locked="false"
       inkscape:color="rgb(0,134,229)" /><sodipodi:guide
       position="-128.90874,780.88531"
       orientation="0,1"
       id="guide3"
       inkscape:locked="false"
       inkscape:label=""
       inkscape:color="rgb(0,134,229)" /><sodipodi:guide
       position="-144.30874,368.1353"
       orientation="0,1"
       id="guide4"
       inkscape:locked="false"
       inkscape:label=""
       inkscape:color="rgb(0,134,229)" /><sodipodi:guide
       position="-109.38374,643.30212"
       orientation="0,-1"
       id="guide90"
       inkscape:locked="false" /><sodipodi:guide
       position="-83.983738,816.70431"
       orientation="-1,0"
       id="guide91"
       inkscape:locked="false"
       inkscape:label=""
       inkscape:color="rgb(0,134,229)" /></sodipodi:namedview><defs
     id="defs1" /><g
     inkscape:label="Layer 1"
     inkscape:groupmode="layer"
     id="layer1"
     style="display:inline"
     transform="translate(-118.90874,-364.11011)"><ellipse
       style="display:inline;opacity:1;fill:#faebbc;fill-rule:evenodd;stroke:none;stroke-width:1.5;stroke-linecap:round;stroke-linejoin:round"
       id="path1"
       ry="10.307582"
       rx="7.3159552"
       cy="374.41769"
       cx="126.22469"
       transform="translate(-1.3125e-6)" /><g
       id="g214"
       transform="matrix(0.6034859,0,0,0.6034859,65.128906,82.068363)"
       inkscape:label="dethtrap"
       style="stroke-width:1.65704"><path
         style="display:none;fill:#faebbc;fill-opacity:1;stroke-width:1.65704"
         d="m 94.383416,480.86918 c -0.0171,0.17181 -0.0239,0.98401 -0.015,1.80488 0.0102,0.9436 5e-4,1.78765 -0.0265,2.29504 -0.0259,0.48752 -0.0303,0.82814 -0.0112,0.86773 0.0173,0.0359 0.0314,0.3307 0.0314,0.65524 0,0.79429 0.0486,2.07668 0.0868,2.2908 0.0325,0.18236 0.0608,0.93415 0.0873,2.32551 0.0186,0.97403 0.0445,1.3447 0.0962,1.37696 0.0264,0.0164 0.0246,0.066 -0.006,0.16818 -0.0339,0.11311 -0.0352,0.27157 -0.006,0.72294 0.0206,0.31794 0.0433,0.85812 0.0505,1.20039 0.0116,0.55837 0.0196,0.6272 0.0777,0.66981 0.058,0.0426 0.069,0.0374 0.10654,-0.0496 0.023,-0.0534 0.0425,-0.12169 0.0434,-0.15173 8.6e-4,-0.03 0.0416,-0.18623 0.0905,-0.34709 0.0489,-0.16086 0.10228,-0.36275 0.11859,-0.44866 0.0163,-0.0859 0.0793,-0.328 0.13989,-0.53799 0.0606,-0.20999 0.11687,-0.44428 0.12498,-0.52064 0.0233,-0.21943 0.0836,-0.49406 0.18655,-0.85037 0.0524,-0.18136 0.1124,-0.41564 0.13328,-0.52064 0.0209,-0.105 0.069,-0.34709 0.10696,-0.53799 0.0379,-0.1909 0.0783,-0.40567 0.0898,-0.47725 0.023,-0.14385 0.1187,-0.18335 0.12622,-0.0521 0.0253,0.44161 0.13147,1.15538 0.22069,1.48382 0.0304,0.11196 0.0602,0.15619 0.10526,0.15619 0.0484,0 0.0865,-0.0719 0.16557,-0.31238 0.10905,-0.33158 0.28794,-0.78929 0.42054,-1.07599 0.0441,-0.0954 0.1007,-0.22821 0.12567,-0.29502 0.025,-0.0668 0.0599,-0.14051 0.0777,-0.16377 0.0177,-0.0233 0.052,-0.10916 0.0761,-0.1909 0.0682,-0.23086 0.13355,-0.1908 0.18232,0.1117 0.0844,0.52377 0.11056,0.75482 0.13146,1.16276 0.0222,0.4341 0.10185,1.06878 0.15116,1.20514 0.0157,0.0435 0.0471,0.21967 0.0696,0.39148 0.0226,0.17181 0.0572,0.41391 0.077,0.53799 0.0198,0.12409 0.0572,0.37716 0.0832,0.56239 0.026,0.18523 0.0554,0.36485 0.0653,0.39915 0.01,0.0343 0.027,0.17172 0.0379,0.30535 0.0109,0.13363 0.0423,0.33667 0.0696,0.45122 0.0274,0.11454 0.0996,0.45035 0.16063,0.74624 0.10471,0.50799 0.18992,0.72889 0.28115,0.72889 0.0234,0 0.0279,-0.0562 0.0125,-0.15835 -0.0133,-0.0889 -0.009,-0.17644 0.01,-0.19958 0.0386,-0.0476 0.20379,-0.5179 0.47783,-1.36017 0.10559,-0.32453 0.22163,-0.66815 0.25788,-0.7636 0.16146,-0.42514 0.24324,-0.73569 0.32663,-1.24031 0.0307,-0.18584 0.0722,-0.38089 0.0922,-0.43347 l 0.0363,-0.0956 0.0611,0.0809 c 0.0336,0.0445 0.1018,0.20834 0.1516,0.36404 0.0498,0.15571 0.145564,0.45492 0.212794,0.66491 0.0672,0.20999 0.15416,0.46748 0.19319,0.57221 0.039,0.10472 0.071,0.23358 0.071,0.28635 0,0.0999 0.10575,0.23477 0.18408,0.23477 0.0475,0 0.0958,0.3988 0.16398,1.35366 0.043,0.60197 0.1762,1.08604 0.28102,1.02126 0.0171,-0.0106 0.0278,-0.0635 0.0237,-0.11765 -0.004,-0.0541 0.0132,-0.12337 0.0386,-0.1539 0.0254,-0.0305 0.0325,-0.0558 0.0158,-0.0561 -0.0166,-2.9e-4 -0.0138,-0.012 0.006,-0.026 0.0534,-0.0373 0.14496,-0.24866 0.17272,-0.39862 0.0132,-0.0716 0.038,-0.13016 0.0549,-0.13016 0.017,0 0.0308,-0.0234 0.0308,-0.0521 0,-0.0286 0.0141,-0.0521 0.0313,-0.0521 0.0172,0 0.0485,-0.0492 0.0694,-0.10931 0.0467,-0.13397 0.0479,-0.16775 0.003,-0.0989 -0.0269,0.0417 -0.0337,0.0424 -0.0342,0.004 -3e-4,-0.0265 0.0223,-0.0656 0.0502,-0.0868 0.0543,-0.0412 0.13897,-0.48762 0.10344,-0.54512 -0.0117,-0.019 -0.006,-0.0533 0.0117,-0.0763 0.0181,-0.023 0.0427,-0.1512 0.0546,-0.28483 0.0119,-0.13363 0.0589,-0.39134 0.10453,-0.5727 0.0456,-0.18135 0.11001,-0.48592 0.1431,-0.67682 0.0331,-0.19091 0.0801,-0.433 0.10441,-0.538 0.0243,-0.10499 0.0859,-0.40176 0.13678,-0.65947 0.0509,-0.25772 0.132,-0.61696 0.18022,-0.79831 0.17669,-0.66445 0.23419,-0.97469 0.30631,-1.65269 0.006,-0.0595 0.0234,-0.16099 0.0379,-0.2256 0.0317,-0.14119 0.0353,-0.17374 0.0775,-0.71733 0.0182,-0.23446 0.0424,-0.43554 0.0537,-0.44683 0.10013,-0.10013 0.23503,0.28857 0.36929,1.06403 0.0215,0.12408 0.053,0.3037 0.0701,0.39915 0.0322,0.18048 0.0813,0.47355 0.21186,1.26689 0.0424,0.25771 0.0925,0.49886 0.11126,0.53589 0.0188,0.037 0.0487,0.1776 0.0665,0.31238 0.0178,0.13479 0.0367,0.2763 0.0419,0.31448 0.005,0.0382 0.0277,0.15533 0.05,0.26032 0.0223,0.105 0.0864,0.433 0.14236,0.72889 0.056,0.2959 0.12591,0.61609 0.15539,0.71154 0.0295,0.0955 0.0538,0.22103 0.054,0.27906 2.1e-4,0.058 0.0216,0.19079 0.0475,0.29503 0.0259,0.10423 0.0676,0.30335 0.0926,0.44247 0.0727,0.40428 0.17811,0.47328 0.22164,0.14514 0.0129,-0.0969 0.0454,-0.2261 0.0723,-0.28713 0.0441,-0.1 0.14232,-0.4609 0.31347,-1.15224 0.0793,-0.32013 0.14406,-0.67795 0.20747,-1.1454 0.12978,-0.95677 0.16361,-1.18816 0.19031,-1.3016 0.0157,-0.0668 0.0564,-0.27377 0.0903,-0.45989 0.0488,-0.26759 0.0738,-0.33842 0.11943,-0.33842 0.0443,0 0.0766,0.0788 0.13917,0.33842 0.0448,0.18612 0.0853,0.42432 0.0901,0.52931 0.009,0.19147 0.13613,1.02239 0.164,1.06867 0.0182,0.0303 0.1132,0.70411 0.14362,1.01921 0.0123,0.12702 0.0458,0.25978 0.0745,0.29503 0.0287,0.0353 0.0407,0.0419 0.0266,0.0148 -0.0188,-0.0361 -0.0101,-0.0433 0.0321,-0.0271 0.0653,0.0251 0.0647,0.03 0.058,-0.43282 -0.004,-0.25692 0.14461,-1.34157 0.19461,-1.42331 0.0262,-0.0429 0.11623,-0.73728 0.11688,-0.90187 4.8e-4,-0.12242 0.0131,-0.15997 0.0517,-0.1543 0.0281,0.004 0.0601,0.0165 0.0711,0.0276 0.011,0.011 0.034,0.22885 0.051,0.48404 0.034,0.51083 0.0966,0.96717 0.20879,1.52261 0.0405,0.20045 0.0879,0.46434 0.10542,0.58644 0.0371,0.25876 0.0628,0.35071 0.0981,0.35071 0.014,0 0.0194,0.0513 0.0121,0.11391 -0.007,0.0627 0.0108,0.20713 0.0402,0.32106 0.0294,0.11393 0.0616,0.29306 0.0716,0.39805 0.01,0.105 0.0497,0.30019 0.0883,0.43376 0.0386,0.13356 0.0701,0.28782 0.0701,0.34279 0,0.0899 0.0905,0.5375 0.17278,0.85478 0.0173,0.0668 0.0642,0.26206 0.10409,0.43387 0.12291,0.52902 0.1392,0.58414 0.23017,0.7787 0.13905,0.29741 0.18058,0.44992 0.20678,0.75937 0.0155,0.18304 0.0436,0.30769 0.0768,0.34089 0.0977,0.0977 0.13496,-0.018 0.18045,-0.56002 l 6.3e-4,-5e-4 c 0.024,-0.28635 0.0491,-0.55968 0.0557,-0.60741 0.0176,-0.12658 0.0433,-0.3926 0.10403,-1.07598 0.0397,-0.44676 0.0571,-1.18117 0.0657,-2.77673 0.007,-1.24863 0.0283,-2.33873 0.0507,-2.56848 0.0605,-0.61916 0.0721,-0.90153 0.089,-2.16932 0.009,-0.64906 0.0239,-1.21916 0.034,-1.26688 0.0468,-0.22324 0.0591,-1.55532 0.0168,-1.82224 -0.0302,-0.19032 -0.0462,-0.79754 -0.0511,-1.93026 -0.004,-0.90892 -0.0184,-1.67096 -0.0323,-1.69341 -0.0139,-0.0225 -0.0305,-0.10661 -0.0369,-0.187 -0.006,-0.0804 -0.029,-0.3336 -0.0502,-0.56268 -0.0855,-0.92651 -0.10284,-1.24515 -0.104,-1.9145 -6.7e-4,-0.38482 -0.0159,-0.7384 -0.0339,-0.78573 -0.018,-0.0473 -0.0489,-0.28695 -0.0687,-0.5325 -0.0198,-0.24554 -0.069,-0.57139 -0.10932,-0.72411 -0.0403,-0.15272 -0.0941,-0.37139 -0.11951,-0.48593 -0.0533,-0.24016 -0.21272,-0.6823 -0.34462,-0.95573 -0.0501,-0.10378 -0.12051,-0.28263 -0.15655,-0.39744 -0.13267,-0.42269 -0.27519,-0.78181 -0.34602,-0.87186 -0.04,-0.0509 -0.0728,-0.10769 -0.0728,-0.12627 0,-0.0186 -0.0781,-0.15055 -0.17354,-0.29326 -0.0955,-0.14271 -0.17393,-0.26987 -0.1744,-0.28259 -4.8e-4,-0.0127 -0.0932,-0.12088 -0.20602,-0.24037 -0.11283,-0.11948 -0.21589,-0.25224 -0.22902,-0.29502 -0.0207,-0.0676 -0.30528,-0.49826 -0.36096,-0.54637 -0.011,-0.01 -0.10116,-0.11887 -0.20024,-0.24296 -0.21308,-0.26685 -0.24854,-0.30659 -0.35929,-0.40259 -0.0462,-0.0401 -0.18113,-0.17674 -0.29979,-0.30371 -0.11865,-0.12696 -0.22398,-0.23085 -0.23405,-0.23085 -0.0101,0 -0.11604,-0.0972 -0.23548,-0.21597 -0.11944,-0.11878 -0.25908,-0.24764 -0.31031,-0.28635 -0.0512,-0.0387 -0.23865,-0.1897 -0.41651,-0.33554 -0.32496,-0.26647 -0.53205,-0.4037 -0.75723,-0.5018 -0.0668,-0.0291 -0.19958,-0.0888 -0.29503,-0.1326 -0.17935,-0.0823 -0.22303,-0.0975 -0.70049,-0.2431 -0.15619,-0.0476 -0.34362,-0.11237 -0.41651,-0.14387 -0.0729,-0.0315 -0.23405,-0.0713 -0.35814,-0.0884 -0.41068,-0.0566 -1.1548,-0.0927 -1.26419,-0.0613 -0.0585,0.0168 -0.16149,0.0305 -0.22886,0.0305 -0.0674,0 -0.241554,0.0458 -0.387064,0.10187 -0.1455,0.056 -0.32476,0.11305 -0.39836,0.12672 -0.20108,0.0374 -0.7943,0.33876 -0.91477,0.46479 -0.01,0.01 -0.0525,0.0377 -0.0955,0.0616 -0.0429,0.0239 -0.11324,0.0629 -0.15619,0.0868 -0.043,0.0239 -0.10152,0.0607 -0.13016,0.0819 -0.0286,0.0212 -0.14029,0.0862 -0.24813,0.14441 -0.2616,0.14129 -0.36045,0.20528 -0.57361,0.37132 -0.0988,0.077 -0.27407,0.20951 -0.3895,0.29455 -0.11542,0.085 -0.21762,0.17485 -0.22711,0.19958 -0.009,0.0247 -0.034,0.045 -0.0546,0.045 -0.0205,0 -0.12644,0.0865 -0.23538,0.19227 -0.10893,0.10575 -0.24251,0.23461 -0.29684,0.28635 -0.0543,0.0518 -0.12111,0.13704 -0.1484,0.18953 -0.0273,0.0525 -0.0723,0.0955 -0.0999,0.0955 -0.0504,0 -0.15619,0.1675 -0.15619,0.24719 0,0.0233 -0.0253,0.0703 -0.0561,0.1044 -0.056,0.0619 -0.2806,0.54092 -0.31519,0.67233 -0.0101,0.0382 -0.0475,0.13235 -0.0832,0.20926 -0.0357,0.0769 -0.10721,0.30339 -0.15892,0.50328 -0.079,0.30547 -0.0952,0.44649 -0.10141,0.88409 -0.007,0.47479 -0.0167,0.54934 -0.11326,0.84671 -0.0802,0.24701 -0.10738,0.39851 -0.11206,0.62477 -0.003,0.16427 -0.0273,0.3924 -0.0531,0.50694 z"
         id="path214" /><path
         id="path6"
         style="fill:#000000;fill-opacity:1;stroke-width:1.65704"
         d="m 108.09166,499.00888 c -0.0327,-0.0327 -0.0605,-0.16216 -0.0765,-0.35577 -0.0202,-0.24464 -0.054,-0.37255 -0.172,-0.65149 -0.15025,-0.35511 -0.32984,-0.93489 -0.32984,-1.06483 0,-0.0399 -0.0151,-0.129 -0.0334,-0.19803 -0.0971,-0.3642 -0.14702,-0.59261 -0.16031,-0.73292 -0.0303,-0.31951 -0.0645,-0.47628 -0.15777,-0.72185 -0.0166,-0.0439 -0.0303,-0.14731 -0.0303,-0.22992 0,-0.0826 -0.0208,-0.21073 -0.0462,-0.28472 -0.0254,-0.074 -0.0496,-0.20973 -0.0538,-0.30164 -0.004,-0.0919 -0.0249,-0.20906 -0.0462,-0.26032 -0.0213,-0.0513 -0.0419,-0.13225 -0.046,-0.17997 -0.016,-0.19082 -0.0507,-0.38831 -0.0751,-0.42734 -0.0142,-0.0227 -0.0289,-0.0881 -0.0328,-0.14536 -0.004,-0.0573 -0.0241,-0.19004 -0.0449,-0.29503 -0.0208,-0.105 -0.0537,-0.31585 -0.0731,-0.46857 -0.0194,-0.15272 -0.0525,-0.34015 -0.0735,-0.41651 -0.0335,-0.12171 -0.0424,-0.2489 -0.06,-0.85905 -0.007,-0.24648 -0.0629,-0.12962 -0.0829,0.17354 -0.011,0.16704 -0.0513,0.46771 -0.0895,0.66815 -0.0382,0.20045 -0.086,0.47378 -0.1062,0.60741 -0.0202,0.13363 -0.0478,0.28201 -0.0614,0.32974 -0.0136,0.0477 -0.0279,0.25858 -0.0317,0.46857 -0.0112,0.61646 -0.004,0.5727 -0.0963,0.5727 -0.12645,0 -0.16129,-0.0719 -0.19613,-0.40488 -0.0337,-0.32209 -0.10155,-0.76659 -0.1925,-1.26116 -0.0773,-0.42048 -0.0798,-0.43715 -0.11335,-0.7636 -0.0343,-0.33334 -0.14449,-0.86773 -0.17899,-0.86773 -0.0125,0 -0.058,0.20696 -0.10098,0.4599 -0.043,0.25294 -0.1072,0.6239 -0.14265,0.82434 -0.0354,0.20045 -0.0743,0.49721 -0.0863,0.65948 -0.012,0.16226 -0.0429,0.38093 -0.0687,0.48592 -0.0258,0.105 -0.0579,0.27681 -0.0713,0.38181 -0.0134,0.10499 -0.0453,0.24556 -0.0708,0.31238 -0.0255,0.0668 -0.0634,0.223 -0.0841,0.34709 -0.0207,0.12408 -0.0592,0.29589 -0.0855,0.3818 -0.0263,0.0859 -0.0743,0.24991 -0.10658,0.36445 -0.0323,0.11454 -0.0708,0.22387 -0.0856,0.24296 -0.0148,0.0191 -0.0383,0.12061 -0.0521,0.22561 -0.0313,0.23692 -0.0315,0.23725 -0.1368,0.21712 -0.0799,-0.0153 -0.12518,-0.0848 -0.14142,-0.21712 -0.004,-0.0286 -0.0165,-0.10673 -0.0289,-0.17355 -0.0124,-0.0668 -0.0296,-0.16053 -0.0382,-0.20825 -0.0467,-0.25902 -0.13188,-0.66764 -0.1772,-0.85038 -0.0284,-0.11454 -0.0986,-0.46597 -0.15602,-0.78095 -0.0574,-0.31499 -0.11905,-0.62737 -0.13698,-0.69418 -0.0179,-0.0668 -0.0481,-0.24644 -0.067,-0.39916 -0.0189,-0.15272 -0.0647,-0.38701 -0.10182,-0.52064 -0.0726,-0.26151 -0.13466,-0.61381 -0.16196,-0.91979 -0.009,-0.10499 -0.032,-0.23776 -0.0502,-0.29503 -0.0324,-0.10145 -0.0973,-0.45011 -0.12277,-0.65947 -0.0544,-0.44678 -0.16105,-0.91941 -0.25449,-1.12805 -0.0784,-0.1751 -0.0771,-0.17884 -0.0899,0.26032 -0.008,0.26601 -0.04,0.54803 -0.0874,0.7636 -0.0168,0.0764 -0.0484,0.2716 -0.0702,0.43387 -0.0669,0.49814 -0.14299,0.90622 -0.22641,1.21482 -0.0439,0.16226 -0.12133,0.49807 -0.17213,0.74624 -0.0508,0.24817 -0.13003,0.61522 -0.17605,0.81567 -0.046,0.20044 -0.099,0.45816 -0.11781,0.5727 -0.0677,0.41292 -0.13894,0.78344 -0.15593,0.81092 -0.0335,0.0542 -0.12053,0.54559 -0.14223,0.80305 -0.0313,0.37193 -0.0373,0.40715 -0.11518,0.67565 -0.0386,0.13298 -0.0626,0.25385 -0.0535,0.2686 0.009,0.0147 -0.0102,0.0165 -0.043,0.004 -0.0428,-0.0164 -0.0518,-0.0103 -0.0321,0.0216 0.0162,0.0263 0.008,0.0566 -0.0203,0.074 -0.0263,0.0163 -0.0478,0.0423 -0.0478,0.0578 0,0.0628 -0.2066,0.56437 -0.23247,0.56437 -0.0153,0 -0.0279,0.0537 -0.0279,0.11944 0,0.13201 -0.038,0.17289 -0.13276,0.14281 -0.11668,-0.037 -0.28344,-0.79603 -0.28403,-1.29281 -1.6e-4,-0.12998 -0.0153,-0.36908 -0.0336,-0.53135 -0.0183,-0.16226 -0.037,-0.3536 -0.0415,-0.42519 -0.006,-0.0942 -0.024,-0.13015 -0.0652,-0.13015 -0.0805,0 -0.17176,-0.11176 -0.17221,-0.21099 -4.3e-4,-0.0959 -0.0371,-0.21635 -0.25811,-0.84764 -0.0869,-0.24817 -0.157969,-0.47877 -0.157989,-0.51243 -2e-5,-0.0337 -0.0156,-0.0883 -0.0345,-0.12149 -0.019,-0.0331 -0.0674,-0.15115 -0.10752,-0.26224 -0.0402,-0.11108 -0.0804,-0.19463 -0.0893,-0.18566 -0.009,0.009 -0.0535,0.21701 -0.0989,0.46229 -0.12718,0.6867 -0.21127,0.99352 -0.43611,1.59138 -0.0359,0.0954 -0.12147,0.35317 -0.19015,0.5727 -0.0687,0.21954 -0.13928,0.42628 -0.15688,0.45943 -0.0176,0.0331 -0.032,0.0908 -0.032,0.12811 0,0.0373 -0.0133,0.0761 -0.0295,0.0861 -0.0162,0.01 -0.0641,0.12779 -0.10634,0.26169 -0.0423,0.13389 -0.0907,0.252 -0.10758,0.26245 -0.0169,0.0104 -0.0218,0.0946 -0.0109,0.18688 0.0243,0.20485 -0.018,0.24124 -0.15061,0.12959 -0.10479,-0.0883 -0.1074,-0.0968 -0.26967,-0.88946 -0.0489,-0.23863 -0.10513,-0.50491 -0.12505,-0.59173 -0.0199,-0.0868 -0.0502,-0.2937 -0.0674,-0.45973 -0.0171,-0.16602 -0.0384,-0.31368 -0.0474,-0.32812 -0.009,-0.0144 -0.0204,-0.0965 -0.0255,-0.1824 -0.005,-0.0859 -0.0179,-0.17174 -0.0283,-0.19083 -0.0244,-0.0445 -0.0282,-0.0698 -0.0742,-0.48593 -0.0211,-0.1909 -0.075,-0.53452 -0.11974,-0.7636 -0.12223,-0.62537 -0.18622,-1.16563 -0.21122,-1.78338 -0.006,-0.15998 -0.0359,-0.40765 -0.0654,-0.55038 -0.0295,-0.14272 -0.0537,-0.30469 -0.0537,-0.35991 0,-0.0552 -0.0156,-0.10042 -0.0347,-0.10042 -0.0191,0 -0.0347,0.0247 -0.0347,0.0549 0,0.0658 -0.17788,0.49179 -0.51761,1.23955 -0.0589,0.12972 -0.10688,0.25467 -0.10655,0.27768 3.2e-4,0.023 -0.0416,0.16961 -0.0931,0.32579 -0.0968,0.2934 -0.16015,0.35739 -0.27239,0.27532 -0.0763,-0.0558 -0.21619,-0.72686 -0.26808,-1.28609 -0.0388,-0.41871 -0.0831,-0.49274 -0.0924,-0.15473 -0.002,0.0688 -0.0411,0.27962 -0.0871,0.46857 -0.046,0.18895 -0.111,0.4685 -0.14442,0.62122 -0.0334,0.15272 -0.0724,0.29329 -0.0867,0.31238 -0.0142,0.0191 -0.0375,0.11255 -0.0516,0.20768 -0.0142,0.0951 -0.0445,0.22009 -0.0675,0.27767 -0.0229,0.0576 -0.0449,0.18152 -0.0488,0.27541 -0.004,0.0939 -0.0201,0.19541 -0.036,0.22561 -0.0159,0.0302 -0.087,0.297 -0.15793,0.5929 -0.071,0.29589 -0.16646,0.66 -0.21219,0.80913 -0.0457,0.14913 -0.0831,0.30244 -0.0831,0.3407 0,0.17501 -0.12349,0.25287 -0.24934,0.15719 -0.0509,-0.0387 -0.0594,-0.13399 -0.0658,-0.73646 -0.004,-0.38063 -0.0207,-0.80919 -0.0371,-0.95236 -0.0486,-0.42604 -0.0486,-0.92453 1.7e-4,-0.98323 0.0255,-0.0307 0.0297,-0.0601 0.0103,-0.0721 -0.0675,-0.0417 -0.10731,-0.63027 -0.12477,-1.84286 -0.0192,-1.33716 -0.0255,-1.50514 -0.0843,-2.25609 -0.0209,-0.26726 -0.04,-0.6265 -0.0424,-0.79831 -0.002,-0.17181 -0.0191,-0.41895 -0.0371,-0.54919 -0.0209,-0.15137 -0.0201,-0.39421 0.002,-0.67304 0.0295,-0.36878 0.0268,-0.45184 -0.0173,-0.53721 -0.0287,-0.0555 -0.0447,-0.12752 -0.0356,-0.15998 0.0406,-0.14401 0.0728,-1.59495 0.0732,-3.30431 3.1e-4,-1.17929 0.0132,-1.87594 0.0352,-1.909 0.0191,-0.0286 0.0374,-0.11454 0.0406,-0.1909 0.003,-0.0764 0.0149,-0.24817 0.0258,-0.3818 0.0292,-0.35709 0.0271,-1.26243 -0.003,-1.31129 -0.036,-0.0582 -0.0187,-0.96554 0.0218,-1.14633 0.0182,-0.081 0.0441,-0.31855 0.0576,-0.52781 0.0186,-0.28843 0.0522,-0.46455 0.1387,-0.72801 0.0628,-0.19114 0.10261,-0.35902 0.0886,-0.37307 -0.014,-0.014 -0.0216,-0.19367 -0.0167,-0.39916 0.0109,-0.46246 0.14242,-1.07165 0.32042,-1.48431 0.15693,-0.36377 0.21124,-0.49965 0.21124,-0.52843 0,-0.0186 0.0466,-0.10255 0.1035,-0.18656 0.0569,-0.084 0.10378,-0.17796 0.10413,-0.20879 7.5e-4,-0.0664 0.13878,-0.25123 0.16676,-0.22325 0.0106,0.0107 0.0612,-0.0438 0.11239,-0.12113 0.10743,-0.16227 0.38384,-0.42657 0.79746,-0.76251 0.105,-0.0853 0.19871,-0.16328 0.20826,-0.17335 0.01,-0.0101 0.10716,-0.0793 0.21693,-0.15376 0.10977,-0.0745 0.19958,-0.14603 0.19958,-0.15894 0,-0.0129 0.0703,-0.0596 0.15619,-0.10382 0.0859,-0.0442 0.15619,-0.0935 0.15619,-0.10958 0,-0.0161 0.0233,-0.0293 0.0517,-0.0293 0.0284,0 0.1573,-0.0666 0.28635,-0.14794 0.12905,-0.0814 0.2815,-0.17117 0.33877,-0.19957 0.0573,-0.0284 0.11974,-0.0635 0.13883,-0.0781 0.19143,-0.14565 0.24537,-0.18067 0.28788,-0.18691 0.0272,-0.004 0.0828,-0.0374 0.12372,-0.0743 0.0409,-0.0369 0.15243,-0.0918 0.24788,-0.12207 0.41273,-0.13092 0.73384,-0.23798 0.79831,-0.26616 0.348969,-0.15254 1.880299,-0.0797 2.245889,0.10677 0.0755,0.0385 0.24928,0.0989 0.38614,0.13412 0.29481,0.0759 1.07682,0.40085 1.13583,0.47195 0.0227,0.0274 0.0609,0.0498 0.0849,0.0498 0.024,0 0.20407,0.12885 0.40019,0.28635 0.19611,0.15749 0.40632,0.32539 0.46713,0.37312 0.16319,0.12808 0.29167,0.24939 0.76278,0.72021 0.234,0.23386 0.44217,0.42519 0.46261,0.42519 0.0204,0 0.0483,0.0351 0.062,0.0781 0.0136,0.0429 0.11309,0.17962 0.221,0.3037 0.25307,0.29097 0.38119,0.46568 0.48361,0.65942 0.0778,0.14723 0.37244,0.52442 0.4293,0.54962 0.0144,0.006 0.0261,0.0246 0.0261,0.0405 0,0.0159 0.0761,0.14345 0.16923,0.28345 0.0931,0.14001 0.18003,0.2897 0.19324,0.33265 0.0132,0.043 0.035,0.0781 0.0485,0.0781 0.0329,0 0.1325,0.19693 0.17555,0.3471 0.0473,0.16487 0.23767,0.68725 0.29734,0.81573 0.1925,0.41448 0.3786,0.93266 0.43352,1.2071 0.0199,0.0997 0.0605,0.2671 0.09,0.3721 0.0296,0.10499 0.0751,0.42845 0.10123,0.7188 0.0261,0.29034 0.0601,0.54806 0.0755,0.5727 0.0154,0.0246 0.03,0.39623 0.0324,0.82575 0.005,0.83138 0.0452,1.44994 0.15955,2.42965 0.0438,0.37565 0.0662,0.74646 0.0585,0.97185 -0.007,0.20045 -0.01,0.84299 -0.007,1.42788 0.004,0.81581 0.019,1.13365 0.0624,1.36504 0.0554,0.29584 0.0556,0.49948 8.8e-4,1.40689 -0.0339,0.56167 -0.0564,1.27331 -0.0691,2.18667 -0.007,0.52498 -0.0213,1.05603 -0.031,1.18012 -0.01,0.12408 -0.026,0.35056 -0.0361,0.50328 -0.0101,0.15272 -0.0272,0.34015 -0.0378,0.41651 -0.0107,0.0764 -0.0251,1.16189 -0.0321,2.41228 -0.007,1.2504 -0.0221,2.3125 -0.0336,2.36023 -0.0208,0.0865 -0.0379,0.26162 -0.0898,0.91979 -0.0151,0.1909 -0.0519,0.53452 -0.0819,0.7636 -0.03,0.22908 -0.055,0.48758 -0.0556,0.57444 -0.002,0.22016 -0.10331,0.30759 -0.22104,0.18986 z m 0.13315,-1.42377 c 0.0115,-0.15272 0.0357,-0.42606 0.0537,-0.60741 0.0405,-0.40722 0.10946,-2.56392 0.0834,-2.60611 -0.0272,-0.044 -0.0293,-2.65398 -0.002,-2.69789 0.0446,-0.0722 0.0947,-0.94879 0.12617,-2.21053 0.0176,-0.70634 0.0421,-1.51072 0.0544,-1.78753 0.0322,-0.72637 0.0234,-1.76523 -0.0191,-2.2611 -0.0614,-0.71534 -0.0738,-1.31804 -0.0373,-1.80527 0.037,-0.49422 0.0221,-0.75965 -0.10426,-1.85154 -0.0488,-0.42145 -0.0777,-0.93537 -0.089,-1.57926 -0.0117,-0.66985 -0.033,-1.03731 -0.0716,-1.23218 -0.0302,-0.15272 -0.0671,-0.39481 -0.082,-0.53799 -0.0149,-0.14317 -0.0607,-0.36184 -0.10181,-0.48593 -0.0411,-0.12408 -0.0823,-0.27246 -0.0916,-0.32973 -0.009,-0.0573 -0.0312,-0.14318 -0.0487,-0.1909 -0.0175,-0.0477 -0.0487,-0.18049 -0.0694,-0.29503 -0.0756,-0.41881 -0.12389,-0.55004 -0.229,-0.6226 -0.0553,-0.0382 -0.21164,-0.15191 -0.3474,-0.25273 -0.13577,-0.10081 -0.27265,-0.1833 -0.30418,-0.1833 -0.0315,0 -0.0845,-0.0154 -0.1176,-0.0342 -0.11057,-0.0627 -0.47348,-0.16638 -0.77181,-0.22048 -0.16227,-0.0294 -0.39655,-0.0724 -0.52064,-0.0956 -0.13312,-0.0248 -0.47461,-0.0394 -0.83302,-0.0355 -1.12429,0.0122 -3.03112,0.0188 -3.818,0.0132 -0.42953,-0.003 -0.83563,0.002 -0.902439,0.0114 -0.0668,0.009 -0.27603,0.0237 -0.46492,0.032 -0.18889,0.008 -0.35145,0.0232 -0.36125,0.033 -0.01,0.01 -0.0375,0.001 -0.0616,-0.0186 -0.0283,-0.0235 -0.3794,-0.0357 -0.99241,-0.0345 -0.52172,10e-4 -0.98372,0.002 -1.02667,0.002 -0.043,4e-5 -0.10543,-0.002 -0.13884,-0.004 -0.34226,-0.0227 -0.74607,0.0188 -0.99789,0.10255 -0.15272,0.0508 -0.28548,0.10022 -0.29503,0.1098 -0.01,0.01 -0.0564,0.0349 -0.10412,0.0563 -0.48667,0.21837 -0.61013,0.29977 -0.67699,0.44641 -0.0805,0.17666 -0.15019,0.53542 -0.19214,0.98969 -0.022,0.23862 -0.0613,0.53541 -0.0872,0.65952 -0.0333,0.15918 -0.0481,0.53748 -0.0503,1.28423 -0.002,0.58223 -0.0116,1.33973 -0.0218,1.68335 -0.0223,0.75122 -0.0229,0.63125 0.008,1.71811 0.0327,1.15737 0.0328,1.40475 7.9e-4,2.04783 -0.0572,1.15127 -0.0167,2.81875 0.12106,4.98077 0.0219,0.34362 0.0447,1.04648 0.0506,1.56191 0.0113,0.98532 0.025,1.3457 0.0819,2.16932 0.0191,0.27681 0.0274,0.63892 0.0184,0.80469 -0.01,0.18401 -0.003,0.30986 0.0187,0.32311 0.0193,0.0119 0.0351,-0.003 0.0351,-0.0341 0,-0.0307 0.0245,-0.10326 0.0545,-0.16123 0.03,-0.058 0.0763,-0.20167 0.10307,-0.31933 0.0267,-0.11767 0.0731,-0.29985 0.103,-0.40484 0.0519,-0.18193 0.0934,-0.40302 0.1925,-1.02392 0.0244,-0.15272 0.0715,-0.34185 0.10466,-0.42029 0.0702,-0.16595 0.22366,-0.88688 0.27319,-1.28373 0.0188,-0.15092 0.0499,-0.39936 0.069,-0.55208 0.0191,-0.15272 0.0519,-0.43386 0.0728,-0.62476 0.0617,-0.56215 0.0546,-0.5435 0.20185,-0.53122 l 0.12699,0.0106 0.002,0.62476 c 10e-4,0.34362 0.0129,0.72629 0.0257,0.85038 0.0128,0.12408 0.0316,0.33494 0.0418,0.46857 0.0238,0.31224 0.0915,0.67683 0.12568,0.67683 0.0146,0 0.0538,-0.0898 0.087,-0.19958 0.0332,-0.10976 0.0789,-0.223 0.10148,-0.25164 0.0226,-0.0286 0.0653,-0.10673 0.0949,-0.17354 0.12609,-0.28448 0.26149,-0.6136 0.28559,-0.69419 0.0143,-0.0477 0.0707,-0.17097 0.12536,-0.27388 0.0547,-0.10291 0.0994,-0.20817 0.0994,-0.23392 0,-0.0726 0.18146,-0.513 0.22316,-0.54162 0.0661,-0.0454 0.18533,-0.0281 0.20765,0.0301 0.012,0.0311 0.004,0.18585 -0.0184,0.34378 -0.0353,0.25268 -0.0313,0.34067 0.0337,0.733 0.0406,0.24522 0.0892,0.75043 0.10794,1.12268 0.0187,0.37226 0.0504,0.7315 0.0704,0.79831 0.0392,0.13099 0.12394,0.63177 0.17324,1.02392 0.0168,0.13363 0.0464,0.31325 0.0657,0.39916 0.0193,0.0859 0.0444,0.23429 0.0558,0.32974 0.0114,0.0954 0.0358,0.24383 0.0543,0.32973 0.0185,0.0859 0.0388,0.24991 0.0451,0.36445 0.0128,0.23149 0.14933,1.02207 0.19905,1.15285 0.0175,0.0461 0.0319,0.12187 0.0319,0.16836 0,0.0465 0.0147,0.0845 0.0326,0.0845 0.0179,0 0.0305,-0.0274 0.028,-0.0609 -0.003,-0.0335 0.052,-0.20139 0.1211,-0.37313 0.0691,-0.17174 0.18336,-0.49188 0.25384,-0.71141 0.0705,-0.21954 0.14807,-0.44601 0.17242,-0.50328 0.0244,-0.0573 0.0556,-0.1588 0.0695,-0.22561 0.0139,-0.0668 0.0442,-0.16053 0.0674,-0.20826 0.1192,-0.24537 0.35769,-1.47889 0.40177,-2.07801 0.0396,-0.53821 0.0483,-0.56693 0.16678,-0.55323 0.0894,0.0103 0.0932,0.02 0.11496,0.28837 0.0124,0.15272 0.0452,0.34015 0.073,0.41651 0.0278,0.0764 0.0613,0.20132 0.0744,0.27768 0.0131,0.0764 0.0525,0.21693 0.0875,0.31238 0.035,0.0954 0.12157,0.37659 0.19243,0.62476 0.0709,0.24817 0.13846,0.48246 0.15022,0.52064 0.0252,0.0817 0.0701,-0.15382 0.0742,-0.38926 0.002,-0.11065 0.02,-0.15563 0.0742,-0.18463 0.12623,-0.0676 0.18257,0.0182 0.16188,0.24643 -0.0188,0.2071 0.008,0.61111 0.0917,1.40344 0.0284,0.26726 0.061,0.64212 0.0726,0.83302 0.0291,0.48183 0.0868,0.83087 0.13013,0.78756 0.0577,-0.0577 0.27891,-0.88266 0.44384,-1.65529 0.0367,-0.17181 0.12203,-0.56228 0.18967,-0.86772 0.13553,-0.61196 0.21688,-1.01081 0.26548,-1.3016 0.0508,-0.30411 0.26986,-1.24116 0.36103,-1.54455 0.0459,-0.15272 0.0996,-0.40263 0.11939,-0.55535 0.0726,-0.56049 0.11287,-0.80442 0.17778,-1.07598 0.0816,-0.34162 0.0916,-0.87548 0.0174,-0.93332 -0.073,-0.057 0.10354,-0.43221 0.21683,-0.46083 0.10588,-0.0267 0.14265,0.015 0.24172,0.27486 0.0455,0.11927 0.10411,0.27152 0.13029,0.33833 0.0262,0.0668 0.0483,0.17757 0.0491,0.24613 8.3e-4,0.0686 0.0251,0.20131 0.0539,0.29502 0.0288,0.0937 0.0766,0.31096 0.10615,0.48277 0.0879,0.51077 0.13366,0.69749 0.18634,0.76094 0.0415,0.0499 0.042,0.0649 0.003,0.0889 -0.0388,0.024 -0.0393,0.0722 -0.003,0.2837 0.024,0.14014 0.0492,0.31728 0.056,0.39364 0.007,0.0764 0.0372,0.22474 0.0676,0.32974 0.0305,0.10499 0.078,0.33147 0.10559,0.50328 0.0456,0.28424 0.22179,1.18568 0.29842,1.5272 0.0171,0.0764 0.0602,0.28722 0.0957,0.46858 0.0355,0.18135 0.0811,0.37108 0.10131,0.42162 0.0202,0.0505 0.0285,0.10018 0.0183,0.11032 -0.0102,0.0101 -0.008,0.0677 0.006,0.12793 0.0229,0.10408 0.0264,0.10614 0.0716,0.0416 0.0526,-0.0751 0.16371,-0.45878 0.23952,-0.82719 0.027,-0.13128 0.0722,-0.3324 0.1005,-0.44694 0.0282,-0.11454 0.093,-0.52845 0.1439,-0.9198 0.0509,-0.39134 0.11554,-0.8521 0.14366,-1.02392 0.0281,-0.17181 0.0652,-0.40609 0.0823,-0.52063 0.0172,-0.11454 0.0473,-0.27073 0.067,-0.34709 0.0197,-0.0764 0.0517,-0.32627 0.0711,-0.55535 0.0433,-0.51082 0.0813,-0.64212 0.18589,-0.64212 0.042,0 0.10948,0.0232 0.14996,0.0516 0.0637,0.0446 0.0696,0.0691 0.0434,0.18223 -0.035,0.15146 0.0119,0.61288 0.10662,1.05046 0.0351,0.16226 0.0745,0.40436 0.0876,0.53799 0.0465,0.4767 0.23162,1.44534 0.26536,1.38818 0.0112,-0.019 0.0315,-0.14386 0.0451,-0.27749 0.0136,-0.13363 0.0457,-0.33668 0.0714,-0.45122 0.0256,-0.11454 0.0563,-0.34882 0.0681,-0.52063 0.0118,-0.17181 0.0277,-0.36705 0.0352,-0.43387 0.008,-0.0668 0.0327,-0.28548 0.0558,-0.48592 0.0231,-0.20045 0.0454,-0.45817 0.0494,-0.57271 0.0117,-0.32904 0.0559,-0.86493 0.0736,-0.89364 0.009,-0.0144 0.0512,-0.0262 0.0939,-0.0262 0.1201,0 0.17674,0.19141 0.12722,0.42995 -0.0414,0.19943 -0.0306,0.51188 0.0203,0.58443 0.0171,0.0243 0.0284,0.11454 0.0253,0.20044 -0.0142,0.38979 0.12751,1.91183 0.20524,2.20403 0.0203,0.0764 0.0399,0.16227 0.0434,0.1909 0.0373,0.30018 0.0658,0.44126 0.097,0.47979 0.0204,0.0253 0.0337,0.11251 0.0295,0.19389 -0.004,0.0814 0.0103,0.19347 0.0322,0.2491 0.0219,0.0556 0.0603,0.2261 0.0852,0.37882 0.0762,0.46578 0.15864,0.89655 0.194,1.0131 0.0333,0.10975 0.12514,0.62908 0.15844,0.8959 0.01,0.0764 0.0354,0.15446 0.0576,0.17355 0.0221,0.0191 0.0406,0.0503 0.041,0.0694 0.007,0.35951 0.18786,1.05779 0.35261,1.36503 l 0.13259,0.24729 0.0242,-0.11198 c 0.0133,-0.0616 0.0336,-0.23692 0.0452,-0.38964 z m -3.5403,-12.70642 c -0.1544,-0.10624 -0.22956,-0.15525 -0.48725,-0.31775 -0.20401,-0.12865 -0.27165,-0.14894 -0.50963,-0.15289 -0.33024,-0.005 -0.8244,0.0305 -1.08567,0.079 -0.11988,0.0222 -0.5102,0.0355 -0.91979,0.0313 -0.87015,-0.009 -0.61768,-0.0104 -1.926359,0.0103 -0.61088,0.01 -1.19564,0.0346 -1.29947,0.0554 -0.10382,0.0208 -0.24049,0.0282 -0.3037,0.0163 -0.0957,-0.018 -0.11493,-0.0369 -0.11493,-0.11345 v -0.0919 l 0.58875,-0.007 c 0.4733,-0.005 0.6054,-0.0176 0.67362,-0.0623 0.0467,-0.0306 0.0935,-0.0417 0.10395,-0.0247 0.0222,0.036 0.1258,0.0333 0.18752,-0.005 0.0235,-0.0145 0.0606,-0.0154 0.0824,-0.002 0.0644,0.0398 0.531479,0.11132 0.550389,0.0843 0.0193,-0.0276 0.66791,-0.0808 0.88509,-0.0726 0.0764,0.003 0.22394,0.0274 0.32797,0.0545 0.1334,0.0347 0.20208,0.0385 0.23307,0.0128 0.0242,-0.0201 0.21711,-0.0424 0.42879,-0.0497 0.21168,-0.007 0.39646,-0.0204 0.41062,-0.0291 0.0142,-0.009 0.18904,-0.0265 0.38863,-0.0394 0.51399,-0.0333 0.58374,-0.0401 0.78602,-0.0765 0.20677,-0.0372 0.36064,0.002 0.54011,0.13785 0.27907,0.21117 0.59218,0.41616 0.6852,0.44858 0.1016,0.0354 0.16262,0.13695 0.12191,0.20283 -0.0401,0.0649 -0.17269,0.0308 -0.34728,-0.0893 z m -6.619969,-4.40729 c -0.009,-0.009 -0.0773,-0.0193 -0.15102,-0.022 -0.26164,-0.01 -0.57,-0.15708 -0.57,-0.27218 0,-0.0201 -0.0265,-0.0319 -0.059,-0.0263 -0.0351,0.006 -0.0877,-0.0343 -0.13016,-0.0999 -0.0392,-0.0605 -0.10632,-0.12659 -0.14927,-0.14677 -0.043,-0.0202 -0.0781,-0.0543 -0.0781,-0.0758 0,-0.0215 -0.0358,-0.0673 -0.0795,-0.10164 -0.0437,-0.0344 -0.12383,-0.1502 -0.17806,-0.25738 -0.0542,-0.10718 -0.11218,-0.20327 -0.12879,-0.21353 -0.0166,-0.0103 -0.0302,-0.057 -0.0302,-0.10386 0,-0.0469 -0.0144,-0.11232 -0.032,-0.14547 -0.0176,-0.0331 -0.0582,-0.16033 -0.0901,-0.28263 -0.0553,-0.21192 -0.0546,-0.33794 0.004,-0.71478 0.0392,-0.25113 0.24074,-0.7474 0.35327,-0.8697 0.0341,-0.0371 0.11524,-0.14995 0.18025,-0.25078 0.13212,-0.20491 0.35988,-0.34442 0.69127,-0.42343 0.34964,-0.0834 1.20877,0.0434 1.41998,0.20958 0.0472,0.0371 0.10254,0.0674 0.12308,0.0674 0.0654,0 0.4466,0.42834 0.51301,0.57644 0.15021,0.33499 0.23686,1.11106 0.1701,1.52347 -0.0577,0.35668 -0.16967,0.69851 -0.30081,0.91865 -0.13017,0.21853 -0.43281,0.52178 -0.52072,0.52178 -0.0319,0 -0.10629,0.0369 -0.16541,0.082 -0.0947,0.0722 -0.14044,0.0811 -0.38507,0.0747 -0.15268,-0.004 -0.30287,0.005 -0.33377,0.0209 -0.0309,0.0155 -0.0638,0.0205 -0.0732,0.0112 z m -1.20891,-2.54671 c 0.14881,-0.57228 0.415,-0.95566 0.7916,-1.14005 0.13777,-0.0675 0.14682,-0.12056 0.0174,-0.10187 -0.15148,0.0219 -0.21693,0.0619 -0.21693,0.13262 0,0.0411 -0.0244,0.0657 -0.0652,0.0657 -0.0358,0 -0.0846,0.0234 -0.10838,0.0521 -0.0238,0.0286 -0.0591,0.0521 -0.0785,0.0521 -0.05,0 -0.12732,0.11001 -0.12863,0.18299 -6e-4,0.0338 -0.0636,0.1293 -0.13994,0.21214 -0.0764,0.0828 -0.13883,0.16651 -0.13883,0.18593 0,0.0194 -0.0414,0.12574 -0.092,0.23627 -0.13283,0.29013 -0.14954,0.76355 -0.0391,1.10759 l 0.0785,0.2444 0.022,-0.46858 c 0.0143,-0.30597 0.0484,-0.57014 0.0981,-0.76128 z m 5.758709,2.42236 c -0.045,-0.0346 -0.10913,-0.0633 -0.14254,-0.0637 -0.0366,-4.7e-4 -0.0607,-0.0274 -0.0607,-0.0678 0,-0.0369 -0.0285,-0.0761 -0.0632,-0.0872 -0.0348,-0.011 -0.0983,-0.0824 -0.14106,-0.15853 -0.0428,-0.0762 -0.0917,-0.13846 -0.10868,-0.13846 -0.0449,0 -0.18284,-0.31615 -0.17792,-0.40784 0.002,-0.043 -0.01,-0.0781 -0.0264,-0.0781 -0.0169,0 -0.0654,-0.18867 -0.10792,-0.41927 -0.0689,-0.37379 -0.073,-0.45191 -0.038,-0.72021 0.0216,-0.16552 0.0629,-0.36879 0.0919,-0.4517 0.0635,-0.18192 0.26515,-0.56049 0.38953,-0.73148 0.18927,-0.26017 0.48431,-0.48878 0.6308,-0.48878 0.042,0 0.10569,-0.0157 0.14164,-0.035 0.11441,-0.0612 0.58857,-0.045 0.80494,0.0276 0.49532,0.16615 0.88518,0.50635 1.10111,0.96086 0.0777,0.16355 0.14128,0.31077 0.14128,0.32716 0,0.0164 0.0208,0.0471 0.0463,0.0682 0.0322,0.0267 0.0415,0.0961 0.0306,0.22727 -0.009,0.10387 0.003,0.26646 0.0257,0.3613 0.0379,0.15809 0.0339,0.19105 -0.048,0.3958 -0.0491,0.12283 -0.0893,0.25517 -0.0893,0.29408 0,0.0389 -0.0296,0.14702 -0.0659,0.24024 -0.0362,0.0932 -0.0924,0.24418 -0.12476,0.33545 -0.045,0.12673 -0.10686,0.20465 -0.26185,0.32973 -0.33125,0.26734 -0.49824,0.31176 -1.23589,0.32874 -0.56826,0.0131 -0.63772,0.008 -0.71154,-0.0484 z m -0.64429,-1.72182 c 0.06,-0.5195 0.1591,-0.856 0.30916,-1.04995 0.15311,-0.19787 0.44228,-0.6009 0.45739,-0.63747 0.0112,-0.027 0.027,-0.024 0.0503,0.009 0.0282,0.0404 0.0526,0.0345 0.1424,-0.0347 0.24008,-0.18496 0.2953,-0.23752 0.25059,-0.23857 -0.0847,-0.002 -0.46937,0.1775 -0.57797,0.26969 -0.19009,0.16135 -0.48664,0.65067 -0.61421,1.01345 -0.0756,0.21504 -0.12911,0.83302 -0.0721,0.83302 0.0195,0 0.044,-0.0742 0.0544,-0.16487 z m -6.910429,-2.69587 c 0.0515,-0.0269 0.18429,-0.0751 0.29503,-0.10719 0.11074,-0.0321 0.21697,-0.0711 0.23606,-0.0867 0.0662,-0.0541 0.41697,-0.1733 0.50991,-0.17332 0.0514,-10e-6 0.10306,-0.0156 0.11486,-0.0347 0.012,-0.0194 0.17322,-0.0347 0.36444,-0.0347 0.2107,0 0.35204,-0.0146 0.36644,-0.0379 0.0396,-0.064 0.11151,-0.89903 0.10439,-1.21159 -0.0137,-0.60031 -0.0165,-0.62476 -0.0728,-0.62476 -0.18151,0 -1.15886,0.66789 -1.28248,0.8764 -0.0311,0.0525 -0.0707,0.0955 -0.0879,0.0955 -0.0454,0 -0.28835,0.26747 -0.32938,0.3627 -0.0192,0.0446 -0.0756,0.12168 -0.12521,0.17133 -0.11006,0.11006 -0.23903,0.48714 -0.23903,0.69887 0,0.17089 0.009,0.17748 0.14574,0.10616 z m 12.313969,-0.18335 c -0.0412,-0.0916 -0.0986,-0.2446 -0.12756,-0.34005 -0.0289,-0.0954 -0.13679,-0.30294 -0.23974,-0.46109 -0.10294,-0.15815 -0.18717,-0.29565 -0.18717,-0.30555 0,-0.0321 -0.15246,-0.24291 -0.30791,-0.42577 -0.0834,-0.0981 -0.21621,-0.28486 -0.29503,-0.4149 -0.19047,-0.31425 -0.4813,-0.70085 -0.52723,-0.70085 -0.0203,0 -0.16863,-0.14996 -0.32973,-0.33325 -0.44799,-0.5097 -0.77941,-0.82457 -1.14709,-1.08982 -0.0926,-0.0668 -0.28734,-0.22133 -0.43272,-0.34337 -0.23186,-0.19464 -0.5974,-0.42023 -0.6809,-0.42023 -0.0158,0 -0.10276,-0.0324 -0.19322,-0.0719 -0.0905,-0.0395 -0.21135,-0.0923 -0.26862,-0.11723 -0.1973,-0.0859 -0.84401,-0.26839 -0.90787,-0.2562 -0.0759,0.0145 -0.10669,0.21053 -0.11369,0.72302 -0.006,0.4045 -0.0577,0.8263 -0.11001,0.88932 -0.0637,0.0767 -0.009,0.15195 0.11023,0.15195 0.0599,0 0.20151,0.024 0.31472,0.0533 0.11321,0.0293 0.22053,0.0443 0.2385,0.0332 0.018,-0.0111 0.0992,-0.002 0.18063,0.0197 0.0814,0.0219 0.19338,0.0456 0.24888,0.0526 0.17137,0.0217 0.3428,0.0882 0.54436,0.21129 0.10635,0.0649 0.24693,0.1231 0.31238,0.12925 0.11953,0.0112 0.37726,0.14602 0.55225,0.28882 0.0631,0.0515 0.10534,0.0651 0.12887,0.0416 0.0235,-0.0235 0.0737,-7e-4 0.15295,0.0696 0.1638,0.14527 0.58427,0.45429 0.61816,0.45429 0.0154,0 0.19807,0.17259 0.406,0.38353 0.20792,0.21094 0.47176,0.45911 0.5863,0.55149 0.11454,0.0924 0.34882,0.33726 0.52063,0.5442 0.39825,0.47966 0.62262,0.69666 0.80317,0.77678 0.079,0.0351 0.15608,0.0838 0.17122,0.10832 0.0651,0.10537 0.0496,-0.0459 -0.0208,-0.20204 z m -0.55447,0.10062 c 0,-0.0153 -0.0563,-0.0817 -0.12509,-0.14751 -0.0688,-0.0658 -0.24108,-0.25559 -0.38286,-0.42179 -0.21706,-0.25445 -0.42112,-0.46292 -0.85042,-0.86877 -0.0607,-0.0574 -0.0661,-0.0566 -0.11409,0.0173 -0.0277,0.0427 -0.10686,0.19866 -0.17591,0.34661 -0.0691,0.14795 -0.14032,0.26899 -0.15838,0.26899 -0.0181,0 -0.0304,0.0117 -0.0273,0.026 0.008,0.0392 -0.0434,0.15317 -0.11908,0.26231 -0.0372,0.0536 -0.058,0.10703 -0.0463,0.11873 0.0117,0.0117 0.11783,0.0269 0.23583,0.0338 0.11801,0.007 0.23513,0.0296 0.26027,0.0505 0.0263,0.0218 0.0936,0.0284 0.15826,0.0154 0.22549,-0.0451 0.95566,0.11263 1.18887,0.2568 0.11658,0.0721 0.15619,0.0826 0.15619,0.0416 z m -6.68947,-0.32222 c 0.57283,-0.032 0.78793,-0.0326 0.88911,-0.002 0.14531,0.0435 0.73659,0.0489 1.05148,0.009 0.10844,-0.0136 0.31149,-0.014 0.45122,-8.8e-4 0.13972,0.0131 0.27066,0.0104 0.29097,-0.006 0.05,-0.0403 0.53838,-0.0502 0.80001,-0.0161 0.14714,0.0191 0.21958,0.0156 0.23634,-0.0115 0.0133,-0.0215 0.008,-0.0391 -0.0115,-0.0391 -0.0595,0 -0.24371,-0.42239 -0.26495,-0.6075 -0.0206,-0.17959 -0.0928,-0.51919 -0.18082,-0.85028 -0.0634,-0.23873 -0.10352,-0.57057 -0.0845,-0.69991 0.0111,-0.0757 0.0331,-0.0984 0.0952,-0.0984 0.10207,0 0.12354,0.0359 0.14167,0.23701 0.008,0.0892 0.0296,0.23243 0.048,0.31834 0.0183,0.0859 0.0671,0.35143 0.10829,0.59005 0.0412,0.23863 0.0843,0.4869 0.0958,0.55173 0.0115,0.0648 0.0365,0.11245 0.0556,0.10585 0.0191,-0.007 0.12842,-0.20021 0.24296,-0.43024 0.17952,-0.36053 0.22077,-0.41969 0.29891,-0.42876 0.0884,-0.0103 0.0911,-0.005 0.10895,0.22561 0.0217,0.28045 0.12376,0.73941 0.16437,0.73941 0.0432,0 0.27929,-0.34085 0.35564,-0.51344 0.0661,-0.14946 0.0615,-0.19678 -0.0192,-0.19765 -0.0923,-0.001 -0.0598,-0.0738 0.0584,-0.13088 0.0695,-0.0336 0.1263,-0.0748 0.1263,-0.0917 0,-0.0467 -0.40508,-0.41167 -0.48509,-0.43706 -0.0386,-0.0123 -0.0703,-0.0349 -0.0703,-0.0502 0,-0.0153 -0.10342,-0.0807 -0.22983,-0.14518 -0.1264,-0.0645 -0.27088,-0.16648 -0.32106,-0.2266 -0.0851,-0.10203 -0.6044,-0.39396 -0.70074,-0.39396 -0.0238,0 -0.14206,-0.0552 -0.26279,-0.12275 -0.26384,-0.14755 -0.47026,-0.22462 -0.6479,-0.24189 -0.11188,-0.0109 -0.13647,-6.8e-4 -0.16234,0.0674 -0.0168,0.0441 -0.0694,0.09 -0.11697,0.10191 -0.10795,0.0271 -0.42001,0.3503 -0.56827,0.58856 -0.0614,0.0987 -0.13012,0.2607 -0.15265,0.35997 -0.0547,0.24087 -0.001,0.32457 0.26047,0.40683 0.10607,0.0334 0.23337,0.0925 0.28288,0.13148 0.21091,0.1659 0.34024,0.52614 0.26228,0.73058 -0.0273,0.0716 -0.10208,0.12685 -0.29704,0.21939 -0.1433,0.068 -0.26948,0.13813 -0.2804,0.1558 -0.0315,0.0509 -0.22417,-0.0663 -0.22417,-0.13628 0,-0.083 0.0365,-0.11604 0.0843,-0.0763 0.0649,0.0538 0.46649,-0.15872 0.49201,-0.26039 0.048,-0.19136 -0.0897,-0.50088 -0.22308,-0.50141 -0.032,-1.2e-4 -0.10508,-0.0313 -0.16235,-0.0692 -0.0573,-0.0379 -0.13814,-0.0691 -0.1797,-0.0692 -0.0416,-1.2e-4 -0.10959,-0.0432 -0.15116,-0.0957 -0.0665,-0.0839 -0.0737,-0.12688 -0.0598,-0.35576 0.0144,-0.23806 0.0555,-0.37293 0.17622,-0.57802 0.0242,-0.0411 0.17503,-0.20144 0.3352,-0.35632 0.16746,-0.16193 0.27743,-0.29359 0.25879,-0.30983 -0.11852,-0.10323 -0.80575,-0.12375 -1.40343,-0.0419 -0.12408,0.017 -0.34362,0.047 -0.48785,0.0667 -0.14424,0.0197 -0.305349,0.0522 -0.358029,0.0722 -0.0527,0.02 -0.1568,0.0364 -0.23138,0.0364 -0.13857,0 -0.6199,0.0893 -0.74497,0.13817 -0.0382,0.0149 -0.22561,0.0874 -0.41651,0.1611 -0.42428,0.16374 -0.8296,0.37408 -0.84282,0.43737 -0.006,0.0272 0.0452,0.0665 0.12148,0.0937 0.19244,0.0686 0.30528,0.15846 0.42874,0.3414 l 0.10989,0.16281 -0.0421,0.24384 c -0.0736,0.42604 -0.27255,0.91919 -0.4451,1.10311 -0.11776,0.12554 -0.0802,0.15753 0.21972,0.18693 0.23316,0.0229 0.27776,0.0238 0.46756,0.01 0.0992,-0.007 0.45816,0.0326 0.47874,0.0532 0.008,0.008 0.11763,0.008 0.24471,0.001 0.12708,-0.007 0.57109,-0.0316 0.986689,-0.0548 z m -0.998229,-0.0999 c -0.0119,-0.0375 -0.005,-0.12734 0.016,-0.19958 0.0207,-0.0722 0.0528,-0.38907 0.0714,-0.70405 0.0185,-0.31499 0.0487,-0.7126 0.067,-0.88359 0.0183,-0.17098 0.0301,-0.31365 0.0261,-0.31704 -0.004,-0.003 -0.16225,-0.0157 -0.35166,-0.0274 -0.34876,-0.0216 -0.50599,-0.0764 -0.50599,-0.1764 0,-0.0784 0.0516,-0.0906 0.23115,-0.0546 0.31655,0.0635 0.66981,0.093 0.70399,0.0588 0.021,-0.021 0.10185,-0.0193 0.22131,0.005 0.10349,0.0208 0.21754,0.0319 0.25343,0.0247 0.0359,-0.007 0.162679,-0.0217 0.281759,-0.0321 0.20239,-0.0177 0.22021,-0.0133 0.27311,0.0675 0.046,0.0702 0.0484,0.0962 0.0129,0.13905 -0.024,0.029 -0.0697,0.0444 -0.10157,0.0343 -0.0318,-0.0101 -0.21042,-0.0236 -0.396879,-0.03 -0.31282,-0.0108 -0.33775,-0.007 -0.32262,0.051 0.009,0.0345 -0.003,0.0787 -0.0265,0.0983 -0.0695,0.0577 -0.11609,0.35552 -0.17659,1.12973 -0.0313,0.40089 -0.0637,0.76403 -0.072,0.80699 -0.0197,0.10188 -0.17271,0.10928 -0.20426,0.01 z m 5.466929,0.0331 c 0.0416,-0.0257 0.0317,-0.0516 -0.056,-0.14562 -0.0646,-0.0693 -0.1318,-0.20048 -0.17047,-0.33291 -0.0351,-0.12022 -0.0743,-0.22503 -0.087,-0.23291 -0.0246,-0.0152 -0.22746,0.41419 -0.26351,0.55785 -0.0118,0.0469 -0.0353,0.0938 -0.0523,0.10429 -0.017,0.0105 -0.0309,0.0319 -0.0309,0.0476 0,0.0391 0.59709,0.0406 0.66009,0.002 z m -7.202759,-0.15413 c 0.0191,-0.0224 0.0607,-0.0504 0.0925,-0.0623 0.0318,-0.0119 0.0786,-0.0605 0.10412,-0.10799 0.0255,-0.0475 0.0985,-0.17734 0.16217,-0.28858 0.12667,-0.22119 0.23147,-0.68473 0.19374,-0.85694 -0.0328,-0.14989 -0.23302,-0.35035 -0.40361,-0.40417 -0.0819,-0.0258 -0.16775,-0.0611 -0.19078,-0.0784 -0.023,-0.0173 -0.0582,-0.0214 -0.0781,-0.009 -0.0442,0.0273 -0.0475,0.27453 -0.006,0.42059 0.0172,0.0598 0.0175,0.13025 8.2e-4,0.16009 -0.0164,0.0293 -0.0396,0.30913 -0.0515,0.62185 -0.0119,0.31272 -0.0278,0.57495 -0.0352,0.58273 -0.007,0.008 0.003,0.0342 0.0234,0.0587 0.0396,0.0477 0.13145,0.0299 0.18807,-0.0365 z m -1.7074,-1.12038 c 0.0806,-0.0529 0.1715,-0.11174 0.20189,-0.13083 0.0674,-0.0423 0.53515,-0.35102 0.65513,-0.43234 0.0477,-0.0323 0.19611,-0.10873 0.32974,-0.16975 0.13363,-0.061 0.26639,-0.12654 0.29503,-0.1456 0.0286,-0.0191 0.10282,-0.0578 0.16487,-0.086 0.27738,-0.12631 0.35053,-0.16378 0.54169,-0.27752 0.1118,-0.0665 0.22924,-0.12094 0.26097,-0.12094 0.0317,0 0.16674,-0.0451 0.30001,-0.10018 0.13327,-0.0551 0.32821,-0.11899 0.4332,-0.14199 0.105,-0.023 0.24557,-0.0552 0.31239,-0.0716 0.0668,-0.0164 0.25217,-0.038 0.41191,-0.0481 0.24588,-0.0155 0.492709,-0.0672 0.559939,-0.11723 0.01,-0.007 0.0178,-0.28096 0.0184,-0.60858 5.9e-4,-0.32762 0.0148,-0.78878 0.0316,-1.0248 l 0.0305,-0.42912 -0.15306,0.0165 c -0.221529,0.0238 -0.501849,0.10963 -0.565259,0.17304 -0.0301,0.0301 -0.16362,0.0731 -0.29663,0.0956 -0.13301,0.0224 -0.26023,0.063 -0.28271,0.09 -0.0225,0.0271 -0.0585,0.0493 -0.08,0.0494 -0.0544,1.8e-4 -0.39817,0.17443 -0.53049,0.26887 -0.0602,0.0429 -0.11977,0.0781 -0.13241,0.0781 -0.0126,0 -0.0742,0.0391 -0.13675,0.0868 -0.0626,0.0477 -0.12612,0.0868 -0.14121,0.0868 -0.0402,0 -0.80465,0.51355 -1.0072,0.67664 -0.0955,0.0769 -0.21322,0.16512 -0.26161,0.19606 -0.0484,0.0309 -0.27815,0.23893 -0.51058,0.46219 -0.41214,0.39589 -0.42774,0.41639 -0.63025,0.82844 -0.1244,0.25311 -0.2171,0.49208 -0.23123,0.59604 -0.013,0.0955 -0.0469,0.20019 -0.0754,0.23275 -0.0434,0.0496 -0.14365,0.4134 -0.14631,0.53086 -4.3e-4,0.0191 0.10901,-0.0782 0.24321,-0.21627 0.13419,-0.13804 0.30997,-0.29423 0.39061,-0.34709 z m 5.230369,23.24374 c 0,-0.0202 0.0156,-0.0271 0.0347,-0.0153 0.0191,0.0118 0.0347,0.0283 0.0347,0.0368 0,0.008 -0.0156,0.0153 -0.0347,0.0153 -0.0191,0 -0.0347,-0.0165 -0.0347,-0.0368 z m -9.996229,-22.31222 c 0,-0.017 0.0256,-0.0408 0.057,-0.0529 0.0476,-0.0183 0.0498,-0.0132 0.0131,0.031 -0.05,0.0602 -0.0701,0.0665 -0.0701,0.0219 z m 18.777649,-5.64517 c 0,-0.009 -0.0312,-0.0161 -0.0694,-0.0161 -0.0393,0 -0.0694,0.0231 -0.0694,0.0533 0,0.0425 0.014,0.0458 0.0694,0.0161 0.0382,-0.0204 0.0694,-0.0444 0.0694,-0.0533 z m 0.10413,-0.0508 c 0,-0.0191 -0.0156,-0.0347 -0.0347,-0.0347 -0.0191,0 -0.0347,0.0156 -0.0347,0.0347 0,0.0191 0.0156,0.0347 0.0347,0.0347 0.0191,0 0.0347,-0.0156 0.0347,-0.0347 z" /><g
         id="g39"
         transform="translate(0,2.4370621)"><g
           id="g38"
           transform="matrix(2.3264893,0,0,2.3264893,-159.83235,-649.64833)"
           style="fill:#faebbc;fill-opacity:1;stroke-width:0.712249"><path
             style="fill:#faebbc;fill-opacity:1;stroke-width:0.712249"
             d="m 133.93049,486.31108 c -0.0682,-0.0375 -0.0712,-0.0516 -0.0466,-0.21305 0.0145,-0.0951 0.0257,-0.23189 0.0251,-0.304 -2.3e-4,-0.0722 0.0107,-0.13262 0.0254,-0.13451 0.0147,-0.002 0.035,-0.0636 0.0454,-0.13709 0.0104,-0.0735 0.0289,-0.18222 0.0412,-0.24156 0.0123,-0.0594 0.0293,-0.20326 0.0377,-0.31983 0.008,-0.11658 0.0321,-0.29286 0.0525,-0.39174 0.0204,-0.0988 0.0529,-0.38655 0.072,-0.63925 0.0191,-0.25269 0.0456,-0.50465 0.0587,-0.5599 0.0131,-0.0552 0.0136,-0.10843 9.8e-4,-0.11817 -0.0127,-0.01 -0.16784,-0.006 -0.3449,0.008 -0.1771,0.0138 -0.37112,0.0106 -0.43125,-0.008 -0.19564,-0.0599 -0.47437,-0.0949 -0.69966,-0.0877 -0.25024,0.008 -0.2545,0.007 -0.23586,-0.07 0.0201,-0.0827 0.42286,-0.12041 0.5931,-0.0556 0.0706,0.0269 0.15565,0.0455 0.18888,0.0414 0.0332,-0.004 0.10282,0.008 0.15469,0.0271 0.1459,0.0537 0.25885,0.0595 0.62348,0.0317 0.46172,-0.0352 0.71974,-0.0483 0.94691,-0.0483 0.10587,5e-5 0.20822,-1.4e-4 0.22744,-3.1e-4 0.0192,-4.6e-4 0.0594,0.006 0.0893,0.014 0.0299,0.008 0.14857,0.0123 0.26376,0.01 0.11517,-0.002 0.28798,-0.006 0.38402,-0.007 0.19211,-0.003 0.3108,0.0534 0.29019,0.13835 -0.011,0.0453 -0.0559,0.0562 -0.25668,0.0623 -0.13383,0.004 -0.27008,-0.002 -0.30279,-0.0143 -0.11851,-0.0431 -0.7727,-0.0735 -1.04281,-0.0484 l -0.27667,0.0256 0.0248,0.10707 c 0.0136,0.0589 0.009,0.11981 -0.0102,0.13549 -0.0193,0.0156 -0.0215,0.0575 -0.005,0.0931 0.0166,0.0356 0.0221,0.13984 0.0132,0.23157 -0.009,0.0917 -0.0245,0.28598 -0.0339,0.43156 -0.0253,0.39218 -0.0561,0.70908 -0.0827,0.85059 -0.013,0.069 -0.0242,0.23312 -0.0248,0.36461 -6.8e-4,0.13149 -0.0189,0.28345 -0.0403,0.33768 -0.0215,0.0542 -0.0567,0.14811 -0.0782,0.20863 -0.0215,0.0606 -0.0693,0.1574 -0.10632,0.2153 -0.0606,0.0948 -0.0745,0.10126 -0.14019,0.0651 z"
             id="path37" /><path
             style="fill:#faebbc;fill-opacity:1;stroke-width:0.712249"
             d="m 129.36545,486.54791 c -0.0154,-0.0285 -0.0229,-0.0694 -0.0165,-0.091 0.006,-0.0216 -0.004,-0.0628 -0.0233,-0.0915 -0.0192,-0.0288 -0.0287,-0.11095 -0.021,-0.18263 0.008,-0.0717 -0.005,-0.25419 -0.0271,-0.40557 -0.0226,-0.15138 -0.0438,-0.35317 -0.0473,-0.44845 -0.003,-0.0953 -0.0245,-0.29268 -0.0468,-0.43867 -0.0223,-0.146 -0.034,-0.32732 -0.026,-0.40294 0.008,-0.0756 0.006,-0.23917 -0.005,-0.36343 -0.0337,-0.39515 -0.0315,-0.92704 0.004,-1.04744 0.0429,-0.14464 0.11828,-0.17168 0.15405,-0.0553 0.0146,0.0475 0.0451,0.092 0.0678,0.0988 0.0486,0.0144 0.0701,0.2271 0.0734,0.72774 l 0.002,0.36276 0.15026,0.0352 c 0.0826,0.0193 0.1828,0.0192 0.22238,2.3e-4 0.0396,-0.019 0.0912,-0.0251 0.1146,-0.0136 0.0235,0.0111 0.12511,0.01 0.22599,-0.003 0.10086,-0.0134 0.27618,-0.0271 0.38959,-0.0304 0.25373,-0.007 0.75674,-0.0953 0.76832,-0.13437 0.005,-0.0158 0.005,-0.10115 -9e-5,-0.18964 -0.0111,-0.20892 0.2275,-1.1409 0.29688,-1.15976 0.0765,-0.0208 0.11467,0.13465 0.0924,0.37651 -0.0115,0.12497 -0.0352,0.43479 -0.0527,0.68845 -0.0349,0.50583 -0.0629,0.73244 -0.17086,1.37936 -0.0396,0.23717 -0.0718,0.48014 -0.0716,0.53993 6.7e-4,0.21229 -0.0469,0.42904 -0.10761,0.49055 -0.0329,0.0332 -0.0797,0.1149 -0.10408,0.18145 -0.0344,0.0948 -0.06,0.11869 -0.11683,0.11046 -0.0675,-0.01 -0.068,-0.0351 -0.008,-0.36442 0.14012,-0.76937 0.18093,-1.01872 0.21103,-1.28793 0.0326,-0.29221 0.0363,-0.51418 0.009,-0.52238 -0.009,-0.003 -0.10464,0.008 -0.21273,0.0249 -0.1081,0.0163 -0.36257,0.04 -0.56546,0.0528 -0.37776,0.0237 -0.51233,0.035 -0.61266,0.0516 -0.0314,0.005 -0.1413,0.005 -0.24418,-6.5e-4 -0.11376,-0.006 -0.19242,0.008 -0.20072,0.0359 -0.007,0.0253 -0.005,0.15065 0.006,0.27862 0.0105,0.12797 0.0159,0.38471 0.0118,0.57052 -0.004,0.1858 0.003,0.39159 0.0162,0.45732 0.0637,0.32166 0.0745,0.41816 0.0682,0.60633 -0.004,0.11193 -0.0188,0.21416 -0.0334,0.22716 -0.0383,0.0342 -0.13775,-0.002 -0.17047,-0.0624 z"
             id="path36" /><path
             style="fill:#faebbc;fill-opacity:1;stroke-width:0.712249"
             d="m 126.82967,486.18126 c -0.003,-0.0207 0.0136,-0.13965 0.0377,-0.26435 0.0557,-0.28812 0.0852,-0.96734 0.0688,-1.58531 -0.003,-0.12526 8.1e-4,-0.23777 0.009,-0.2501 0.008,-0.0123 0.0124,-0.0725 0.009,-0.13379 -0.01,-0.1807 0.005,-0.57042 0.0246,-0.64697 0.0174,-0.0676 0.013,-0.0695 -0.0953,-0.0423 -0.0625,0.0157 -0.20813,0.0262 -0.32374,0.0234 -0.11557,-0.003 -0.28966,1.2e-4 -0.3868,0.007 -0.0971,0.006 -0.20553,-0.009 -0.24085,-0.0345 -0.0354,-0.0255 -0.1081,-0.0376 -0.16173,-0.0269 l -0.0975,0.0193 0.011,-0.0816 c 0.01,-0.0714 0.0275,-0.0802 0.14397,-0.0713 0.0732,0.006 0.14311,0.0175 0.15545,0.0262 0.0123,0.009 0.13352,0.0143 0.26935,0.0121 0.26326,-0.004 0.36359,7.8e-4 0.48384,0.0236 0.0414,0.008 0.12984,-0.003 0.19651,-0.0251 0.0668,-0.0216 0.1967,-0.0252 0.28891,-0.008 0.10461,0.0195 0.19119,0.0119 0.23024,-0.0203 0.0344,-0.0285 0.065,-0.0371 0.0678,-0.0194 0.006,0.0346 0.17746,0.0688 0.28561,0.0569 0.036,-0.004 0.16555,-0.0209 0.28774,-0.0377 0.15703,-0.0216 0.22459,-0.0154 0.23052,0.0211 0.006,0.0364 -0.0488,0.0591 -0.18545,0.0783 -0.26993,0.0373 -0.35128,0.0437 -0.41353,0.0326 -0.15448,-0.0275 -0.30085,-0.025 -0.33316,0.006 -0.0391,0.0372 -0.0871,0.91259 -0.0607,1.10794 0.009,0.0652 -0.0149,0.32722 -0.0528,0.58231 -0.0379,0.25508 -0.0852,0.6185 -0.10526,0.80759 -0.0295,0.278 -0.0531,0.36332 -0.12348,0.4458 -0.0679,0.0788 -0.10128,0.0945 -0.15043,0.0688 -0.0351,-0.0179 -0.0662,-0.0502 -0.0695,-0.0708 z"
             id="path35" /><path
             id="path33"
             style="fill:#faebbc;fill-opacity:1;stroke-width:0.712249"
             d="m 139.35566,486.58831 c -0.018,1.2e-4 -0.0645,-0.0313 -0.10346,-0.0697 -0.0407,-0.0402 -0.0927,-0.0599 -0.12256,-0.0464 -0.0326,0.0148 -0.0636,10e-4 -0.0837,-0.0371 -0.0175,-0.0333 -0.33247,-0.35844 -0.69982,-0.72264 -0.8848,-0.87631 -0.83429,-0.87731 -0.81807,0.0104 0.0102,0.55717 6.8e-4,0.67827 -0.0558,0.71146 -0.0984,0.0578 -0.15089,0.0627 -0.23013,0.0218 -0.0573,-0.0296 -0.0657,-0.0733 -0.0441,-0.24062 0.0143,-0.11245 0.0141,-0.25285 -5.7e-4,-0.31206 -0.0147,-0.0592 -0.0304,-0.43733 -0.035,-0.84023 -0.005,-0.40291 -0.0182,-0.88938 -0.0302,-1.08106 -0.012,-0.19168 -0.0258,-0.55079 -0.0308,-0.79802 -0.007,-0.35067 0.004,-0.44603 0.0483,-0.43371 0.0316,0.009 0.17369,0.0182 0.31587,0.0211 0.30846,0.006 0.79477,0.0763 1.04093,0.1498 0.56179,0.16782 0.70672,0.36779 0.72973,1.00692 0.0109,0.30226 0.003,0.33987 -0.11993,0.53898 -0.17464,0.28393 -0.37684,0.39723 -0.83667,0.46854 -0.1608,0.0249 -0.2923,0.056 -0.29222,0.069 9e-5,0.0127 0.26654,0.28941 0.5921,0.61419 0.51205,0.51113 0.60549,0.59354 0.69438,0.61117 0.13685,0.0276 0.17696,0.0733 0.17335,0.19742 -0.003,0.10637 -0.0337,0.16016 -0.0916,0.16052 z m -0.39365,-2.2695 c 0.0619,-0.14442 0.0676,-0.2276 0.0395,-0.57689 -0.0252,-0.31349 -0.14242,-0.47166 -0.41734,-0.56331 -0.10098,-0.0337 -0.19543,-0.0565 -0.21001,-0.0508 -0.0143,0.006 -0.0407,-0.004 -0.0579,-0.0206 -0.0173,-0.0171 -0.12082,-0.0424 -0.23001,-0.0564 -0.1092,-0.0139 -0.2099,-0.0365 -0.22375,-0.0502 -0.0441,-0.0436 -0.28231,-0.0154 -0.33677,0.0397 -0.0748,0.0758 -0.0915,0.37971 -0.0541,0.98353 0.0322,0.51966 0.0339,0.52651 0.15803,0.64906 0.12139,0.11984 0.13508,0.12351 0.41969,0.11557 0.50437,-0.0142 0.77761,-0.15483 0.9127,-0.46972 z" /><path
             style="fill:#faebbc;fill-opacity:1;stroke-width:0.712249"
             d="m 122.07468,486.52847 c 0.004,-0.0158 -0.0168,-0.0769 -0.0461,-0.1358 -0.0305,-0.0605 -0.0427,-0.16336 -0.0289,-0.23681 0.033,-0.17635 0.0564,-0.78209 0.0326,-0.84292 -0.0104,-0.0271 -0.003,-0.0841 0.0174,-0.1267 0.0201,-0.0426 0.0289,-0.0904 0.0195,-0.10605 -0.009,-0.0157 -0.004,-0.11681 0.0117,-0.22472 0.0159,-0.10784 0.0205,-0.19113 0.0103,-0.18501 -0.0102,0.006 -0.0113,-0.10705 -0.002,-0.25156 0.009,-0.1445 -0.003,-0.41074 -0.0258,-0.59167 -0.0231,-0.18095 -0.0309,-0.33564 -0.0173,-0.34378 0.0136,-0.008 0.0232,-0.10046 0.0215,-0.20518 -0.002,-0.10473 0.002,-0.20236 0.008,-0.21701 0.006,-0.0151 0.007,-0.0816 0.002,-0.14888 -0.005,-0.0732 0.0218,-0.15823 0.0666,-0.21199 0.10218,-0.12251 0.12003,-0.12926 0.16098,-0.061 0.0215,0.0358 0.0967,0.061 0.19015,0.064 0.0851,0.003 0.26325,0.034 0.39597,0.0697 0.13277,0.0357 0.2912,0.0621 0.35216,0.0587 0.0645,-0.004 0.11449,0.0144 0.11951,0.0429 0.008,0.0476 0.0743,0.0563 0.499,0.0658 0.10154,0.002 0.24647,0.0162 0.32206,0.0308 0.40812,0.0793 0.55502,0.10266 0.62549,0.0996 0.0746,-0.003 0.0755,2.1e-4 0.0202,0.0806 -0.0508,0.0739 -0.0734,0.0817 -0.18719,0.0651 -0.0712,-0.0104 -0.16462,-0.0203 -0.20768,-0.022 -0.14712,-0.006 -0.51756,-0.0441 -0.7489,-0.0775 -0.12705,-0.0184 -0.25453,-0.0193 -0.28317,-0.002 -0.0286,0.0172 -0.12275,0.01 -0.20913,-0.016 -0.0864,-0.026 -0.21239,-0.0414 -0.28004,-0.0343 -0.0677,0.007 -0.17868,0.0112 -0.24674,0.009 -0.2427,-0.008 -0.31581,0.0858 -0.29424,0.37584 0.0197,0.26513 0.0184,0.35322 -0.005,0.36747 -0.0132,0.008 -0.003,0.10201 0.0227,0.20911 0.0257,0.10706 0.0337,0.2175 0.0177,0.24539 -0.0435,0.076 0.0893,0.19626 0.16594,0.15027 0.0327,-0.0197 0.15734,-0.0227 0.27694,-0.007 0.20612,0.0274 0.40806,0.006 0.61216,-0.0634 0.1585,-0.0543 0.39136,0.0553 0.26472,0.12456 -0.0878,0.048 -0.28231,0.10019 -0.34269,0.0919 -0.0342,-0.005 -0.0841,0.003 -0.11069,0.0179 -0.0265,0.0147 -0.14647,0.0368 -0.2663,0.0494 -0.21755,0.0229 -0.31969,0.0484 -0.50262,0.12539 -0.087,0.0367 -0.0979,0.0634 -0.10643,0.26038 -0.005,0.12077 -0.0126,0.23056 -0.0165,0.244 -0.0169,0.059 -0.0137,0.29024 0.007,0.50181 0.0123,0.12621 0.007,0.29452 -0.011,0.37403 l -0.0333,0.14455 0.13746,0.0156 c 0.0756,0.009 0.2576,0.0454 0.40445,0.0819 0.14686,0.0365 0.35055,0.0689 0.45266,0.0721 0.10211,0.003 0.1981,0.0109 0.21332,0.0172 0.0699,0.0286 0.49065,-0.0198 0.6597,-0.0759 0.16198,-0.0537 0.19344,-0.0527 0.22927,0.007 0.0381,0.0635 0.0305,0.0745 -0.0922,0.13308 -0.0737,0.0349 -0.18659,0.0668 -0.25113,0.0705 -0.0646,0.004 -0.15898,0.0316 -0.2098,0.0619 -0.084,0.0502 -0.43713,0.0937 -0.50499,0.0622 -0.0158,-0.007 -0.2234,-0.035 -0.46218,-0.062 -0.2388,-0.027 -0.48374,-0.0558 -0.54432,-0.064 -0.0606,-0.008 -0.12654,-0.005 -0.14658,0.006 -0.0426,0.0249 -0.16599,-0.0409 -0.15549,-0.0829 z"
             id="path32" /><path
             id="path28"
             style="fill:#faebbc;fill-opacity:1;stroke-width:0.712249"
             d="m 143.16155,487.70382 c -0.0785,0.0299 -0.12141,10e-4 -0.13986,-0.0943 -0.007,-0.0387 -0.0558,-0.14124 -0.10738,-0.22779 -0.0516,-0.0866 -0.0982,-0.21527 -0.1036,-0.28596 -0.0114,-0.15002 -0.13328,-0.55297 -0.17813,-0.58922 -0.017,-0.0137 -0.0312,-0.0543 -0.0316,-0.0902 -4.8e-4,-0.036 -0.0331,-0.11531 -0.0724,-0.17638 -0.0393,-0.0611 -0.0769,-0.14764 -0.0834,-0.19239 -0.007,-0.0447 -0.0363,-0.19152 -0.0663,-0.32615 -0.0299,-0.13463 -0.0774,-0.38384 -0.10544,-0.55379 -0.0922,-0.55831 -0.0876,-0.54863 -0.2536,-0.53566 -0.0578,0.005 -0.2269,-0.003 -0.37567,-0.016 -0.34224,-0.0307 -0.38706,-0.0286 -0.5046,0.0232 -0.0875,0.0386 -0.0992,0.0593 -0.12971,0.22988 -0.0184,0.10314 -0.0742,0.37555 -0.12386,0.6054 -0.13807,0.63897 -0.18108,0.88891 -0.18387,1.06846 -0.001,0.0904 -0.0211,0.20348 -0.0437,0.25134 -0.0226,0.0479 -0.0379,0.18232 -0.034,0.29877 0.005,0.14112 -0.0138,0.23763 -0.0556,0.28934 -0.0345,0.0427 -0.0769,0.12091 -0.0942,0.17386 -0.0437,0.13365 -0.13621,0.14357 -0.12732,0.0137 0.004,-0.0514 -0.0199,-0.11543 -0.052,-0.14228 -0.0683,-0.0577 -0.0527,-0.47003 0.0215,-0.56191 0.0262,-0.0324 0.0365,-0.15397 0.0234,-0.2774 -0.0189,-0.17782 -0.009,-0.2379 0.0541,-0.31547 0.0537,-0.0665 0.0835,-0.16772 0.0971,-0.33081 0.0198,-0.2363 0.0586,-0.44873 0.17967,-0.98411 0.0377,-0.16679 0.0493,-0.31205 0.0272,-0.34204 -0.0248,-0.0335 -0.018,-0.0774 0.0188,-0.12287 0.0485,-0.06 0.12669,-0.35536 0.15145,-0.57222 0.0129,-0.11279 0.11512,-0.51557 0.16323,-0.64303 0.0262,-0.0693 0.0464,-0.18487 0.045,-0.25682 -0.001,-0.0719 0.0189,-0.19154 0.0453,-0.26583 0.0563,-0.15871 0.10824,-0.57945 0.0776,-0.6274 -0.0298,-0.0465 0.083,-0.23157 0.14932,-0.24491 0.0387,-0.008 0.0597,-0.0476 0.0716,-0.13562 l 0.0167,-0.1246 0.0753,0.0403 c 0.0419,0.0223 0.0756,0.0676 0.0761,0.10162 3.8e-4,0.0337 0.0179,0.0752 0.0389,0.0921 0.0472,0.0381 0.20054,0.5697 0.26816,0.92973 0.0278,0.14782 0.11556,0.47409 0.19509,0.72496 0.0795,0.25087 0.14921,0.51253 0.15487,0.58147 0.0221,0.26998 0.0271,0.2755 0.23583,0.264 0.13803,-0.008 0.20817,0.008 0.2556,0.0562 0.0961,0.098 0.0339,0.16937 -0.15738,0.18043 -0.0917,0.005 -0.17605,0.0213 -0.18748,0.0355 -0.0265,0.0328 0.0601,0.634 0.12369,0.85885 0.0265,0.094 0.0481,0.20039 0.0479,0.23653 -5.6e-4,0.0845 0.17532,0.54955 0.24064,0.63634 0.0275,0.0365 0.0503,0.0948 0.0508,0.12962 4.2e-4,0.0348 0.0161,0.0756 0.0346,0.0906 0.0187,0.0151 0.0343,0.0587 0.0348,0.0971 5.2e-4,0.0383 0.0257,0.0778 0.056,0.0876 0.0303,0.01 0.0401,0.0194 0.0217,0.0214 -0.0412,0.004 -6.5e-4,0.19672 0.0502,0.23783 0.0203,0.0164 0.0382,0.071 0.0396,0.12122 0.001,0.0503 0.0233,0.1081 0.0487,0.12856 0.0588,0.0475 0.14446,0.33608 0.11129,0.37492 -0.0138,0.0162 -0.0547,0.0406 -0.0908,0.0544 z m -1.01648,-3.37633 c -0.0149,-0.012 -0.0312,-0.0603 -0.0364,-0.10749 -0.014,-0.12793 -0.0915,-0.48675 -0.10803,-0.50009 -0.008,-0.006 -0.0479,-0.12406 -0.0888,-0.26144 -0.0409,-0.13736 -0.0854,-0.27873 -0.0987,-0.31409 -0.0134,-0.0353 -0.0297,-0.0941 -0.0362,-0.13043 -0.0327,-0.18237 -0.21562,-0.80941 -0.24244,-0.83108 -0.0577,-0.0466 -0.16599,0.35989 -0.20048,0.75285 -0.0121,0.13747 -0.0284,0.2749 -0.0363,0.30538 -0.008,0.0304 -0.0191,0.10455 -0.025,0.16468 -0.0185,0.18864 -0.0673,0.56195 -0.0895,0.68484 -0.0117,0.0649 -0.0192,0.15766 -0.0164,0.20627 0.005,0.086 0.009,0.088 0.15129,0.0728 0.0805,-0.009 0.21375,-10e-4 0.29614,0.0161 0.16209,0.0342 0.50724,0.0261 0.53853,-0.0126 0.0106,-0.0131 0.007,-0.0337 -0.008,-0.0457 z" /><path
             id="path26"
             style="fill:#faebbc;fill-opacity:1;stroke-width:0.712249"
             d="m 144.10651,486.9565 c -0.0238,-0.003 -0.043,-0.0114 -0.0427,-0.0197 3.5e-4,-0.009 4.8e-4,-0.24198 3.5e-4,-0.51945 -3.1e-4,-0.73281 1e-5,-0.75126 0.0259,-1.47667 0.013,-0.36481 0.0152,-0.75898 0.005,-0.87594 -0.0104,-0.11692 -0.0171,-0.33376 -0.0148,-0.48181 0.002,-0.14803 7.6e-4,-0.29768 -0.003,-0.33248 -0.004,-0.0348 -0.002,-0.0886 0.005,-0.11937 0.007,-0.0308 0.008,-0.18867 0.001,-0.35075 -0.006,-0.16209 0.004,-0.3155 0.0238,-0.34093 0.0371,-0.0488 0.39499,-0.0809 0.44747,-0.04 0.017,0.0132 0.0945,0.0256 0.17229,0.0276 0.13468,0.003 0.15751,0.0168 0.47435,0.2769 0.30333,0.24898 0.34275,0.29245 0.44353,0.49002 0.14503,0.28424 0.13396,0.50523 -0.0477,0.95276 -0.10173,0.25073 -0.31925,0.56134 -0.42516,0.60739 -0.0376,0.0164 -0.13958,0.0366 -0.22662,0.045 -0.087,0.008 -0.26319,0.0254 -0.39143,0.0379 l -0.23317,0.0227 0.0106,0.12751 c 0.006,0.0702 -0.003,0.34417 -0.0207,0.60895 -0.0172,0.26477 -0.0279,0.54633 -0.0237,0.62567 0.004,0.0794 -0.0133,0.23779 -0.0388,0.3521 -0.0255,0.11432 -0.04,0.22502 -0.0322,0.24602 0.0189,0.0507 -0.0547,0.14253 -0.10901,0.13683 z m 1.35442,-2.87216 c 0.20696,-0.54699 0.16359,-0.77248 -0.22088,-1.14864 -0.38015,-0.37187 -0.63905,-0.42395 -0.88262,-0.17734 l -0.12237,0.12386 0.0518,0.60919 c 0.0285,0.33506 0.0454,0.73173 0.0375,0.8815 -0.0169,0.32279 0.007,0.41517 0.0967,0.37803 0.034,-0.014 0.12416,-0.0187 0.20043,-0.0105 0.17894,0.0194 0.53463,-0.1474 0.66202,-0.3104 0.0497,-0.0636 0.12953,-0.2192 0.17743,-0.34572 z" /><path
             style="fill:#faebbc;fill-opacity:1;stroke-width:0.712249"
             d="m 119.06771,486.06125 c 10e-6,-0.0402 0.0202,-0.14797 0.0449,-0.2396 0.0246,-0.0916 0.041,-0.21187 0.0362,-0.2672 -0.005,-0.0553 -3.2e-4,-0.13611 0.01,-0.17956 0.0102,-0.0435 0.0172,-0.22634 0.0156,-0.40644 -0.002,-0.18012 0.001,-0.35337 0.006,-0.38503 0.0281,-0.1851 0.0267,-0.47216 -0.003,-0.56235 -0.0187,-0.0575 -0.0256,-0.12282 -0.0156,-0.14517 0.0212,-0.0468 0.004,-0.34138 -0.0295,-0.51772 -0.0184,-0.0956 -0.0242,-0.5216 -0.008,-0.57361 0.002,-0.007 0.11683,-0.022 0.25508,-0.0345 0.16765,-0.0152 0.28508,-0.004 0.35265,0.0324 0.0557,0.0303 0.11701,0.0502 0.13638,0.0444 0.0305,-0.009 0.26298,0.14039 0.41255,0.26578 0.0276,0.0231 0.10629,0.081 0.17502,0.12864 0.0687,0.0476 0.16404,0.14371 0.21187,0.21348 0.0479,0.0697 0.0977,0.12338 0.11097,0.11909 0.0259,-0.008 0.19204,0.31843 0.20956,0.41227 0.006,0.0314 0.0261,0.061 0.0453,0.0656 0.0425,0.0104 0.13696,0.35215 0.14469,0.52371 0.003,0.0692 0.006,0.20786 0.006,0.30809 4.3e-4,0.10016 0.003,0.20165 0.005,0.22539 0.002,0.0237 -0.003,0.0568 -0.0113,0.0736 -0.009,0.0168 -0.007,0.0566 0.003,0.0888 0.0104,0.032 -0.0458,0.18766 -0.12501,0.34573 -0.0792,0.15808 -0.13943,0.30131 -0.13392,0.31829 0.005,0.0169 -0.0145,0.0564 -0.0445,0.0876 -0.03,0.0312 -0.0579,0.0465 -0.0619,0.034 -0.004,-0.0125 -0.026,0.008 -0.0487,0.0464 -0.0237,0.0395 -0.13743,0.11051 -0.26555,0.16564 -0.50502,0.21715 -0.78827,0.32261 -0.90873,0.33814 -0.11873,0.0153 -0.12563,0.011 -0.10261,-0.0642 0.0205,-0.0666 0.0692,-0.0969 0.28152,-0.17513 0.47433,-0.17471 0.94723,-0.50127 1.08923,-0.75203 0.082,-0.14475 0.15002,-0.41975 0.12385,-0.50042 -0.0115,-0.0356 -0.0101,-0.0776 0.003,-0.0932 0.0133,-0.0157 0.0237,-0.13084 0.0231,-0.25595 -10e-4,-0.27548 -0.17505,-0.88089 -0.26719,-0.93112 -0.0312,-0.017 -0.0623,-0.0455 -0.0691,-0.0634 -0.0395,-0.10213 -0.15069,-0.26128 -0.17723,-0.25267 -0.017,0.006 -0.0697,-0.0349 -0.11682,-0.0898 -0.0472,-0.0549 -0.10046,-0.0951 -0.11834,-0.0893 -0.0179,0.006 -0.0386,-0.008 -0.0459,-0.0308 -0.0202,-0.0622 -0.40873,-0.26787 -0.44941,-0.23786 -0.0438,0.0323 -0.093,0.2686 -0.0755,0.36229 0.0194,0.10393 -0.005,0.49027 -0.0336,0.52353 -0.0136,0.016 -0.014,0.0621 -9.4e-4,0.10239 0.013,0.0402 0.0129,0.10915 -3.9e-4,0.15305 -0.0133,0.0439 -0.0191,0.13041 -0.0129,0.19224 0.006,0.0618 -0.004,0.13704 -0.0234,0.16712 -0.019,0.0302 -0.0277,0.076 -0.0192,0.10203 0.008,0.026 0.007,0.12198 -0.004,0.21322 -0.0104,0.0913 -0.0104,0.22029 8e-5,0.28667 0.0105,0.0664 0.007,0.20808 -0.008,0.31483 -0.0146,0.10671 -0.0232,0.20422 -0.0192,0.21659 0.004,0.0124 -0.0278,0.14406 -0.0708,0.29264 l -0.0781,0.27014 -0.13165,0.0113 c -0.0724,0.006 -0.14291,0.0145 -0.15666,0.0186 -0.0294,0.009 -0.0667,-0.11245 -0.067,-0.21631 z"
             id="path25" /></g><g
           id="g37"
           transform="matrix(1.8170682,0,0,1.8170682,-86.909533,-401.6707)"
           style="fill:#faebbc;fill-opacity:1;stroke-width:0.911931"><path
             style="fill:#faebbc;fill-opacity:1;stroke-width:0.911931"
             d="m 120.52626,492.20436 c -0.24473,0.13827 -0.38488,0.18232 -0.52047,0.16355 -0.30349,-0.042 -0.67881,-0.10885 -0.76282,-0.1358 -0.11632,-0.0374 -0.49919,-0.0553 -0.59525,-0.0279 -0.0489,0.0139 -0.0762,0.003 -0.0847,-0.0346 -0.007,-0.0304 -0.0251,-0.0723 -0.0404,-0.0932 -0.046,-0.0629 -0.0135,-0.34166 0.0449,-0.38449 0.0303,-0.0216 0.0877,-0.0309 0.12833,-0.0198 0.0406,0.0111 0.10599,0.0233 0.14507,0.0271 0.21132,0.0207 0.40259,0.0578 0.49289,0.0955 0.056,0.0234 0.12857,0.027 0.16129,0.008 0.033,-0.0187 0.0799,-0.0143 0.1049,0.0105 0.0698,0.0693 0.82853,0.0743 0.89728,0.006 0.11218,-0.11146 0.11891,-0.33081 0.0177,-0.57543 -0.0524,-0.12653 -0.12011,-0.25511 -0.15049,-0.28569 -0.0739,-0.0744 -0.21681,-0.0966 -0.35067,-0.0545 -0.0602,0.019 -0.12361,0.0203 -0.14088,0.003 -0.0172,-0.0173 -0.0931,-0.041 -0.16845,-0.0526 -0.0979,-0.0151 -0.19007,-0.0649 -0.32193,-0.17382 -0.17975,-0.14843 -0.18731,-0.16072 -0.27543,-0.44584 -0.0989,-0.32007 -0.11382,-0.43214 -0.0717,-0.53991 0.0153,-0.0388 0.0345,-0.097 0.0429,-0.12918 0.0524,-0.20126 0.0843,-0.24325 0.3187,-0.41996 0.12929,-0.0974 0.25165,-0.18109 0.272,-0.18581 0.0204,-0.005 0.0725,-0.0416 0.11575,-0.0819 0.1442,-0.13341 0.96478,-0.24032 1.06603,-0.13841 0.0321,0.0324 -0.0239,0.30755 -0.072,0.35288 -0.012,0.0113 -0.10071,0.005 -0.19719,-0.0145 -0.19613,-0.0393 -0.50504,0.0409 -0.81278,0.21112 -0.30685,0.16968 -0.45604,0.48748 -0.37181,0.79175 0.0489,0.17663 0.12951,0.25847 0.27144,0.27605 0.0613,0.007 0.11739,0.0197 0.12469,0.027 0.007,0.007 0.0923,0.0295 0.18898,0.0492 0.1956,0.0399 0.26399,0.0774 0.56486,0.30971 0.26563,0.20507 0.35261,0.32596 0.40976,0.56951 0.0361,0.15396 0.0302,0.24034 -0.0275,0.3999 -0.0926,0.25608 -0.18555,0.36972 -0.40329,0.49273 z"
             id="path22" /><path
             style="fill:#faebbc;fill-opacity:1;stroke-width:0.911931"
             d="m 138.45076,492.03774 c 0.006,-0.0231 0.0335,-0.0695 0.061,-0.10328 0.0275,-0.0338 0.0493,-0.15223 0.0485,-0.26331 -8e-4,-0.11106 0.0203,-0.25608 0.0469,-0.32225 0.0266,-0.0662 0.0443,-0.13018 0.0394,-0.14223 -0.005,-0.012 -0.003,-0.17664 0.004,-0.36571 0.008,-0.2291 -0.004,-0.36635 -0.0369,-0.41146 -0.0277,-0.0379 -0.0353,-0.0735 -0.0169,-0.081 0.0181,-0.007 0.0259,-0.0303 0.0175,-0.051 -0.008,-0.0208 -0.005,-0.0686 0.008,-0.1063 0.0351,-0.10291 0.006,-0.53316 -0.0436,-0.63649 -0.11552,-0.24233 -0.0132,-0.31824 0.28445,-0.21113 0.10862,0.039 0.23211,0.0732 0.2744,0.0758 0.0423,0.003 0.16354,0.0196 0.26943,0.0378 0.10584,0.0182 0.23389,0.0272 0.28443,0.02 0.11152,-0.0158 0.42359,0.0203 0.47017,0.0543 0.0185,0.0135 0.0158,0.0669 -0.006,0.11859 l -0.0396,0.094 -0.11246,-0.0474 c -0.0619,-0.0261 -0.2471,-0.0405 -0.41168,-0.0321 -0.16457,0.008 -0.35355,-0.002 -0.41998,-0.0237 -0.16086,-0.0521 -0.19091,-0.0338 -0.16493,0.10066 0.0212,0.10963 0.0359,0.40288 0.0318,0.63341 -0.001,0.0623 0.014,0.18259 0.0337,0.26732 0.0197,0.0847 0.0326,0.18628 0.0287,0.22563 -0.0102,0.10399 0.11448,0.15193 0.28238,0.10853 0.17697,-0.0457 0.22062,-0.0266 0.22347,0.098 0.002,0.0998 -0.0911,0.17441 -0.15755,0.12583 -0.0184,-0.0134 -0.10069,-0.0302 -0.18285,-0.0372 l -0.14945,-0.0128 -0.0277,0.21595 c -0.0153,0.11879 -0.0231,0.22729 -0.0174,0.24114 0.006,0.0138 -0.005,0.0944 -0.0226,0.17904 -0.038,0.17794 -0.0194,0.20079 0.15419,0.18905 0.07,-0.005 0.13255,0.005 0.13918,0.021 0.007,0.0163 0.0393,0.0186 0.0727,0.005 0.0692,-0.0281 0.18866,-0.0203 0.37664,0.0248 0.0718,0.0172 0.16003,0.0192 0.19626,0.004 0.10313,-0.042 0.25795,-0.024 0.28029,0.0325 0.0415,0.10468 0.006,0.16014 -0.11742,0.18206 -0.10256,0.0183 -0.20341,0.0128 -0.58923,-0.0323 -0.32763,-0.0383 -0.78966,-0.0241 -0.86007,0.0264 -0.0281,0.0201 -0.0718,0.0324 -0.0972,0.0268 -0.0596,-0.0127 -0.16798,-0.17384 -0.15377,-0.22834 z"
             id="path21" /><path
             style="fill:#faebbc;fill-opacity:1;stroke-width:0.911931"
             d="m 123.40557,491.98634 c -0.22956,-0.0317 -0.57752,-0.0582 -0.80269,-0.0612 -0.0535,-6.8e-4 -0.11042,-0.014 -0.12637,-0.0295 -0.0159,-0.0155 -0.0528,-0.0216 -0.082,-0.0136 -0.0292,0.008 -0.0861,-0.002 -0.12655,-0.0229 -0.0622,-0.0318 -0.0661,-0.0561 -0.026,-0.15748 0.0261,-0.066 0.045,-0.26723 0.0419,-0.44719 -0.005,-0.31729 0.009,-0.43986 0.0646,-0.56313 0.0148,-0.0325 0.008,-0.0906 -0.0162,-0.12906 -0.0237,-0.0385 -0.0415,-0.14837 -0.0397,-0.24426 0.004,-0.21772 -0.0368,-0.6737 -0.0632,-0.7014 -0.0365,-0.0384 -0.0384,-0.26533 -0.003,-0.37117 0.0557,-0.16693 0.14533,-0.20755 0.34615,-0.15685 0.0987,0.0249 0.25993,0.0474 0.35817,0.0499 0.21143,0.005 0.24857,0.009 0.43133,0.0379 0.0766,0.0123 0.24355,0.0175 0.37101,0.0117 0.1275,-0.006 0.2457,0.003 0.26273,0.0196 0.0414,0.0404 -0.0206,0.14323 -0.13944,0.23115 -0.0985,0.0729 -0.15441,0.0588 -0.15564,-0.0394 -4.9e-4,-0.0397 -0.0218,-0.0477 -0.0794,-0.0294 -0.0433,0.0137 -0.12937,0.009 -0.19135,-0.009 -0.062,-0.0188 -0.14981,-0.0171 -0.19522,0.004 -0.0454,0.0211 -0.0974,0.0239 -0.11541,0.006 -0.018,-0.0176 -0.11739,-0.03 -0.22077,-0.0275 l -0.18795,0.005 -0.0114,0.24364 c -0.0171,0.36613 -0.01,0.76628 0.0145,0.7883 0.0119,0.0107 0.11215,0.005 0.22285,-0.0129 0.11073,-0.0179 0.23513,-0.028 0.27648,-0.0225 0.0413,0.005 0.0909,-0.006 0.11014,-0.0258 0.0473,-0.0485 0.10577,0.0147 0.1072,0.11575 8.8e-4,0.071 -0.008,0.0814 -0.0609,0.0739 -0.20801,-0.0281 -0.35089,-0.0212 -0.5009,0.0241 l -0.17009,0.0515 -0.0373,0.20437 c -0.0205,0.11241 -0.0404,0.28519 -0.0442,0.38397 -0.004,0.0988 -0.0204,0.21732 -0.037,0.26342 -0.0166,0.0461 -0.0149,0.12323 0.004,0.17135 0.0294,0.0758 0.0587,0.0912 0.21861,0.11547 0.10153,0.0154 0.20553,0.0184 0.23101,0.007 0.0255,-0.0118 0.0574,-0.0105 0.0711,0.003 0.0221,0.0216 0.12337,0.0307 0.42655,0.0382 0.15473,0.004 0.18592,0.021 0.18694,0.10259 0.002,0.12811 -0.0549,0.14861 -0.31245,0.11305 z"
             id="path5" /><path
             style="fill:#faebbc;fill-opacity:1;stroke-width:0.911931"
             d="m 135.5443,492.02343 c 0.0134,-0.0136 0.0133,-0.0357 -3.1e-4,-0.0491 -0.0254,-0.0252 -0.0324,-0.49114 -0.0175,-1.17589 0.005,-0.21366 -0.005,-0.41483 -0.0213,-0.44705 -0.0163,-0.0322 -0.0161,-0.13827 4.6e-4,-0.23561 0.0167,-0.0974 0.0249,-0.22231 0.0185,-0.27763 -0.006,-0.0553 0.005,-0.11783 0.0262,-0.13883 0.0304,-0.0307 0.0391,-0.0253 0.0442,0.0272 0.003,0.036 0.0263,0.07 0.0508,0.0757 0.0659,0.0152 -3.8e-4,-0.16108 -0.0862,-0.22922 -0.0399,-0.0311 -0.0582,-0.0605 -0.0415,-0.0644 0.0167,-0.004 0.0283,-0.0621 0.0258,-0.12901 -0.0108,-0.27884 0.11646,-0.44743 0.28954,-0.38366 0.15032,0.0555 0.16976,0.0983 0.16236,0.36009 -0.0113,0.40069 -0.0135,0.42191 -0.0767,0.71851 -0.0331,0.15561 -0.0564,0.44032 -0.0517,0.63273 0.005,0.19241 -0.008,0.38887 -0.0273,0.43659 -0.0206,0.0501 -0.0182,0.0786 0.006,0.0674 0.024,-0.0114 0.0319,0.0682 0.0184,0.18925 -0.0411,0.36947 -0.0487,0.36046 0.29507,0.34719 0.16667,-0.006 0.31383,-0.0221 0.32703,-0.0349 0.0298,-0.0288 0.6932,-0.0236 0.72271,0.006 0.0448,0.0444 0.007,0.1562 -0.0673,0.20146 -0.0498,0.0301 -0.0942,0.0294 -0.12581,-0.002 -0.0268,-0.0266 -0.0576,-0.0395 -0.0683,-0.0287 -0.0108,0.0109 -0.10567,0.0234 -0.21093,0.028 -0.25795,0.0112 -0.47485,0.0451 -0.49149,0.0769 -0.007,0.0145 -0.0255,0.0144 -0.0401,-2e-5 -0.0334,-0.0331 -0.15873,-0.0335 -0.19119,-7.5e-4 -0.0135,0.0136 -0.0511,0.0111 -0.0835,-0.005 -0.0659,-0.0338 -0.35328,0.0358 -0.35304,0.0855 8e-5,0.0175 -0.013,0.0188 -0.0286,0.003 -0.0158,-0.0157 -0.0178,-0.0396 -0.004,-0.0532 z"
             id="path4" /><path
             style="fill:#faebbc;fill-opacity:1;stroke-width:0.911931"
             d="m 133.12658,492.01584 c 0.0125,-0.15886 0.0125,-0.30837 1.1e-4,-0.3322 -0.034,-0.0651 -0.10314,-1.04521 -0.0794,-1.12389 0.0116,-0.0375 0.007,-0.13095 -0.0102,-0.20741 -0.0519,-0.23335 -0.10023,-0.78023 -0.0732,-0.82845 0.0236,-0.0421 -0.0611,-0.479 -0.097,-0.50013 -0.009,-0.005 -0.15205,-0.008 -0.31822,-0.005 -0.26897,0.004 -0.4004,-0.0318 -0.30474,-0.0822 0.0185,-0.01 0.0129,-0.0299 -0.013,-0.0451 -0.0293,-0.0172 -0.0309,-0.0541 -0.004,-0.0994 0.0309,-0.0525 0.0948,-0.0747 0.23656,-0.0823 0.10685,-0.006 0.20941,-0.001 0.22797,0.01 0.0185,0.0109 0.0577,0.0137 0.087,0.006 0.0596,-0.0155 0.46712,0.0386 0.51898,0.0689 0.0184,0.0107 0.24351,0.0352 0.50033,0.0544 0.41438,0.031 0.54726,0.0716 0.43255,0.13204 -0.0199,0.0105 -0.015,0.0314 0.0106,0.0465 0.0822,0.0484 -0.0154,0.1503 -0.12442,0.12997 -0.0549,-0.0103 -0.13399,-0.0221 -0.17582,-0.0263 -0.0418,-0.004 -0.19348,-0.0279 -0.33708,-0.0525 l -0.26107,-0.0448 -0.0138,0.19757 c -0.0168,0.24014 0.005,0.63411 0.0408,0.73305 0.0144,0.0398 0.0281,0.16602 0.0305,0.28044 0.002,0.11443 0.006,0.2442 0.008,0.28839 0.002,0.0442 -0.003,0.12528 -0.0121,0.1802 -0.009,0.0549 0.005,0.12312 0.0307,0.15156 0.0541,0.0603 0.12159,0.54099 0.0847,0.60365 -0.0138,0.0234 -0.0175,0.12276 -0.008,0.22068 0.0179,0.18779 -0.0157,0.57246 -0.0559,0.64078 -0.0256,0.0434 -0.22553,0.0445 -0.2985,0.002 -0.0257,-0.0151 -0.0349,-0.14813 -0.0218,-0.31508 z"
             id="path3" /><path
             style="fill:#faebbc;fill-opacity:1;stroke-width:0.911931"
             d="m 127.26436,492.29579 c -0.0146,-0.0336 -0.0472,-0.0595 -0.0724,-0.0576 -0.0342,0.003 -0.0393,-0.0177 -0.02,-0.0796 0.0286,-0.0919 0.005,-0.19247 -0.16046,-0.69897 -0.0622,-0.18975 -0.10532,-0.35834 -0.0958,-0.37467 0.009,-0.0163 -6.8e-4,-0.0815 -0.0226,-0.14485 -0.0221,-0.0633 -0.0777,-0.26902 -0.12416,-0.457 -0.0872,-0.35306 -0.45725,-1.26361 -0.52434,-1.28996 -0.0195,-0.008 -0.0441,0.0301 -0.055,0.0831 -0.0109,0.0532 -0.0506,0.19733 -0.0883,0.32005 -0.094,0.30579 -0.0982,0.32299 -0.0848,0.35365 0.006,0.0148 -0.0173,0.0974 -0.0527,0.18336 -0.0354,0.0861 -0.057,0.17336 -0.048,0.19404 0.009,0.0207 0.003,0.0647 -0.0142,0.098 -0.0511,0.10118 -0.007,0.13236 0.17791,0.1258 0.0973,-0.003 0.25114,0.008 0.34184,0.0248 0.0907,0.017 0.19393,0.0292 0.2294,0.027 0.0355,-0.002 0.0709,0.0107 0.0787,0.0288 0.0222,0.051 -0.0977,0.0886 -0.24047,0.0754 -0.0711,-0.007 -0.2085,-0.008 -0.30519,-0.003 -0.12303,0.006 -0.18353,-0.009 -0.20156,-0.05 -0.0371,-0.0854 -0.11999,-0.0863 -0.13077,-10e-4 -0.0128,0.10054 -0.14015,0.57783 -0.17117,0.64121 -0.0141,0.0289 -0.0375,0.12583 -0.052,0.21539 -0.0504,0.31232 -0.16052,0.5287 -0.18599,0.36529 -0.007,-0.0475 -0.0334,-0.0692 -0.0798,-0.0666 -0.15951,0.009 -0.16876,-0.0593 -0.0604,-0.44626 0.0375,-0.13392 0.0824,-0.348 0.0997,-0.47569 0.0173,-0.1277 0.0578,-0.31844 0.09,-0.42384 0.0322,-0.10541 0.0542,-0.2016 0.0489,-0.21377 -0.005,-0.0122 0.0311,-0.134 0.0809,-0.27074 0.0498,-0.13673 0.11028,-0.32068 0.13441,-0.40878 0.0241,-0.0882 0.0623,-0.1765 0.0849,-0.19644 0.0226,-0.0197 0.0636,-0.13982 0.0911,-0.26639 0.0346,-0.15875 0.0718,-0.23955 0.12006,-0.26054 0.0384,-0.0167 0.0683,-0.049 0.0663,-0.0717 -0.002,-0.0256 0.028,-0.0445 0.0798,-0.0499 0.0723,-0.007 0.088,0.008 0.11718,0.11491 0.0185,0.0679 0.11416,0.35257 0.21251,0.63247 0.24897,0.70876 0.44619,1.35454 0.48714,1.59479 0.0191,0.11179 0.0951,0.38139 0.16887,0.59911 0.0739,0.21768 0.14178,0.45641 0.151,0.53048 0.0176,0.14205 -0.0256,0.20336 -0.0705,0.10004 z"
             id="path2" /><path
             style="fill:#faebbc;fill-opacity:1;stroke-width:0.911931"
             d="m 129.6227,492.4051 c -0.011,-0.0351 -0.0218,-0.2201 -0.0239,-0.411 -0.002,-0.1909 -0.0173,-0.40176 -0.0337,-0.46858 -0.0397,-0.16147 -0.0641,-1.39345 -0.0354,-1.78752 0.0125,-0.17181 0.01,-0.37486 -0.006,-0.45122 -0.0156,-0.0764 -0.0379,-0.1974 -0.0495,-0.26899 -0.0238,-0.14619 0.006,-0.13717 -0.47559,-0.14615 -0.28137,-0.005 -0.31282,-0.0129 -0.37235,-0.0903 -0.0358,-0.0465 -0.0654,-0.096 -0.0658,-0.10996 -0.001,-0.0404 0.16643,-0.0714 0.25142,-0.0465 0.19056,0.0558 0.72355,0.0942 1.38899,0.10017 0.59855,0.005 0.72702,0.0153 0.7544,0.0585 0.0463,0.073 0.0423,0.0935 -0.0229,0.11856 -0.0498,0.0191 -0.0508,0.0144 -0.009,-0.037 0.0437,-0.0533 0.0401,-0.0563 -0.0385,-0.032 -0.0477,0.0148 -0.29255,0.0392 -0.54404,0.0544 -0.2515,0.0152 -0.47407,0.038 -0.49461,0.0507 -0.0483,0.0299 -0.048,0.28032 5.6e-4,0.43572 0.0208,0.0667 0.0426,0.30087 0.0483,0.5204 0.006,0.21954 0.0286,0.46668 0.0509,0.54922 0.0223,0.0825 0.039,0.23872 0.0372,0.34709 -0.002,0.10837 0.004,0.29856 0.0124,0.42264 0.009,0.12409 0.0265,0.39742 0.0398,0.60741 0.0133,0.20999 0.0374,0.39823 0.0535,0.41832 0.0162,0.0201 0.0204,0.0708 0.009,0.1128 -0.0165,0.063 -0.045,0.0764 -0.16341,0.0768 -0.0789,2.6e-4 -0.17711,0.009 -0.21822,0.0205 -0.0534,0.0143 -0.0805,0.002 -0.0948,-0.0439 z"
             id="path125" /></g></g></g></g></svg>
