<?xml version="1.0" encoding="UTF-8" standalone="no"?>
<svg
   id="Layer_1"
   data-name="Layer 1"
   viewBox="0 0 151.41675 34.184002"
   version="1.1"
   sodipodi:docname="fsa.svg"
   width="151.41675"
   height="34.184002"
   inkscape:version="1.3 (0e150ed, 2023-07-21)"
   xmlns:inkscape="http://www.inkscape.org/namespaces/inkscape"
   xmlns:sodipodi="http://sodipodi.sourceforge.net/DTD/sodipodi-0.dtd"
   xmlns="http://www.w3.org/2000/svg"
   xmlns:svg="http://www.w3.org/2000/svg"
   xmlns:rdf="http://www.w3.org/1999/02/22-rdf-syntax-ns#"
   xmlns:cc="http://creativecommons.org/ns#"
   xmlns:dc="http://purl.org/dc/elements/1.1/">
  <defs
     id="defs10" />
  <sodipodi:namedview
     id="namedview10"
     pagecolor="#ffffff"
     bordercolor="#666666"
     borderopacity="1.0"
     inkscape:showpageshadow="2"
     inkscape:pageopacity="0.0"
     inkscape:pagecheckerboard="0"
     inkscape:deskcolor="#d1d1d1"
     inkscape:zoom="2.395"
     inkscape:cx="75.991649"
     inkscape:cy="16.91023"
     inkscape:window-width="1280"
     inkscape:window-height="672"
     inkscape:window-x="0"
     inkscape:window-y="25"
     inkscape:window-maximized="0"
     inkscape:current-layer="Layer_1" />
  <title
     id="title1">fsa</title>
  <path
     d="m 83.623089,0.04019867 h 64.780001 a 3,3 0 0 1 2.05,0.64 2.88,2.88 0 0 1 0.95,2.43000003 6.27,6.27 0 0 1 -0.79,2.49 c -1.93,3.92 -3.84,7.8400003 -5.76,11.7600003 -1.92,3.92 -3.85,8 -5.87,11.94 a 8.84,8.84 0 0 1 -6.39,4.81 5,5 0 0 1 -0.95,0.07 H 3.4430889 a 3.27,3.27 0 0 1 -3.37999996,-2.71 3.55,3.55 0 0 1 0.33,-2.29 l 4.37999996,-9 q 3.8,-7.77 7.6000001,-15.5500003 a 8.4,8.4 0 0 1 4.15,-4.12000003 6,6 0 0 1 2.47,-0.50999999822 z M 4.7830889,23.110199 H 140.31309 a 0.37,0.37 0 0 0 0.4,-0.24 c 1.2,-2.46 2.42,-4.92 3.63,-7.38 1.77,-3.59 3.54,-7.1700003 5.29,-10.7700003 a 5.22,5.22 0 0 0 0.46,-1.45 1.67,1.67 0 0 0 -1.77,-2 H 18.963089 a 4.29,4.29 0 0 0 -1.9,0.42 7.41,7.41 0 0 0 -3.44,3.42 c -0.66,1.25 -1.26,2.54 -1.88,3.82 L 5.3030889,21.980199 Z m 117.5900011,8 h 0.27 1.49 a 0.32,0.32 0 0 0 0.34,-0.2 l 2.46,-4.29 a 1.89,1.89 0 0 0 0.11,-0.25 0.44,0.44 0 0 0 -0.28,-0.62 2.43,2.43 0 0 0 -0.59,-0.1 h -5.23 a 1.74,1.74 0 0 0 -0.39,0 2,2 0 0 0 -1.29,1 l -2.51,4.39 c 0,0 0,0 0,0.09 0.57,0 1.12,0 1.68,0 a 0.3,0.3 0 0 0 0.31,-0.18 l 1.09,-1.89 a 0.3,0.3 0 0 1 0.29,-0.18 h 3.48 z m -25.540001,0 h 1.77 a 0.32,0.32 0 0 0 0.33,-0.19 c 0.82,-1.43 1.640001,-2.87 2.470001,-4.3 a 2,2 0 0 0 0.11,-0.26 0.44,0.44 0 0 0 -0.29,-0.61 2.59,2.59 0 0 0 -0.62,-0.1 h -5.000001 a 2,2 0 0 0 -1.9,1.02 c -0.82,1.42 -1.65,2.83 -2.48,4.25 l -0.08,0.17 c 0.57,0 1.11,0 1.65,0 a 0.3,0.3 0 0 0 0.3,-0.17 l 1.15,-1.91 a 0.3,0.3 0 0 1 0.3,-0.17 h 3.4 0.19 z m 22.070001,-5.4 h -7.81 a 0.28,0.28 0 0 0 -0.27,0.17 l -2.82,5.18 a 1.11,1.11 0 0 0 -0.07,0.16 h 7.88 a 0.24,0.24 0 0 0 0.16,-0.07 c 0.18,-0.3 0.35,-0.61 0.54,-1 h -6.16 c 0.21,-0.4 0.41,-0.76 0.59,-1.14 a 0.34,0.34 0 0 1 0.36,-0.21 c 1.37,0 2.74,0 4.1,0 0.08,0 0.2,0 0.24,0 0.18,-0.28 0.34,-0.56 0.53,-0.89 h -4.54 a 7.18,7.18 0 0 0 0.37,-0.73 0.52,0.52 0 0 1 0.58,-0.36 c 1.84,0 3.67,0 5.51,0 0.09,0 0.24,0 0.28,-0.09 0.19,-0.37 0.33,-0.7 0.53,-1.06 z m -42.340001,5.51 h 0.28 c 1.57,0 3.13,0 4.69,0 a 13.93,13.93 0 0 0 1.44,-0.1 3.88,3.88 0 0 0 2.85,-1.52 16.37,16.37 0 0 0 1.27,-2.28 0.89,0.89 0 0 0 -0.64,-1.37 6,6 0 0 0 -1.46,-0.23 c -1.73,0 -3.45,0 -5.18,0 a 0.36,0.36 0 0 0 -0.37,0.23 l -2.74,5 z m 48.760001,0 h 0.29 c 1.53,0 3.05,0 4.57,0 a 13.61,13.61 0 0 0 1.52,-0.11 4.08,4.08 0 0 0 2.52,-1.14 8.59,8.59 0 0 0 1.7,-2.86 0.81,0.81 0 0 0 -0.59,-1.15 5.71,5.71 0 0 0 -1.58,-0.28 c -1.74,0 -3.49,0 -5.24,0 a 0.27,0.27 0 0 0 -0.28,0.19 l -1.62,3 c -0.42,0.71 -0.85,1.49 -1.29,2.31 z m -80.060001,-1.8 h -1.75 a 0.19,0.19 0 0 0 -0.14,0.09 4.68,4.68 0 0 0 -0.35,0.71 0.57,0.57 0 0 0 0.4,0.82 4.2,4.2 0 0 0 1,0.18 c 1.41,0 2.82,0 4.22,0 a 2.85,2.85 0 0 0 2.82,-2.54 0.48,0.48 0 0 0 -0.36,-0.6 3.4,3.4 0 0 0 -0.71,-0.12 c -0.83,0 -1.66,0 -2.49,0 -0.45,0 -0.9,0 -1.34,-0.09 -0.44,-0.09 -0.37,-0.18 -0.25,-0.46 a 1.21,1.21 0 0 1 1.39,-0.94 h 2.31 a 3.17,3.17 0 0 1 0.44,0 c 0.26,0 0.32,0.15 0.21,0.38 -0.11,0.23 -0.13,0.26 -0.21,0.41 h 1.7 c 0,0 0.13,0 0.14,0 a 5.78,5.78 0 0 0 0.39,-0.84 0.43,0.43 0 0 0 -0.3,-0.52 1.61,1.61 0 0 0 -0.59,-0.18 c -0.59,0 -1.18,-0.06 -1.77,-0.07 -0.86,0 -1.73,0 -2.59,0 a 3.3,3.3 0 0 0 -1.39,0.25 3.13,3.13 0 0 0 -1.55,1.69 c -0.36,0.78 -0.11,1.22 0.75,1.27 0.68,0 1.37,0 2,0 0.63,0 1.13,0 1.7,0 0.57,0 0.55,0.27 0.34,0.68 a 1.25,1.25 0 0 1 -1.11,0.76 c -0.8,0 -1.6,0.06 -2.4,0.08 q -0.3,0 -0.6,0 c -0.3,0 -0.36,-0.16 -0.23,-0.43 0.13,-0.27 0.22,-0.34 0.32,-0.53 z m 17,0.85 c 0.25,-0.45 0.48,-0.86 0.69,-1.27 a 0.32,0.32 0 0 1 0.34,-0.2 h 4.11 c 0.08,0 0.21,0 0.24,-0.07 0.16,-0.24 0.28,-0.5 0.44,-0.79 h -4.55 c 0.23,-0.41 0.44,-0.78 0.63,-1.16 a 0.38,0.38 0 0 1 0.39,-0.23 q 2.58,0 5.16,0 a 0.36,0.36 0 0 0 0.24,-0.07 c 0.16,-0.26 0.29,-0.53 0.45,-0.81 h -7.29 a 0.3,0.3 0 0 0 -0.3,0.2 q -1.39,2.57 -2.8,5.13 l -0.08,0.18 h 7.37 a 0.23,0.23 0 0 0 0.15,-0.06 c 0.16,-0.27 0.3,-0.54 0.47,-0.85 z m 6.29,0.88 h 0.09 7.3 a 0.2,0.2 0 0 0 0.14,0 c 0.16,-0.27 0.3,-0.55 0.48,-0.86 h -5.67 c 0.24,-0.44 0.47,-0.84 0.68,-1.26 a 0.33,0.33 0 0 1 0.36,-0.21 c 1.37,0 2.74,0 4.1,0 a 0.37,0.37 0 0 0 0.25,-0.07 c 0.15,-0.24 0.28,-0.5 0.43,-0.79 h -4.54 c 0.21,-0.39 0.42,-0.74 0.59,-1.1 a 0.44,0.44 0 0 1 0.48,-0.29 c 1.69,0 3.39,0 5.08,0 0.09,0 0.22,0 0.25,-0.06 0.16,-0.26 0.3,-0.53 0.46,-0.82 h -7.33 a 0.3,0.3 0 0 0 -0.29,0.18 q -1.14,2.11 -2.3,4.21 z m 36.000001,-5.49 h -1.67 a 0.3,0.3 0 0 0 -0.29,0.18 q -1.39,2.58 -2.810001,5.15 l -0.09,0.2 h 1.650001 a 0.28,0.28 0 0 0 0.3,-0.18 l 1.06,-2 a 0.32,0.32 0 0 1 0.34,-0.2 h 3.39 l -1.27,2.34 h 1.78 c 0.06,0 0.13,-0.09 0.17,-0.16 q 1.43,-2.58 2.83,-5.17 c 0,0 0,-0.1 0.08,-0.18 h -1.73 a 0.35,0.35 0 0 0 -0.2,0.16 c -0.35,0.63 -0.7,1.26 -1,1.9 a 0.31,0.31 0 0 1 -0.32,0.2 h -3.4 z m -81.410001,0 h -1.67 a 0.3,0.3 0 0 0 -0.32,0.19 c -0.66,1.24 -1.35,2.47 -2,3.72 a 1.13,1.13 0 0 1 -1.1,0.67 h -2.6 a 3.68,3.68 0 0 1 -0.58,0 c -0.24,0 -0.3,-0.16 -0.2,-0.39 a 1.51,1.51 0 0 1 0.09,-0.18 c 0.46,-0.85 0.92,-1.7 1.37,-2.55 0.25,-0.45 0.49,-0.91 0.76,-1.4 h -1.64 a 0.32,0.32 0 0 0 -0.33,0.19 l -2.07,3.86 a 1.77,1.77 0 0 0 -0.15,0.34 0.53,0.53 0 0 0 0.3,0.7 2.27,2.27 0 0 0 0.73,0.21 29.6,29.6 0 0 0 5.07,0 2.68,2.68 0 0 0 2.27,-1.54 c 0.56,-1.12 1.18,-2.22 1.78,-3.32 z m 28.16,5.52 h 1.67 a 0.28,0.28 0 0 0 0.29,-0.17 c 0.23,-0.44 0.48,-0.87 0.7,-1.32 a 0.5,0.5 0 0 1 0.52,-0.31 c 1.28,0 2.56,0 3.84,-0.08 a 3.21,3.21 0 0 0 3,-2.36 0.72,0.72 0 0 0 -0.56,-1.08 4.92,4.92 0 0 0 -1.26,-0.18 c -1.66,0 -3.33,0 -5,0 a 0.31,0.31 0 0 0 -0.3,0.19 c -0.65,1.21 -1.31,2.4 -2,3.6 z m -36.87,-5.51 H 7.4930889 a 0.3,0.3 0 0 0 -0.3,0.19 l -2.79,5.1 c 0,0.06 -0.06,0.13 -0.11,0.22 h 1.65 a 0.27,0.27 0 0 0 0.3,-0.18 c 0.34,-0.63 0.69,-1.25 1,-1.88 a 0.38,0.38 0 0 1 0.38,-0.23 q 1.93,0 3.8700001,0 c 0.08,0 0.2,0 0.23,0 0.16,-0.25 0.29,-0.52 0.46,-0.82 H 7.8730889 c 0.24,-0.45 0.47,-0.84 0.68,-1.25 a 0.35,0.35 0 0 1 0.37,-0.22 c 1.6000001,0 3.2100001,0 4.8100001,0 0.08,0 0.21,0 0.24,-0.07 0.16,-0.3 0.3,-0.57 0.46,-0.86 z m 11.33,0 h -1.64 a 0.32,0.32 0 0 0 -0.32,0.19 l -2.79,5.12 -0.1,0.2 h 7.39 a 0.2,0.2 0 0 0 0.14,0 c 0.16,-0.27 0.31,-0.54 0.48,-0.87 h -5.67 z m 3.3,5.49 h 7.39 a 0.23,0.23 0 0 0 0.15,0 l 0.47,-0.86 h -5.67 l 2.52,-4.61 h -1.65 a 0.32,0.32 0 0 0 -0.32,0.2 c -0.62,1.15 -1.25,2.3 -1.88,3.45 -0.37,0.57 -0.67,1.19 -1.01,1.82 z"
     id="path1"
     style="fill:#eff0c0;fill-opacity:1" />
  <path
     d="m 76.363089,11.110199 h 21.34 a 4.84,4.84 0 0 1 1.36,0.18 1.82,1.82 0 0 1 1.380001,2.09 3.28,3.28 0 0 1 -0.41,1.32 l -1.490001,2.61 a 6.57,6.57 0 0 1 -4.19,3 7.74,7.74 0 0 1 -2,0.26 h -34.52 l 0.63,-1.25 q 1,-2 2.06,-4.1 a 0.36,0.36 0 0 1 0.37,-0.22 h 24.89 a 0.39,0.39 0 0 0 0.43,-0.28 c 0.28,-0.63 0.57,-1.25 0.88,-1.93 h -21.34 a 5,5 0 0 1 -1.39,-0.19 1.81,1.81 0 0 1 -1.33,-2 3.18,3.18 0 0 1 0.43,-1.4900003 c 0,-0.08 0.1,-0.17 0.16,-0.29 h -0.28 -24.52 a 0.35,0.35 0 0 0 -0.37,0.23 c -0.29,0.6 -0.61,1.2000003 -0.91,1.8000003 a 1.85,1.85 0 0 0 -0.11,0.24 h 20.88 a 2,2 0 0 1 -0.12,0.22 c -1,1.76 -2,3.51 -3.07,5.28 a 0.41,0.41 0 0 1 -0.41,0.22 h -20.34 a 0.44,0.44 0 0 0 -0.48,0.3 c -0.5,1.11 -1,2.2 -1.53,3.3 0,0.12 -0.1,0.2 -0.27,0.2 h -10.39 a 0.67,0.67 0 0 1 0.06,-0.17 q 3.51,-6.76 7,-13.5200003 c 0.59,-1.15 1.19,-2.29 1.77,-3.44 a 0.45,0.45 0 0 1 0.46,-0.29 h 35.89 l -1.18,2.3 a 7.67,7.67 0 0 1 5.31,-2.21 h 37.630001 l -1.49,3 c 0.41,-0.3 0.75,-0.6 1.13,-0.86 a 11.86,11.86 0 0 1 5.18,-2 23.28,23.28 0 0 1 3.23,-0.23 c 5.74,0 11.48,0 17.22,0 h 8 a 8.45,8.45 0 0 1 2.83,0.33 l 0.21,0.08 a 2,2 0 0 1 1.32,2.65 6.65,6.65 0 0 1 -0.46,1.19 c -2,3.9200003 -4,7.8400003 -6,11.7600003 -0.21,0.4 -0.42,0.8 -0.62,1.21 a 0.21,0.21 0 0 1 -0.25,0.14 h -34.68 a 4.58,4.58 0 0 1 -1.76,-0.32 1.73,1.73 0 0 1 -1.14,-2.24 9.88,9.88 0 0 1 0.67,-1.62 c 0.34,-0.71 0.73,-1.4 1.07,-2.1 a 4.82,4.82 0 0 1 2.6,-2.35 9.24,9.24 0 0 1 3.78,-0.71 h 20.22 a 0.38,0.38 0 0 0 0.41,-0.26 c 0.3,-0.63 0.62,-1.2600003 0.92,-1.8900003 a 2.16,2.16 0 0 0 0.09,-0.2 H 77.623089 a 0.34,0.34 0 0 0 -0.37,0.23 c -0.25,0.58 -0.53,1.1600003 -0.79,1.7300003 z m 37.340001,3.82 h 14.28 a 0.4,0.4 0 0 0 0.45,-0.28 c 0.2,-0.47 0.43,-0.92 0.65,-1.37 0.06,-0.12 0.11,-0.24 0.17,-0.39 h -0.33 c -4.5,0 -9,0 -13.5,0 a 0.92,0.92 0 0 0 -1.06,0.66 12.4,12.4 0 0 1 -0.66,1.38 z"
     id="path2"
     style="fill:#eff0c0;fill-opacity:1" />
  <path
     d="m 16.593089,20.620199 0.9,-1.74 q 3.15,-6.06 6.29,-12.1100003 c 0.59,-1.13 1.18,-2.26 1.76,-3.39 0.06,-0.11 0.11,-0.18 0.26,-0.18 h 3.47 0.13 a 1.71,1.71 0 0 1 -0.07,0.18 l -5.94,11.4500003 q -1.44,2.76 -2.87,5.54 a 0.4,0.4 0 0 1 -0.43,0.25 c -1.06,0 -2.13,0 -3.19,0 z"
     id="path3"
     style="fill:#eff0c0;fill-opacity:1" />
  <path
     d="m 23.633089,3.2301987 -1.29,2.48 -6.3,12.1300003 -1.34,2.62 a 0.29,0.29 0 0 1 -0.2,0.15 q -1.31,0 -2.61,0 h -0.07 c 0.15,-0.28 0.29,-0.56 0.43,-0.84 l 8.45,-16.3900003 a 0.36,0.36 0 0 1 0.24,-0.17 h 2.56 z"
     id="path4"
     style="fill:#eff0c0;fill-opacity:1" />
  <path
     d="m 18.853089,3.2001987 c -0.34,0.66 -0.66,1.28 -1,1.9 l -6.44,12.4200003 c -0.51,1 -1,2 -1.5200001,2.93 a 0.24,0.24 0 0 1 -0.27,0.17 c -0.33,0 -0.66,0 -1,0 l 0.62,-1.21 7.5500001,-14.5300003 c 0.26,-0.51 0.53,-1 0.8,-1.53 a 0.31,0.31 0 0 1 0.2,-0.14 c 0.31,-0.02 0.66,-0.01 1.06,-0.01 z"
     id="path5"
     style="fill:#eff0c0;fill-opacity:1" />
  <path
     d="m 120.52309,27.690199 c 0.17,-0.29 0.33,-0.58 0.5,-0.86 a 0.24,0.24 0 0 1 0.16,-0.07 h 3.57 l -0.54,0.92 c 0,0 -0.1,0 -0.15,0 h -3.47 z"
     id="path6"
     style="fill:#eff0c0;fill-opacity:1" />
  <path
     d="m 94.993089,27.690199 c 0.16,-0.28 0.31,-0.56 0.48,-0.82 a 0.31,0.31 0 0 1 0.18,-0.11 h 3.61 0.07 l -0.53,0.87 a 0.2,0.2 0 0 1 -0.14,0 h -3.59 z"
     id="path7"
     style="fill:#eff0c0;fill-opacity:1" />
  <path
     d="m 78.913089,30.250199 c 0.67,-1.21 1.31,-2.4 2,-3.58 a 0.25,0.25 0 0 1 0.17,-0.11 c 1.16,0 2.32,0 3.48,0 0.73,0 0.89,0.37 0.55,1 q -0.37,0.74 -0.78,1.44 a 2.44,2.44 0 0 1 -2.14,1.2 c -1,0 -2.08,0 -3.12,0 z"
     id="path8"
     style="fill:#eff0c0;fill-opacity:1" />
  <path
     d="m 127.70309,30.270199 c 0.18,-0.34 0.34,-0.64 0.51,-0.93 l 1.41,-2.6 a 0.3,0.3 0 0 1 0.3,-0.19 c 1,0 2,0 2.94,0 a 3.4,3.4 0 0 1 0.78,0.1 0.45,0.45 0 0 1 0.36,0.65 3.3,3.3 0 0 1 -0.19,0.43 c -0.19,0.36 -0.41,0.72 -0.59,1.08 a 2.42,2.42 0 0 1 -2.19,1.43 c -1.11,0.06 -2.21,0.03 -3.33,0.03 z"
     id="path9"
     style="fill:#eff0c0;fill-opacity:1" />
  <path
     d="m 54.623089,28.510199 1,-1.87 a 0.22,0.22 0 0 1 0.15,-0.08 h 3.14 a 0.76,0.76 0 0 1 0.25,0.06 0.31,0.31 0 0 1 0.22,0.38 1.62,1.62 0 0 1 -1.46,1.38 c -1.06,0.11 -2.15,0.1 -3.3,0.13 z"
     id="path10"
     style="fill:#eff0c0;fill-opacity:1" />
  <metadata
     id="metadata10">
    <rdf:RDF>
      <cc:Work
         rdf:about="">
        <dc:title>fsa</dc:title>
      </cc:Work>
    </rdf:RDF>
  </metadata>
</svg>
