<?xml version="1.0" encoding="UTF-8" standalone="no"?>
<!-- Created with Inkscape (http://www.inkscape.org/) -->

<svg
   width="36.884193mm"
   height="102.85107mm"
   viewBox="0 0 36.884193 102.85107"
   version="1.1"
   id="svg1"
   inkscape:version="1.3 (0e150ed, 2023-07-21)"
   sodipodi:docname="blaze.svg"
   inkscape:export-filename="blaze_text_wide.png"
   inkscape:export-xdpi="200"
   inkscape:export-ydpi="200"
   xml:space="preserve"
   xmlns:inkscape="http://www.inkscape.org/namespaces/inkscape"
   xmlns:sodipodi="http://sodipodi.sourceforge.net/DTD/sodipodi-0.dtd"
   xmlns:xlink="http://www.w3.org/1999/xlink"
   xmlns="http://www.w3.org/2000/svg"
   xmlns:svg="http://www.w3.org/2000/svg"><sodipodi:namedview
     id="namedview1"
     pagecolor="#ffffff"
     bordercolor="#666666"
     borderopacity="1.0"
     inkscape:showpageshadow="2"
     inkscape:pageopacity="0.0"
     inkscape:pagecheckerboard="0"
     inkscape:deskcolor="#d1d1d1"
     inkscape:document-units="mm"
     inkscape:zoom="0.58614468"
     inkscape:cx="290.03078"
     inkscape:cy="590.29795"
     inkscape:window-width="1416"
     inkscape:window-height="839"
     inkscape:window-x="0"
     inkscape:window-y="25"
     inkscape:window-maximized="0"
     inkscape:current-layer="layer1"
     showgrid="false" /><defs
     id="defs1"><linearGradient
       id="linearGradient34"
       inkscape:collect="always"
       inkscape:label="half barrel"><stop
         style="stop-color:#009200;stop-opacity:1;"
         offset="0"
         id="stop33" /><stop
         style="stop-color:#37ff6f;stop-opacity:1;"
         offset="1"
         id="stop34" /></linearGradient><linearGradient
       id="linearGradient31"
       inkscape:collect="always"><stop
         style="stop-color:#ff7a00;stop-opacity:1;"
         offset="0"
         id="stop31" /><stop
         style="stop-color:#ffc600;stop-opacity:1;"
         offset="1"
         id="stop32" /></linearGradient><linearGradient
       inkscape:collect="always"
       xlink:href="#linearGradient34"
       id="linearGradient30"
       x1="89.062531"
       y1="133.46181"
       x2="125.60395"
       y2="133.46181"
       gradientUnits="userSpaceOnUse"
       gradientTransform="translate(-51.613651,-45.714948)" /><linearGradient
       inkscape:collect="always"
       xlink:href="#linearGradient31"
       id="linearGradient32"
       x1="106.94847"
       y1="71.218834"
       x2="107.44496"
       y2="104.59141"
       gradientUnits="userSpaceOnUse"
       gradientTransform="translate(-51.613651,-45.714948)" /></defs><g
     inkscape:label="Layer 1"
     inkscape:groupmode="layer"
     id="layer1"
     transform="translate(-37.106107,-15.58599)"><g
       id="g4"
       inkscape:label="full barrel"
       style="display:inline"><g
         id="g1"
         inkscape:label="fire"><path
           style="fill:url(#linearGradient32);fill-opacity:1;stroke:#000000;stroke-width:0.5;stroke-linecap:butt;stroke-linejoin:miter;stroke-dasharray:none;stroke-opacity:1"
           d="m 38.016913,59.497552 c -0.09259,-4.79004 -1.439051,-12.201807 0,-13.789323 0.05725,0.563403 0.252777,0.896351 0.689467,0.827357 1.65987,0.174846 -2.189852,-13.703805 0.689467,-17.374539 -0.169278,2.856546 2.677616,4.618274 5.791512,3.309437 3.113896,-1.308837 5.54355,-2.847195 5.10205,-7.308339 0.63564,0.788993 1.49607,3.710029 2.20629,8.27359 0.43368,3.145754 0.29127,-3.013123 0.68946,-3.585221 0.23862,6.258259 1.28833,10.920035 3.86101,11.445131 2.57268,0.525096 4.60419,-1.530049 4.55048,-5.653619 1.74562,3.672047 2.10509,9.972818 2.34418,12.824066 0.23909,2.851248 3.10687,2.102845 2.61997,-1.930506 0.31861,1.126056 0.71709,2.212745 1.79261,2.068399 1.07552,-0.144346 0.67691,-2.618627 0.68947,-4.688369 2.44938,5.059355 2.26002,10.382586 3.30944,15.581936 z"
           id="path8"
           sodipodi:nodetypes="cccczccczczczccc" /><path
           style="fill:#ffe700;fill-opacity:1;stroke:#000000;stroke-width:0.5;stroke-linecap:butt;stroke-linejoin:miter;stroke-dasharray:none;stroke-opacity:1"
           d="m 46.212806,58.394402 c -1.272263,-2.95994 -1.007643,-5.023356 -0.413681,-6.894661 0.344879,0.775322 0.572238,1.815064 1.516827,1.241038 1.067139,-2.915079 -0.827292,-6.159221 -1.241038,-9.238842 1.145837,3.388126 3.339245,1.412105 3.998905,6.756765 0.50892,0.333347 0.8073,-0.07018 0.68946,-1.930503 2.0605,3.437372 2.09812,6.635863 2.34419,9.928313 z"
           id="path9"
           sodipodi:nodetypes="cccccccc" /><path
           style="fill:#ffe700;fill-opacity:1;stroke:#000000;stroke-width:0.5;stroke-linecap:butt;stroke-linejoin:miter;stroke-dasharray:none;stroke-opacity:1"
           d="m 66.816579,58.599992 c 0.35951,-2.20629 0.5024,-4.412583 -0.68946,-6.618874 -0.003,0.821659 -0.38003,1.509391 -1.45659,1.083065 -2.37331,-1.116603 -1.08194,-3.717474 -1.71496,-5.495648 -2.11374,5.361027 -1.27686,7.945007 -0.82735,10.893567 z"
           id="path10"
           sodipodi:nodetypes="cccccc" /><path
           style="fill:#ffe700;fill-opacity:1;stroke:#000000;stroke-width:0.5;stroke-linecap:butt;stroke-linejoin:miter;stroke-dasharray:none;stroke-opacity:1"
           d="m 50.998879,42.867492 c 0.20404,-2.231204 -1.03799,-4.141061 -2.20629,-6.0673 -0.31791,-0.790972 -1.029679,-1.542558 0.13789,-2.482078 0.2196,1.353425 0.83121,1.922802 1.51683,2.344185 1.00481,-0.930401 -0.11492,-2.498166 -0.55158,-3.861009 1.04643,1.482733 2.70109,1.922774 2.75787,5.102047 -0.13021,1.962365 0.43922,2.315185 -1.65472,4.964155 z"
           id="path11"
           sodipodi:nodetypes="ccccccc" /><path
           style="display:inline;fill:#ff3e00;fill-opacity:1;stroke:#000000;stroke-width:0.5;stroke-linecap:butt;stroke-linejoin:miter;stroke-dasharray:none;stroke-opacity:1"
           d="m 46.173997,27.004078 c 0.746023,-4.193936 1.492045,-4.925387 2.238072,-5.418484 1.02771,-1.50131 -0.744954,-3.802729 -1.766902,-5.889657 0.21173,2.334822 1.161692,4.915722 -1.295723,6.360829 -0.303486,0.0065 -0.594066,0.116254 -1.060138,-1.17793 -0.307705,2.041747 0.90838,4.083495 1.884691,6.125242 z"
           id="path12"
           sodipodi:nodetypes="cccccc" /></g><g
         id="g34"
         transform="rotate(-7.9531938,-150.74377,766.80372)"
         inkscape:label="frame"><path
           style="fill:#000000;fill-opacity:1;stroke:#000000;stroke-width:0.264583px;stroke-linecap:butt;stroke-linejoin:miter;stroke-opacity:1"
           d="m 137.78399,92.786554 29.41755,-2.654007 0.25128,1.456187 -29.57124,2.899688 z"
           id="path32" /><path
           style="fill:#000000;fill-opacity:1;stroke:#000000;stroke-width:0.265;stroke-linecap:butt;stroke-linejoin:miter;stroke-dasharray:none;stroke-opacity:1"
           d="m 137.40979,95.816711 3.30944,-22.61448 -0.1379,-2.757863 h 0.68947 v 1.516824 l 0.55157,-0.137893 v -1.654717 h 0.55157 v 2.757863 l 18.00672,18.341502 -1.08525,0.56052 -17.17937,-17.514149 -0.51392,0.128952 -3.03365,22.200801 z"
           id="path33"
           inkscape:label="fixie"
           sodipodi:nodetypes="ccccccccccccccc" /><path
           style="fill:#000000;fill-opacity:1;stroke:#000000;stroke-width:0.264583px;stroke-linecap:butt;stroke-linejoin:miter;stroke-opacity:1"
           d="m 160.76467,91.287227 2.17836,29.456573 -1.46004,0.22773 -2.42154,-29.614219 z"
           id="path34" /></g><path
         id="rect1"
         style="display:inline;opacity:1;fill:url(#linearGradient30);fill-rule:evenodd;stroke:#000000;stroke-width:0.5;stroke-linecap:round;stroke-linejoin:round;stroke-dasharray:none;stroke-opacity:1"
         d="m 37.986347,59.285052 c 11.627922,-2.33157 23.400462,-2.92779 35.466672,0 0.38896,0.60474 0.26237,1.12354 0,1.61972 v 16.61192 c 0.44144,0.67536 0.32054,1.27038 0,1.83689 v 16.05286 c 0.50842,0.78418 0.23548,1.34512 0,1.91676 v 17.969608 c 0.38271,0.45951 0.38337,0.91901 0,1.37851 -11.82222,1.50739 -23.64445,2.47647 -35.466672,0 -0.312819,-0.42337 -0.448093,-0.89746 0,-1.53824 V 97.323202 c -0.235478,-0.538 -0.508417,-1.05995 0,-1.91676 v -16.05286 c -0.322609,-0.66554 -0.439633,-1.33108 0,-1.99662 v -16.53205 c -0.2578,-0.51329 -0.392781,-1.02657 0,-1.53986 z"
         sodipodi:nodetypes="ccccccccccccccccc" /><path
         style="fill:none;stroke:#000000;stroke-width:0.264583px;stroke-linecap:round;stroke-linejoin:miter;stroke-dasharray:7.93749, 13.2291, 2.64583, 5.29166;stroke-dashoffset:0;stroke-opacity:1"
         d="m 37.986345,60.802242 c 11.693704,-1.92787 23.481824,-2.43943 35.466674,0"
         id="path1"
         sodipodi:nodetypes="cc" /><path
         style="fill:none;stroke:#000000;stroke-width:0.264583px;stroke-linecap:round;stroke-linejoin:miter;stroke-dasharray:0.264583, 5.29166, 13.2291, 1.32291;stroke-dashoffset:0;stroke-opacity:1"
         d="m 37.986345,77.458782 c 11.822224,-1.00321 23.644454,-0.74057 35.466674,0"
         id="path2"
         sodipodi:nodetypes="cc" /><path
         style="fill:none;stroke:#000000;stroke-width:0.264583px;stroke-linecap:round;stroke-linejoin:miter;stroke-dasharray:0, 7.93749, 5.29166, 3.96874, 5.29166;stroke-dashoffset:0;stroke-opacity:1"
         d="m 37.986345,79.397052 c 12.428424,-1.01141 23.877394,-0.74534 35.466674,0"
         id="path3"
         sodipodi:nodetypes="cc" /><path
         style="fill:none;stroke:#000000;stroke-width:0.264583px;stroke-linecap:round;stroke-linejoin:miter;stroke-dasharray:3.96874, 7.93749, 6.61457, 1.32291;stroke-dashoffset:0;stroke-opacity:1"
         d="m 37.986345,95.356672 c 11.822224,0.52033 23.644454,0.34831 35.466674,0"
         id="path4"
         sodipodi:nodetypes="cc" /><path
         style="fill:none;stroke:#000000;stroke-width:0.264583px;stroke-linecap:round;stroke-linejoin:miter;stroke-dasharray:5.29166, 7.93749, 7.93749, 13.2291;stroke-dashoffset:0;stroke-opacity:1"
         d="m 37.986345,97.285492 c 11.822224,0.73575 23.644454,0.41225 35.466674,0"
         id="path5"
         sodipodi:nodetypes="cc" /><path
         style="fill:none;stroke:#000000;stroke-width:0.264583px;stroke-linecap:round;stroke-linejoin:miter;stroke-dasharray:6.34999, 6.34999, 2.64583, 7.93749;stroke-dashoffset:0;stroke-opacity:1"
         d="m 37.986345,115.24122 c 11.822224,1.88253 23.644454,1.30714 35.466674,0"
         id="path6"
         sodipodi:nodetypes="cc" /></g><g
       id="g19"
       style="display:none"
       inkscape:label="long text"><text
         xml:space="preserve"
         style="font-size:28.2222px;line-height:1.25;font-family:'Urban Heroes';-inkscape-font-specification:'Urban Heroes';stroke-width:0.264583"
         x="38.464123"
         y="82.057549"
         id="text1"><tspan
           sodipodi:role="line"
           style="font-size:28.2222px;stroke-width:0.264583"
           x="38.464123"
           y="82.057549"
           id="tspan17">BLAZIN'</tspan></text><text
         xml:space="preserve"
         style="font-size:28.2222px;line-height:1.25;font-family:'Urban Heroes';-inkscape-font-specification:'Urban Heroes';stroke-width:0.264583"
         x="44.597675"
         y="105.51193"
         id="text19"><tspan
           sodipodi:role="line"
           style="font-size:28.2222px;stroke-width:0.264583"
           x="44.597675"
           y="105.51193"
           id="tspan19">SADDLES</tspan></text></g><g
       id="g21"
       style="display:none"
       inkscape:label="bs-barrel"><text
         xml:space="preserve"
         style="font-size:35.2778px;line-height:1.25;font-family:'Urban Heroes';-inkscape-font-specification:'Urban Heroes';stroke-width:0.264583"
         x="37.967842"
         y="86.524071"
         id="text20"><tspan
           sodipodi:role="line"
           style="font-size:35.2778px;stroke-width:0.264583"
           x="37.967842"
           y="86.524071"
           id="tspan20">B</tspan></text><text
         xml:space="preserve"
         style="font-size:35.2778px;line-height:1.25;font-family:'Urban Heroes';-inkscape-font-specification:'Urban Heroes';stroke-width:0.264583"
         x="51.111748"
         y="107.62811"
         id="text21"><tspan
           sodipodi:role="line"
           style="font-size:35.2778px;stroke-width:0.264583"
           x="51.111748"
           y="107.62811"
           id="tspan21">S</tspan></text></g><g
       id="g23"
       transform="translate(35.387961,-29.47892)"
       style="display:none"
       inkscape:label="bs-side"><text
         xml:space="preserve"
         style="font-size:52.9167px;line-height:1.25;font-family:'Urban Heroes';-inkscape-font-specification:'Urban Heroes';stroke-width:0.264583"
         x="35.652515"
         y="90.870369"
         id="text22"><tspan
           sodipodi:role="line"
           style="font-size:52.9167px;stroke-width:0.264583"
           x="35.652515"
           y="90.870369"
           id="tspan22">B</tspan></text><text
         xml:space="preserve"
         style="font-size:52.9167px;line-height:1.25;font-family:'Urban Heroes';-inkscape-font-specification:'Urban Heroes';display:inline;stroke-width:0.264583"
         x="46.99889"
         y="134.72055"
         id="text23"><tspan
           sodipodi:role="line"
           style="font-size:52.9167px;stroke-width:0.264583"
           x="46.99889"
           y="134.72055"
           id="tspan23">S</tspan></text></g><g
       id="g3"
       style="display:inline"
       inkscape:label="long text beside"
       transform="translate(38.386511,-3.0534725)"><text
         xml:space="preserve"
         style="font-size:42.3333px;line-height:1.25;font-family:'Urban Heroes';-inkscape-font-specification:'Urban Heroes';stroke-width:0.264583"
         x="34.974442"
         y="67.791855"
         id="text2"><tspan
           sodipodi:role="line"
           style="font-size:42.3333px;stroke-width:0.264583"
           x="34.974442"
           y="67.791855"
           id="tspan1">BLAZIN'</tspan></text><text
         xml:space="preserve"
         style="font-size:42.3333px;line-height:1.25;font-family:'Urban Heroes';-inkscape-font-specification:'Urban Heroes';stroke-width:0.264583"
         x="43.289043"
         y="110.00327"
         id="text3"><tspan
           sodipodi:role="line"
           style="font-size:42.3333px;stroke-width:0.264583"
           x="43.289043"
           y="110.00327"
           id="tspan2">SADDLES</tspan></text></g></g></svg>
