<?xml version="1.0" encoding="UTF-8" standalone="no"?>
<!-- Created with Inkscape (http://www.inkscape.org/) -->

<svg
   width="117.97736mm"
   height="138.04649mm"
   viewBox="0 0 117.97736 138.04649"
   version="1.1"
   id="svg1"
   inkscape:version="1.3 (0e150ed, 2023-07-21)"
   sodipodi:docname="blaze.svg"
   inkscape:export-filename="blaze_text_wide.png"
   inkscape:export-xdpi="200"
   inkscape:export-ydpi="200"
   xml:space="preserve"
   xmlns:inkscape="http://www.inkscape.org/namespaces/inkscape"
   xmlns:sodipodi="http://sodipodi.sourceforge.net/DTD/sodipodi-0.dtd"
   xmlns="http://www.w3.org/2000/svg"
   xmlns:svg="http://www.w3.org/2000/svg"><sodipodi:namedview
     id="namedview1"
     pagecolor="#ffffff"
     bordercolor="#666666"
     borderopacity="1.0"
     inkscape:showpageshadow="2"
     inkscape:pageopacity="0.0"
     inkscape:pagecheckerboard="0"
     inkscape:deskcolor="#d1d1d1"
     inkscape:document-units="mm"
     inkscape:zoom="0.66315605"
     inkscape:cx="422.97737"
     inkscape:cy="591.11275"
     inkscape:window-width="1416"
     inkscape:window-height="839"
     inkscape:window-x="0"
     inkscape:window-y="25"
     inkscape:window-maximized="0"
     inkscape:current-layer="layer1"
     showgrid="false" /><defs
     id="defs1"><clipPath
       clipPathUnits="userSpaceOnUse"
       id="clipPath29"><path
         d="M 0,612 H 792 V 0 H 0 Z"
         transform="translate(-424.15911,-329.21411)"
         id="path29-3" /></clipPath><clipPath
       clipPathUnits="userSpaceOnUse"
       id="clipPath27"><path
         d="M 0,612 H 792 V 0 H 0 Z"
         transform="translate(-458.84951,-425.83311)"
         id="path27-9" /></clipPath><clipPath
       clipPathUnits="userSpaceOnUse"
       id="clipPath25"><path
         d="M 0,612 H 792 V 0 H 0 Z"
         transform="translate(-460.78091,-276.37281)"
         id="path25-9" /></clipPath><clipPath
       clipPathUnits="userSpaceOnUse"
       id="clipPath23"><path
         d="M 0,612 H 792 V 0 H 0 Z"
         transform="translate(-336.46111,-365.92651)"
         id="path23-7" /></clipPath><clipPath
       clipPathUnits="userSpaceOnUse"
       id="clipPath21-0"><path
         d="M 0,612 H 792 V 0 H 0 Z"
         transform="translate(-422.29191,-441.04691)"
         id="path21-3" /></clipPath><clipPath
       clipPathUnits="userSpaceOnUse"
       id="clipPath19-9"><path
         d="M 0,612 H 792 V 0 H 0 Z"
         transform="translate(-471.95031,-261.829)"
         id="path19-8" /></clipPath><clipPath
       clipPathUnits="userSpaceOnUse"
       id="clipPath17-6"><path
         d="M 0,612 H 792 V 0 H 0 Z"
         transform="translate(-470.45291,-401.26571)"
         id="path17-5" /></clipPath><clipPath
       clipPathUnits="userSpaceOnUse"
       id="clipPath15-7"><path
         d="M 0,612 H 792 V 0 H 0 Z"
         transform="translate(-324.20811,-316.06701)"
         id="path15-6" /></clipPath><clipPath
       clipPathUnits="userSpaceOnUse"
       id="clipPath13"><path
         d="M 0,612 H 792 V 0 H 0 Z"
         transform="translate(-563.21201,-370.08901)"
         id="path13-1" /></clipPath></defs><g
     inkscape:label="Layer 1"
     inkscape:groupmode="layer"
     id="layer1"
     transform="translate(-229.49933,-122.50208)"><g
       id="g63"
       inkscape:label="JustinBarrel"
       inkscape:export-filename="./justin_barrel.svg"
       inkscape:export-xdpi="200"
       inkscape:export-ydpi="200"><path
         id="path12-3"
         d="m 0,0 c 0,-92.349 -74.863,-167.212 -167.212,-167.212 -92.349,0 -167.212,74.863 -167.212,167.212 0,92.349 74.863,167.212 167.212,167.212 C -74.863,167.212 0,92.349 0,0"
         style="fill:#001b29;fill-opacity:1;fill-rule:nonzero;stroke:none"
         transform="matrix(0.35277777,0,0,-0.35277777,347.47668,201.55989)"
         clip-path="url(#clipPath13)" /><path
         style="display:none;fill:#001b29;fill-opacity:1;stroke:none;stroke-width:0.264583px;stroke-linecap:butt;stroke-linejoin:miter;stroke-opacity:1"
         d="m 270.8988,168.86026 c -4.00434,1.37271 -5.20891,3.21205 -6.92296,4.96648 1.82785,7.28719 11.04124,9.29899 24.07989,8.57846 11.4888,-1.17857 25.97161,-0.86014 25.2839,-8.12697 -1.37706,-3.13792 -4.80143,-4.22852 -8.12696,-5.41797 l -4.214,-8.27746 -12.19043,-16.85593 -11.58846,17.75892 z"
         id="path63"
         sodipodi:nodetypes="ccccccccc" /><path
         style="display:none;fill:#001b29;fill-opacity:1;stroke:none;stroke-width:0.264583px;stroke-linecap:butt;stroke-linejoin:miter;stroke-opacity:1"
         d="m 314.35992,206.13861 0.002,-11.03439 -50.53588,-0.009 0.005,11.68841 z"
         id="path67"
         sodipodi:nodetypes="ccccc" /><path
         style="display:none;fill:#001b29;fill-opacity:1;stroke:none;stroke-width:0.264583px;stroke-linecap:butt;stroke-linejoin:miter;stroke-opacity:1"
         d="M 263.8455,234.31366 V 222.6801 l 50.51394,1.45686 -0.1083,5.47406 0.1053,7.25206 z"
         id="path68"
         sodipodi:nodetypes="cccccc" /><path
         id="path14-0"
         d="m 0,0 c -4.37,-5.325 -4.595,-10.834 0.069,-15.652 2.053,-2.119 4.479,-4.084 7.094,-5.416 9.231,-4.702 18.88,-8.244 29.283,-9.408 10.47,-1.171 20.91,-2.67 31.403,-3.542 4.699,-0.391 9.51,0.246 14.245,0.687 9.647,0.898 19.331,1.62 28.899,3.08 11.562,1.765 22.574,5.279 32.431,11.993 6.544,4.458 8.497,12.578 3.13,18.138 -0.971,1.004 -1.356,2.941 -1.364,4.45 -0.091,17.092 -0.056,34.184 -0.055,51.276 0,1.214 0,2.428 0,3.074 C 97.408,39.898 50.002,39.599 1.883,58.168 c 0,-0.992 -0.001,-2.248 0,-3.504 C 1.891,38.078 1.95,21.493 1.826,4.908 1.813,3.25 1.058,1.289 0,0"
         style="fill:#eaf2c6;fill-opacity:1;fill-rule:nonzero;stroke:none"
         transform="matrix(0.35277776,0,0,-0.35277776,263.16143,220.61765)"
         clip-path="url(#clipPath15-7)" /><path
         id="path16-39"
         d="m 0,0 c -0.707,0.863 -1.064,2.256 -1.074,3.408 -0.078,9.753 -0.12,19.509 0.049,29.26 0.027,1.588 0.802,3.435 1.82,4.684 2.804,3.44 3.368,8.382 1.149,12.322 -3.359,5.962 -9.372,8.48 -15.082,10.919 -5.49,2.346 -11.129,4.115 -16.86,5.451 -0.817,-2.474 -2.025,-4.805 -3.543,-6.929 6.416,-1.206 12.7,-2.997 18.502,-6.29 3.182,-1.805 6.973,-3.314 7.044,-8.262 0.066,-4.632 -3.306,-6.272 -6.307,-7.953 -9.239,-5.174 -19.472,-7.418 -29.856,-8.369 -12.948,-1.185 -25.981,-2.397 -38.949,-2.143 -15.28,0.299 -30.463,2.581 -44.804,8.422 -2.789,1.136 -5.419,2.89 -7.783,4.784 -3.786,3.033 -3.114,8.755 1.209,11.568 7.044,4.581 14.923,7.179 23.118,8.327 3.091,0.433 6.187,0.826 9.246,1.189 -1.407,2.34 -2.49,4.903 -3.209,7.609 -3.161,-0.496 -6.317,-1.081 -9.464,-1.785 -10.303,-2.303 -20.408,-5.294 -28.86,-11.618 -7.188,-5.379 -7.874,-10.705 -2.506,-18.047 0.933,-1.277 1.713,-3.011 1.741,-4.549 0.161,-9.117 0.163,-18.241 0,-27.358 -0.027,-1.564 -0.759,-3.387 -1.753,-4.615 -5.146,-6.355 -4.566,-11.972 1.327,-16.942 3.424,-2.888 7.455,-5.325 11.595,-7.05 17.129,-7.142 35.306,-9.218 53.636,-10.176 5.878,-0.307 11.786,-0.048 16.151,-0.048 10.597,1.41 19.657,2.233 28.56,3.895 11.307,2.112 22.343,5.156 31.991,11.999 C 4.214,-13.244 5.411,-6.602 0,0"
         style="fill:#eaf2c6;fill-opacity:1;fill-rule:nonzero;stroke:none"
         transform="matrix(0.35277776,0,0,-0.35277776,314.75335,190.56145)"
         clip-path="url(#clipPath17-6)" /><path
         id="path18-9"
         d="m 0,0 c -2.457,2.54 -2.655,5.145 -2.623,8.188 0.062,5.826 0.033,11.653 0.009,17.48 -0.004,0.921 -0.179,1.843 -0.307,3.077 -3.991,-1.981 -7.463,-4.094 -11.202,-5.493 -14.589,-5.459 -29.821,-8.549 -45.285,-9.013 -14.919,-0.448 -29.938,0.241 -44.817,1.535 -8.466,0.736 -16.83,3.372 -25.07,5.743 -5.622,1.617 -10.95,4.255 -16.546,6.491 0,-7.043 0.134,-14.136 -0.094,-21.218 -0.057,-1.774 -0.93,-3.771 -2.023,-5.216 -3.357,-4.44 -4.975,-9.306 -0.578,-14.163 2.742,-3.03 6.291,-5.543 9.893,-7.541 12.027,-6.671 25.401,-9.047 38.802,-10.509 10.765,-1.175 21.559,-1.867 32.555,-1.25 14.745,0.826 29.229,2.347 43.388,6.45 8.479,2.458 16.771,5.497 23.048,12.157 C 2.594,-9.628 3.269,-3.379 0,0"
         style="fill:#eaf2c6;fill-opacity:1;fill-rule:nonzero;stroke:none"
         transform="matrix(0.35277776,0,0,-0.35277776,315.2816,239.75162)"
         clip-path="url(#clipPath19-9)" /><path
         id="path20-91"
         d="M 0,0 C 6.99,13.567 8.067,26.191 4.932,40.132 2.277,36.24 0.183,33.041 -2.06,29.95 c -0.803,-1.106 -2.109,-2.184 -3.491,-1.288 -0.792,0.514 -1.443,1.907 -1.424,2.89 0.059,3.194 0.295,6.405 0.749,9.568 2.184,15.211 -6.529,34.192 -20.348,42.65 3.59,-13.25 -3.333,-21.42 -11.745,-29.518 -16.865,-16.234 -18.699,-33.446 -6.862,-55.792 -21.302,4.128 -34.709,20.537 -35.061,42.992 -0.178,11.372 2.075,22.322 6.432,34.933 1.832,-8.788 3.977,-15.706 9.866,-20.519 1.54,-1.258 2.956,-3.59 5.174,-2.598 2.257,1.009 1.645,3.591 1.381,5.583 -0.724,5.458 -1.159,11.01 -2.524,16.315 -4.346,16.899 -0.394,32.259 7.967,46.913 5.395,9.454 12.165,17.812 20.476,24.862 2.895,2.455 5.832,4.952 10.508,6.202 -7.546,-21.087 2.598,-34.794 17.462,-46.904 C 17.655,89.004 30.273,67.465 27.214,39.276 25.377,22.359 16.539,9.486 0,0"
         style="fill:#eaf2c6;fill-opacity:1;fill-rule:nonzero;stroke:none"
         transform="matrix(0.35277776,0,0,-0.35277776,297.76322,176.52752)"
         clip-path="url(#clipPath21-0)" /><path
         id="path22-7"
         d="m 0,0 c 5.284,-0.28 10.185,-2.032 15.185,-3.516 4.992,-1.552 9.92,-3.034 14.983,-4.412 0.72,-0.157 0.658,-1.277 -0.072,-1.353 C 27.398,-9.662 24.68,-9.645 21.99,-9.514 14.035,-8.804 5.83,-7.866 -1.223,-3.809 -3.055,-2.705 -2.109,0.177 0,0"
         style="fill:#0e1a33;fill-opacity:1;fill-rule:nonzero;stroke:none"
         transform="matrix(0.35277776,0,0,-0.35277776,267.48402,203.02833)"
         clip-path="url(#clipPath23)" /><path
         id="path24-2"
         d="m 0,0 c -4.69,-2.834 -9.926,-3.878 -15.222,-4.8 -5.318,-0.818 -10.72,-1.382 -16.097,-0.673 -0.725,0.081 -0.792,1.185 -0.085,1.351 2.554,0.692 5.052,1.407 7.547,2.152 7.543,2.031 14.799,5.229 22.676,5.781 C 0.932,3.937 1.799,1.071 0,0"
         style="fill:#0e1a33;fill-opacity:1;fill-rule:nonzero;stroke:none"
         transform="matrix(0.35277776,0,0,-0.35277776,311.34128,234.62089)"
         clip-path="url(#clipPath25)" /><path
         id="path26-3"
         d="m 0,0 c -7.24,-3.663 -15.069,-4.531 -22.95,-5.4 -12.65,-2.133 -25.853,-2.118 -38.643,-1.379 -0.848,0.042 -0.846,1.367 0.046,1.354 -0.019,-0.003 7.711,-0.151 7.707,-0.153 7.636,0.026 15.363,0.386 22.948,1.354 3.788,0.503 7.621,0.835 11.303,1.899 5.932,1.947 12.215,3.667 17.944,5.962 C 0.705,4.533 2.239,1.192 0,0"
         style="fill:#0e1a33;fill-opacity:1;fill-rule:nonzero;stroke:none"
         transform="matrix(0.35277776,0,0,-0.35277776,310.65992,181.89461)"
         clip-path="url(#clipPath27)" /><path
         id="path28-6"
         d="m 0,0 c 0,-6.767 3.444,-12.252 7.693,-12.252 4.248,0 7.693,5.485 7.693,12.252 0,6.767 -3.445,12.252 -7.693,12.252 C 3.444,12.252 0,6.767 0,0"
         style="fill:#001b29;fill-opacity:1;fill-rule:nonzero;stroke:none"
         transform="matrix(0.35277776,0,0,-0.35277776,298.42192,215.97965)"
         clip-path="url(#clipPath29)" /></g></g></svg>
