<?xml version="1.0" encoding="UTF-8" standalone="no"?>
<!-- Created with Inkscape (http://www.inkscape.org/) -->

<svg
   width="258.24866mm"
   height="47.262115mm"
   viewBox="0 0 258.24866 47.262115"
   version="1.1"
   id="svg1"
   inkscape:version="1.3 (0e150ed, 2023-07-21)"
   sodipodi:docname="ratking_h.svg"
   xmlns:inkscape="http://www.inkscape.org/namespaces/inkscape"
   xmlns:sodipodi="http://sodipodi.sourceforge.net/DTD/sodipodi-0.dtd"
   xmlns="http://www.w3.org/2000/svg"
   xmlns:svg="http://www.w3.org/2000/svg">
  <sodipodi:namedview
     id="namedview1"
     pagecolor="#ffffff"
     bordercolor="#666666"
     borderopacity="1.0"
     inkscape:showpageshadow="2"
     inkscape:pageopacity="0.0"
     inkscape:pagecheckerboard="0"
     inkscape:deskcolor="#d1d1d1"
     inkscape:document-units="mm"
     inkscape:zoom="0.21114941"
     inkscape:cx="393.08658"
     inkscape:cy="156.28744"
     inkscape:window-width="1144"
     inkscape:window-height="533"
     inkscape:window-x="211"
     inkscape:window-y="158"
     inkscape:window-maximized="0"
     inkscape:current-layer="layer1" />
  <defs
     id="defs1">
    <clipPath
       clipPathUnits="userSpaceOnUse"
       id="clipPath16">
      <path
         d="M 0,792 H 612 V 0 H 0 Z"
         transform="translate(-206.9374,-487.38961)"
         id="path16" />
    </clipPath>
    <clipPath
       clipPathUnits="userSpaceOnUse"
       id="clipPath18">
      <path
         d="M 0,792 H 612 V 0 H 0 Z"
         transform="translate(-145.7523,-459.57661)"
         id="path18" />
    </clipPath>
    <clipPath
       clipPathUnits="userSpaceOnUse"
       id="clipPath20">
      <path
         d="M 0,792 H 612 V 0 H 0 Z"
         transform="translate(-155.45991,-445.75021)"
         id="path20" />
    </clipPath>
    <clipPath
       clipPathUnits="userSpaceOnUse"
       id="clipPath22">
      <path
         d="M 0,792 H 612 V 0 H 0 Z"
         transform="translate(-171.74271,-442.66501)"
         id="path22" />
    </clipPath>
    <clipPath
       clipPathUnits="userSpaceOnUse"
       id="clipPath24">
      <path
         d="M 0,792 H 612 V 0 H 0 Z"
         transform="translate(-247.78861,-385.64761)"
         id="path24" />
    </clipPath>
    <clipPath
       clipPathUnits="userSpaceOnUse"
       id="clipPath26">
      <path
         d="M 0,792 H 612 V 0 H 0 Z"
         transform="translate(-201.73201,-409.60601)"
         id="path26" />
    </clipPath>
    <clipPath
       clipPathUnits="userSpaceOnUse"
       id="clipPath28">
      <path
         d="M 0,792 H 612 V 0 H 0 Z"
         transform="translate(-221.4634,-490.28821)"
         id="path28" />
    </clipPath>
    <clipPath
       clipPathUnits="userSpaceOnUse"
       id="clipPath30">
      <path
         d="M 0,792 H 612 V 0 H 0 Z"
         transform="translate(-240.94561,-418.89001)"
         id="path30" />
    </clipPath>
    <clipPath
       clipPathUnits="userSpaceOnUse"
       id="clipPath32">
      <path
         d="M 0,792 H 612 V 0 H 0 Z"
         transform="translate(-225.2332,-392.19321)"
         id="path32" />
    </clipPath>
    <clipPath
       clipPathUnits="userSpaceOnUse"
       id="clipPath34">
      <path
         d="M 0,792 H 612 V 0 H 0 Z"
         transform="translate(-205.29991,-390.45791)"
         id="path34" />
    </clipPath>
    <clipPath
       clipPathUnits="userSpaceOnUse"
       id="clipPath36">
      <path
         d="M 0,792 H 612 V 0 H 0 Z"
         transform="translate(-170.5401,-450.26041)"
         id="path36" />
    </clipPath>
    <clipPath
       clipPathUnits="userSpaceOnUse"
       id="clipPath38">
      <path
         d="M 0,792 H 612 V 0 H 0 Z"
         transform="translate(-207.8401,-446.00991)"
         id="path38" />
    </clipPath>
    <clipPath
       clipPathUnits="userSpaceOnUse"
       id="clipPath40">
      <path
         d="M 0,792 H 612 V 0 H 0 Z"
         transform="translate(-272.37961,-432.48571)"
         id="path40" />
    </clipPath>
    <clipPath
       clipPathUnits="userSpaceOnUse"
       id="clipPath42">
      <path
         d="M 0,792 H 612 V 0 H 0 Z"
         transform="translate(-243.6844,-379.94351)"
         id="path42" />
    </clipPath>
    <clipPath
       clipPathUnits="userSpaceOnUse"
       id="clipPath44">
      <path
         d="M 0,792 H 612 V 0 H 0 Z"
         transform="translate(-232.5604,-376.02631)"
         id="path44" />
    </clipPath>
    <clipPath
       clipPathUnits="userSpaceOnUse"
       id="clipPath46">
      <path
         d="M 0,792 H 612 V 0 H 0 Z"
         transform="translate(-202.51581,-436.08181)"
         id="path46" />
    </clipPath>
    <clipPath
       clipPathUnits="userSpaceOnUse"
       id="clipPath48">
      <path
         d="M 0,792 H 612 V 0 H 0 Z"
         transform="translate(-197.8719,-424.57821)"
         id="path48" />
    </clipPath>
    <clipPath
       clipPathUnits="userSpaceOnUse"
       id="clipPath50">
      <path
         d="M 0,792 H 612 V 0 H 0 Z"
         transform="translate(-222.36931,-435.36661)"
         id="path50" />
    </clipPath>
    <clipPath
       clipPathUnits="userSpaceOnUse"
       id="clipPath52">
      <path
         d="M 0,792 H 612 V 0 H 0 Z"
         transform="translate(-166.13181,-397.05021)"
         id="path52" />
    </clipPath>
    <clipPath
       clipPathUnits="userSpaceOnUse"
       id="clipPath54">
      <path
         d="M 0,792 H 612 V 0 H 0 Z"
         transform="translate(-252.00001,-444.35661)"
         id="path54" />
    </clipPath>
    <clipPath
       clipPathUnits="userSpaceOnUse"
       id="clipPath56">
      <path
         d="M 0,792 H 612 V 0 H 0 Z"
         transform="translate(-199.1664,-467.04771)"
         id="path56" />
    </clipPath>
    <clipPath
       clipPathUnits="userSpaceOnUse"
       id="clipPath58">
      <path
         d="M 0,792 H 612 V 0 H 0 Z"
         transform="translate(-152.5734,-420.51711)"
         id="path58" />
    </clipPath>
    <clipPath
       clipPathUnits="userSpaceOnUse"
       id="clipPath60">
      <path
         d="M 0,792 H 612 V 0 H 0 Z"
         transform="translate(-224.88691,-397.72841)"
         id="path60" />
    </clipPath>
    <clipPath
       clipPathUnits="userSpaceOnUse"
       id="clipPath62">
      <path
         d="M 0,792 H 612 V 0 H 0 Z"
         transform="translate(-220.5769,-458.86391)"
         id="path62" />
    </clipPath>
    <clipPath
       clipPathUnits="userSpaceOnUse"
       id="clipPath64">
      <path
         d="M 0,792 H 612 V 0 H 0 Z"
         transform="translate(-196.846,-383.23151)"
         id="path64" />
    </clipPath>
    <clipPath
       clipPathUnits="userSpaceOnUse"
       id="clipPath66">
      <path
         d="M 0,792 H 612 V 0 H 0 Z"
         transform="translate(-270.9256,-454.87011)"
         id="path66" />
    </clipPath>
    <clipPath
       clipPathUnits="userSpaceOnUse"
       id="clipPath68">
      <path
         d="M 0,792 H 612 V 0 H 0 Z"
         transform="translate(-210.62251,-427.45011)"
         id="path68" />
    </clipPath>
    <clipPath
       clipPathUnits="userSpaceOnUse"
       id="clipPath70">
      <path
         d="M 0,792 H 612 V 0 H 0 Z"
         transform="translate(-166.86951,-456.49041)"
         id="path70" />
    </clipPath>
    <clipPath
       clipPathUnits="userSpaceOnUse"
       id="clipPath72">
      <path
         d="M 0,792 H 612 V 0 H 0 Z"
         transform="translate(-245.5069,-446.67861)"
         id="path72" />
    </clipPath>
    <clipPath
       clipPathUnits="userSpaceOnUse"
       id="clipPath74">
      <path
         d="M 0,792 H 612 V 0 H 0 Z"
         transform="translate(-264.6256,-427.49621)"
         id="path74" />
    </clipPath>
    <clipPath
       clipPathUnits="userSpaceOnUse"
       id="clipPath76">
      <path
         d="M 0,792 H 612 V 0 H 0 Z"
         transform="translate(-198.4923,-397.11581)"
         id="path76" />
    </clipPath>
    <clipPath
       clipPathUnits="userSpaceOnUse"
       id="clipPath78">
      <path
         d="M 0,792 H 612 V 0 H 0 Z"
         transform="translate(-192.5379,-456.40301)"
         id="path78" />
    </clipPath>
    <clipPath
       clipPathUnits="userSpaceOnUse"
       id="clipPath80">
      <path
         d="M 0,792 H 612 V 0 H 0 Z"
         transform="translate(-255.45391,-408.40611)"
         id="path80" />
    </clipPath>
    <clipPath
       clipPathUnits="userSpaceOnUse"
       id="clipPath82">
      <path
         d="M 0,792 H 612 V 0 H 0 Z"
         transform="translate(-270.55221,-399.17881)"
         id="path82" />
    </clipPath>
    <clipPath
       clipPathUnits="userSpaceOnUse"
       id="clipPath84">
      <path
         d="M 0,792 H 612 V 0 H 0 Z"
         transform="translate(-205.7896,-462.75681)"
         id="path84" />
    </clipPath>
    <clipPath
       clipPathUnits="userSpaceOnUse"
       id="clipPath86">
      <path
         d="M 0,792 H 612 V 0 H 0 Z"
         transform="translate(-196.7082,-484.74121)"
         id="path86" />
    </clipPath>
    <clipPath
       clipPathUnits="userSpaceOnUse"
       id="clipPath88">
      <path
         d="M 0,792 H 612 V 0 H 0 Z"
         transform="translate(-256.56501,-421.27941)"
         id="path88" />
    </clipPath>
    <clipPath
       clipPathUnits="userSpaceOnUse"
       id="clipPath90">
      <path
         d="M 0,792 H 612 V 0 H 0 Z"
         transform="translate(-247.22911,-460.13861)"
         id="path90" />
    </clipPath>
    <clipPath
       clipPathUnits="userSpaceOnUse"
       id="clipPath92">
      <path
         d="M 0,792 H 612 V 0 H 0 Z"
         transform="translate(-269.28691,-425.23481)"
         id="path92" />
    </clipPath>
    <clipPath
       clipPathUnits="userSpaceOnUse"
       id="clipPath94">
      <path
         d="M 0,792 H 612 V 0 H 0 Z"
         transform="translate(-184.5717,-376.32041)"
         id="path94" />
    </clipPath>
    <clipPath
       clipPathUnits="userSpaceOnUse"
       id="clipPath96">
      <path
         d="M 0,792 H 612 V 0 H 0 Z"
         transform="translate(-162.0066,-464.69661)"
         id="path96" />
    </clipPath>
    <clipPath
       clipPathUnits="userSpaceOnUse"
       id="clipPath98">
      <path
         d="M 0,792 H 612 V 0 H 0 Z"
         transform="translate(-236.21421,-478.06661)"
         id="path98" />
    </clipPath>
    <clipPath
       clipPathUnits="userSpaceOnUse"
       id="clipPath100">
      <path
         d="M 0,792 H 612 V 0 H 0 Z"
         transform="translate(-148.0051,-400.61851)"
         id="path100" />
    </clipPath>
    <clipPath
       clipPathUnits="userSpaceOnUse"
       id="clipPath102">
      <path
         d="M 0,792 H 612 V 0 H 0 Z"
         transform="translate(-255.0247,-386.74761)"
         id="path102" />
    </clipPath>
    <clipPath
       clipPathUnits="userSpaceOnUse"
       id="clipPath104">
      <path
         d="M 0,792 H 612 V 0 H 0 Z"
         transform="translate(-267.3241,-445.29071)"
         id="path104" />
    </clipPath>
    <clipPath
       clipPathUnits="userSpaceOnUse"
       id="clipPath106">
      <path
         d="M 0,792 H 612 V 0 H 0 Z"
         transform="translate(-216.1816,-476.43631)"
         id="path106" />
    </clipPath>
    <clipPath
       clipPathUnits="userSpaceOnUse"
       id="clipPath108">
      <path
         d="M 0,792 H 612 V 0 H 0 Z"
         transform="translate(-140.4762,-433.10091)"
         id="path108" />
    </clipPath>
    <clipPath
       clipPathUnits="userSpaceOnUse"
       id="clipPath110">
      <path
         d="M 0,792 H 612 V 0 H 0 Z"
         transform="translate(-196.0012,-368.39991)"
         id="path110" />
    </clipPath>
    <clipPath
       clipPathUnits="userSpaceOnUse"
       id="clipPath112">
      <path
         d="M 0,792 H 612 V 0 H 0 Z"
         transform="translate(-164.1892,-473.46821)"
         id="path112" />
    </clipPath>
    <clipPath
       clipPathUnits="userSpaceOnUse"
       id="clipPath114">
      <path
         d="M 0,792 H 612 V 0 H 0 Z"
         transform="translate(-229.75111,-442.67741)"
         id="path114" />
    </clipPath>
    <clipPath
       clipPathUnits="userSpaceOnUse"
       id="clipPath116">
      <path
         d="M 0,792 H 612 V 0 H 0 Z"
         transform="translate(-248.13901,-464.49291)"
         id="path116" />
    </clipPath>
    <clipPath
       clipPathUnits="userSpaceOnUse"
       id="clipPath118">
      <path
         d="M 0,792 H 612 V 0 H 0 Z"
         transform="translate(-187.5933,-460.66611)"
         id="path118" />
    </clipPath>
    <clipPath
       clipPathUnits="userSpaceOnUse"
       id="clipPath120">
      <path
         d="M 0,792 H 612 V 0 H 0 Z"
         transform="translate(-222.29571,-411.35981)"
         id="path120" />
    </clipPath>
    <clipPath
       clipPathUnits="userSpaceOnUse"
       id="clipPath122">
      <path
         d="M 0,792 H 612 V 0 H 0 Z"
         transform="translate(-244.18621,-414.41791)"
         id="path122" />
    </clipPath>
    <clipPath
       clipPathUnits="userSpaceOnUse"
       id="clipPath124">
      <path
         d="M 0,792 H 612 V 0 H 0 Z"
         transform="translate(-173.4568,-424.63051)"
         id="path124" />
    </clipPath>
    <clipPath
       clipPathUnits="userSpaceOnUse"
       id="clipPath126">
      <path
         d="M 0,792 H 612 V 0 H 0 Z"
         transform="translate(-202.2148,-418.74461)"
         id="path126" />
    </clipPath>
    <clipPath
       clipPathUnits="userSpaceOnUse"
       id="clipPath308">
      <path
         d="M 0,792 H 612 V 0 H 0 Z"
         transform="translate(-67.568201,-659.13152)"
         id="path308" />
    </clipPath>
    <clipPath
       clipPathUnits="userSpaceOnUse"
       id="clipPath310">
      <path
         d="M 0,792 H 612 V 0 H 0 Z"
         transform="translate(-501.09601,-638.60372)"
         id="path310" />
    </clipPath>
    <clipPath
       clipPathUnits="userSpaceOnUse"
       id="clipPath312">
      <path
         d="M 0,792 H 612 V 0 H 0 Z"
         transform="translate(-235.09981,-673.87492)"
         id="path312" />
    </clipPath>
    <clipPath
       clipPathUnits="userSpaceOnUse"
       id="clipPath314">
      <path
         d="M 0,792 H 612 V 0 H 0 Z"
         transform="translate(-589.51661,-632.29892)"
         id="path314" />
    </clipPath>
    <clipPath
       clipPathUnits="userSpaceOnUse"
       id="clipPath316">
      <path
         d="M 0,792 H 612 V 0 H 0 Z"
         transform="translate(-403.87541,-673.73972)"
         id="path316" />
    </clipPath>
    <clipPath
       clipPathUnits="userSpaceOnUse"
       id="clipPath318">
      <path
         d="M 0,792 H 612 V 0 H 0 Z"
         transform="translate(-320.58441,-659.43442)"
         id="path318" />
    </clipPath>
    <clipPath
       clipPathUnits="userSpaceOnUse"
       id="clipPath320">
      <path
         d="M 0,792 H 612 V 0 H 0 Z"
         transform="translate(-151.7529,-630.80432)"
         id="path320" />
    </clipPath>
  </defs>
  <g
     inkscape:label="Layer 1"
     inkscape:groupmode="layer"
     id="layer1"
     transform="translate(-25.724487,-99.976465)">
    <g
       id="g1"
       transform="translate(-40.156762,-13.265205)"
       style="fill:#eff0c0;fill-opacity:1">
      <path
         id="path15"
         d="m 0,0 c -1.954,-2.428 -8.459,-10.192 -8.459,-10.192 1.432,0.843 4.593,3.501 6.084,4.222 3.332,1.613 6.011,4.021 8.231,6.885 0.807,1.042 1.153,2.564 1.357,3.92 C 7.45,6.417 6.352,6.605 5.261,5.929 4.299,5.333 3.519,4.442 2.711,3.728 Z"
         style="fill:#eff0c0;fill-opacity:1;fill-rule:nonzero;stroke:none"
         transform="matrix(0.35277776,0,0,-0.35277776,89.515311,115.46367)"
         clip-path="url(#clipPath16)" />
      <path
         id="path17"
         d="M 0,0 C -0.195,0.382 -0.427,0.836 -0.375,1.36 -0.314,1.969 0.295,2.375 0.889,2.225 1.663,2.029 2.488,1.865 2.787,1.377 4.495,-1.4 5.973,-4.322 7.439,-7.24 8.091,-8.539 8.515,-9.952 9.172,-11.646 9.172,-11.646 1.287,-2.521 0,0"
         style="fill:#eff0c0;fill-opacity:1;fill-rule:nonzero;stroke:none"
         transform="matrix(0.35277776,0,0,-0.35277776,67.930569,125.27547)"
         clip-path="url(#clipPath18)" />
      <path
         id="path19"
         d="m 0,0 c -0.558,0.585 -1.372,0.84 -2.168,0.697 -3.443,-0.616 -3.502,-1.333 -1.949,-5.104 0.939,-2.282 2.008,-4.518 2.812,-6.846 2.03,-5.878 3.663,-11.911 6.002,-17.658 1.594,-3.916 5.949,-11.19 8.054,-14.898 0,0 -5.361,17.988 -5.924,25.294 0.395,-0.12 0.622,-0.284 0.721,-0.506 1.782,-4.002 3.547,-8.011 5.32,-12.016 0.218,-0.492 4.476,-13.752 4.738,-13.753 0.325,1.153 -4.929,24.313 -5.604,26.462 -0.969,3.089 -2.797,5.278 -5.968,5.179 C 3.675,-4.838 1.321,-1.385 0,0"
         style="fill:#eff0c0;fill-opacity:1;fill-rule:nonzero;stroke:none"
         transform="matrix(0.35277776,0,0,-0.35277776,71.355195,130.15312)"
         clip-path="url(#clipPath20)" />
      <path
         id="path21"
         d="m 0,0 c 1.407,-2.406 2.81,-4.814 4.221,-7.218 3.827,-6.523 16.12,-18.875 16.571,-20.246 -0.408,0.13 -12.984,9.851 -18.32,15.131 -4.147,4.104 -7.666,8.917 -11.027,13.719 -3.283,4.689 -6.039,9.749 -8.963,14.684 -0.622,1.049 -1.031,2.241 -1.424,3.405 -0.605,1.79 0.239,3.674 1.921,4.488 1.744,0.845 2.691,-0.26 3.848,-1.356 6.086,-5.768 8.115,-13.833 11.988,-20.85 0.355,-0.642 0.833,-1.216 1.254,-1.822 z"
         style="fill:#eff0c0;fill-opacity:1;fill-rule:nonzero;stroke:none"
         transform="matrix(0.35277776,0,0,-0.35277776,77.099405,131.24151)"
         clip-path="url(#clipPath22)" />
      <path
         id="path23"
         d="m 0,0 c -3.348,-1.514 -7.125,-2.319 -10.796,-2.837 -10.682,-1.509 -21.428,-1.792 -32.174,-0.648 -1.153,0.123 -2.441,0.685 -3.279,1.462 -0.545,0.506 -0.846,2.122 -0.458,2.624 1.007,1.302 2.211,2.535 4.249,2.421 6.557,-0.366 13.12,-0.688 19.685,-0.86 10.584,-0.278 21.07,0.362 31.119,4.152 1.84,0.694 3.645,1.483 5.466,2.228 C 13.903,8.419 4.598,2.08 0,0"
         style="fill:#eff0c0;fill-opacity:1;fill-rule:nonzero;stroke:none"
         transform="matrix(0.35277776,0,0,-0.35277776,103.92671,151.35598)"
         clip-path="url(#clipPath24)" />
      <path
         id="path25"
         d="m 0,0 c -3.273,3.166 -6.125,6.805 -8.903,10.435 -2.572,3.36 -5.076,6.832 -7.117,10.527 -3.137,5.675 -5.908,11.555 -8.712,17.407 -0.874,1.825 -0.255,4.196 1.099,4.256 1.342,0.061 3.092,-0.65 4.044,-1.627 4.095,-4.205 6.16,-9.566 8.162,-14.99 C -7.628,15.716 -2.612,6.158 5.789,-1.284 9.625,-4.682 13.24,-8.328 16.955,-11.861 16.736,-12.122 3.272,-3.166 0,0"
         style="fill:#eff0c0;fill-opacity:1;fill-rule:nonzero;stroke:none"
         transform="matrix(0.35277776,0,0,-0.35277776,87.678963,142.90399)"
         clip-path="url(#clipPath26)" />
      <path
         id="path27"
         d="m 0,0 c 1.577,-5.168 -1.185,-8.709 -4.725,-11.561 -2.835,-2.284 -6.12,-4.075 -9.376,-5.755 -3.199,-1.65 -6.587,-2.951 -9.941,-4.28 -2.337,-0.927 -5.024,-1.226 -7.082,-2.543 -3.596,-2.302 -11.44,-8.626 -11.697,-8.407 1.198,1.69 2.312,3.448 3.608,5.06 4.839,6.014 11.839,9.169 17.963,13.492 5.718,4.037 12.402,6.755 16.905,12.478 C -3.319,-0.214 -1.781,0.539 0,0"
         style="fill:#eff0c0;fill-opacity:1;fill-rule:nonzero;stroke:none"
         transform="matrix(0.35277776,0,0,-0.35277776,94.639761,114.4411)"
         clip-path="url(#clipPath28)" />
      <path
         id="path29"
         d="m 0,0 c 0,-5.28 0.049,-10.95 -0.02,-16.618 -0.036,-2.985 -0.949,-4.645 -3.194,-7.923 1.991,6.324 1.491,12.527 0.414,17.334 -0.759,3.391 -1.37,6.815 -2.008,10.231 -0.069,0.374 0.349,1.792 1.364,2.236 0,0 -1.866,2.41 -3.236,3.681 -2.707,2.512 -7.424,7.868 -21.104,10.789 C -12.835,19.284 -4.781,12.224 0.07,8.703 4.42,5.546 8.583,2.028 12.332,-1.854 14.021,-3.603 14.445,-5.471 12.293,-6.542 10.081,-7.643 7.417,-6.499 5.622,-4.729 3.886,-3.018 1.89,-1.57 0,0"
         style="fill:#eff0c0;fill-opacity:1;fill-rule:nonzero;stroke:none"
         transform="matrix(0.35277776,0,0,-0.35277776,101.51265,139.6288)"
         clip-path="url(#clipPath30)" />
      <path
         id="path31"
         d="m 0,0 c -4.405,-0.191 -8.078,1.315 -11.801,3.001 -3.717,1.684 -7.689,2.807 -11.551,4.17 -4.635,1.636 -9.262,3.294 -13.912,4.887 -2.191,0.751 -4.43,1.36 -6.637,2.064 -0.649,0.207 -1.457,0.354 -1.854,0.818 -0.836,0.979 -1.449,2.149 -2.153,3.241 1.056,0.646 2.138,1.875 3.165,1.831 3.318,-0.141 6.69,-0.451 9.908,-1.239 7.455,-1.827 13.732,-5.965 19.676,-10.68 C -10.899,4.714 -6.348,1.82 -0.982,0.468 -0.728,0.404 -0.499,0.242 0,0"
         style="fill:#eff0c0;fill-opacity:1;fill-rule:nonzero;stroke:none"
         transform="matrix(0.35277776,0,0,-0.35277776,95.969663,149.04684)"
         clip-path="url(#clipPath32)" />
      <path
         id="path33"
         d="m 0,0 c -3.978,-0.78 -7.94,-1.65 -11.936,-2.322 -10.771,-1.81 -21.604,-2.63 -32.518,-1.641 -0.932,0.085 -1.848,0.434 -2.752,0.724 -1.734,0.555 -2.791,2.121 -2.429,3.552 0.245,0.972 2.135,2.152 3.295,2.158 4.471,0.021 8.946,-0.342 13.414,-0.658 4.637,-0.328 9.26,-0.95 13.9,-1.11 C -13.283,0.506 0.002,0.138 0,0"
         style="fill:#eff0c0;fill-opacity:1;fill-rule:nonzero;stroke:none"
         transform="matrix(0.35277776,0,0,-0.35277776,88.937639,149.65902)"
         clip-path="url(#clipPath34)" />
      <path
         id="path35"
         d="m 0,0 c -0.621,2.876 -0.263,5.686 0.966,8.196 4.18,8.54 8.572,16.977 12.9,25.445 0.653,1.278 1.277,2.601 2.138,3.734 0.575,0.759 1.708,1.826 2.299,1.667 0.864,-0.231 1.903,-1.354 2.078,-2.251 0.272,-1.398 0.363,-3.205 -0.305,-4.351 C 16.017,25.472 11.742,18.63 7.491,11.776 6.227,9.737 4.802,7.798 3.465,5.803 2.07,3.72 1.731,1.424 2.046,-1.031 2.34,-3.322 2.547,-5.623 2.81,-8.079 2.298,-7.925 0.546,-2.527 0,0"
         style="fill:#eff0c0;fill-opacity:1;fill-rule:nonzero;stroke:none"
         transform="matrix(0.35277776,0,0,-0.35277776,76.675154,128.56202)"
         clip-path="url(#clipPath36)" />
      <path
         id="path37"
         d="m 0,0 c 3.638,5.193 8.521,8.405 14.419,10.411 6.874,2.338 13.525,5.242 19.117,10.09 0.506,0.438 1.158,0.868 1.791,0.96 1.051,0.151 2.273,0.301 3.154,-0.117 0.379,-0.18 0.396,-1.918 0.044,-2.712 C 36.3,13.619 31.801,11.07 27.095,9.139 23.469,7.651 19.545,6.788 15.681,6.003 10.099,4.869 4.564,3.76 0,0"
         style="fill:#eff0c0;fill-opacity:1;fill-rule:nonzero;stroke:none"
         transform="matrix(0.35277776,0,0,-0.35277776,89.833764,130.0615)"
         clip-path="url(#clipPath38)" />
      <path
         id="path39"
         d="m 0,0 c 0.979,-1.524 -0.149,-3.608 -1.953,-3.451 -1.5,0.131 -2.735,1.105 -3.917,1.836 -3.913,2.425 -7.414,5.397 -10.111,9.21 -1.465,2.071 -2.926,4.145 -4.468,6.159 -1.996,2.604 -6.687,7.233 -16.649,7.29 0.925,0.374 3.683,1.069 4.081,1.157 1.028,0.226 2.062,0.506 3.104,0.561 1.088,0.056 2.266,0.101 3.269,-0.244 3.495,-1.202 5.954,-3.789 8.609,-6.277 C -12.857,11.389 -7.199,7.055 -1.882,2.345 -1.144,1.692 -0.557,0.867 0,0"
         style="fill:#eff0c0;fill-opacity:1;fill-rule:nonzero;stroke:none"
         transform="matrix(0.35277776,0,0,-0.35277776,112.60187,134.83254)"
         clip-path="url(#clipPath40)" />
      <path
         id="path41"
         d="m 0,0 c -3.756,-6.86 -9.044,-12.062 -15.998,-15.335 -3.817,-1.796 -7.832,-3.206 -11.841,-4.54 -1.429,-0.475 -3.123,-0.387 -4.655,-0.21 -0.74,0.085 -1.68,0.848 -1.976,1.54 -0.212,0.494 0.361,1.488 0.817,2.078 2.036,2.629 5.212,3.156 8.105,4.099 3.695,1.206 7.542,1.97 11.179,3.316 2.115,0.782 3.965,2.301 5.902,3.539 C -5.629,-3.699 -2.821,-1.84 0,0"
         style="fill:#eff0c0;fill-opacity:1;fill-rule:nonzero;stroke:none"
         transform="matrix(0.35277776,0,0,-0.35277776,102.47884,153.36826)"
         clip-path="url(#clipPath42)" />
      <path
         id="path43"
         d="m 0,0 c -6.48,-2.67 -13.552,-2.202 -20.646,-1.976 -5.117,0.163 -10.248,-0.213 -15.373,-0.198 -2.143,0.007 -4.407,0.05 -6.394,0.727 -2.068,0.704 -2.007,1.671 -0.192,3.002 2.934,2.15 6.426,2.479 9.812,2.268 5.442,-0.339 10.861,-1.11 16.274,-1.822 2.842,-0.374 5.632,-1.144 8.476,-1.492 C -5.301,0.172 -2.521,0.148 0,0"
         style="fill:#eff0c0;fill-opacity:1;fill-rule:nonzero;stroke:none"
         transform="matrix(0.35277776,0,0,-0.35277776,98.554536,154.75016)"
         clip-path="url(#clipPath44)" />
      <path
         id="path45"
         d="m 0,0 c 4.842,4.572 9.757,7.958 15.372,10.23 5.756,2.33 11.573,4.519 17.738,5.571 0.406,0.069 1.817,0.086 2.12,0.019 1.786,-0.391 2.867,-2.22 2.291,-3.956 -0.109,-0.33 -0.249,-0.64 -0.436,-0.917 C 35.406,8.456 32.449,8.598 29.842,8.254 25.775,7.717 21.68,7.403 17.612,6.87 12.425,6.19 7.737,4.155 3.37,1.326 2.681,0.88 1.958,0.485 1.235,0.096 1.084,0.014 0.863,0.06 0,0"
         style="fill:#eff0c0;fill-opacity:1;fill-rule:nonzero;stroke:none"
         transform="matrix(0.35277776,0,0,-0.35277776,87.955471,133.56392)"
         clip-path="url(#clipPath46)" />
      <path
         id="path47"
         d="M 0,0 C -0.171,6.184 -0.873,12.412 -0.354,18.537 0.108,23.98 1.797,29.342 3.241,34.66 3.378,35.163 3.759,35.6 4.228,36.014 5.25,36.915 6.842,36.687 7.595,35.55 7.884,35.114 8.127,34.664 8.263,34.184 9.637,29.323 7.854,24.918 5.963,20.549 4.742,17.728 3.316,14.939 2.563,11.988 1.746,8.787 1.606,5.414 1.162,2.116 1.064,1.385 0.931,0.658 0.814,-0.07 0.543,-0.047 0.271,-0.023 0,0"
         style="fill:#eff0c0;fill-opacity:1;fill-rule:nonzero;stroke:none"
         transform="matrix(0.35277776,0,0,-0.35277776,86.317205,137.62213)"
         clip-path="url(#clipPath48)" />
      <path
         id="path49"
         d="m 0,0 c 3.025,-3.485 7.623,-8.82 9.158,-13.337 2.413,-7.103 3.856,-14.393 4.02,-21.907 0.024,-1.081 -0.112,-2.21 -0.428,-3.239 -0.219,-0.713 -0.777,-1.67 -1.361,-1.82 -0.544,-0.139 -1.738,0.504 -1.929,1.051 -0.792,2.28 -1.618,4.621 -1.872,6.999 -0.601,5.637 -0.551,11.36 -1.432,16.944 -0.46,2.916 -1.949,5.968 -3.16,8.772 C 2.336,-5.007 0.364,-0.588 0,0"
         style="fill:#eff0c0;fill-opacity:1;fill-rule:nonzero;stroke:none"
         transform="matrix(0.35277776,0,0,-0.35277776,94.959344,133.81622)"
         clip-path="url(#clipPath50)" />
      <path
         id="path51"
         d="m 0,0 c -6.805,2.357 -13.035,5.672 -17.616,11.478 -1.185,1.502 -2.43,2.962 -3.532,4.522 -0.499,0.707 -0.891,1.585 -1.03,2.434 -0.316,1.94 1.028,2.939 2.834,2.229 3.126,-1.228 5.36,-3.556 7.115,-6.258 2.85,-4.386 5.956,-7.54 10.858,-10.648 3.274,-2.407 7.17,-4.023 10.082,-5.602 0,0 -6.304,1.011 -8.711,1.845"
         style="fill:#eff0c0;fill-opacity:1;fill-rule:nonzero;stroke:none"
         transform="matrix(0.35277776,0,0,-0.35277776,75.120004,147.3334)"
         clip-path="url(#clipPath52)" />
      <path
         id="path53"
         d="m 0,0 c 1.067,-2.495 2.896,-5.961 3.99,-8.444 2.651,-6.015 5.133,-12.115 8.067,-17.989 1.573,-3.15 4.014,-5.858 5.911,-8.861 0.784,-1.241 1.418,-2.694 1.651,-4.126 0.018,-0.109 0.025,-0.22 0.025,-0.331 -0.011,-1.699 -1.898,-2.823 -3.446,-2.121 -0.262,0.119 -0.485,0.27 -0.642,0.472 -1.754,2.256 -3.173,4.782 -4.639,7.253 C 7.581,-28.525 5.961,-22.324 4.639,-15.98 3.96,-12.722 2.647,-9.599 1.669,-6.4 1.136,-4.655 0.337,-1.447 0,0"
         style="fill:#eff0c0;fill-opacity:1;fill-rule:nonzero;stroke:none"
         transform="matrix(0.35277776,0,0,-0.35277776,105.4124,130.64475)"
         clip-path="url(#clipPath54)" />
      <path
         id="path55"
         d="m 0,0 c 4.598,1.483 24.116,8.854 28.323,12.798 1.827,1.713 3.944,3.151 6.068,4.495 1.067,0.675 2.566,1.094 3.498,-0.317 C 38.776,15.63 38.192,14.314 37.2,13.24 33.512,9.244 29.143,6.373 23.975,4.497 16.242,1.689 0.054,-0.186 0,0"
         style="fill:#eff0c0;fill-opacity:1;fill-rule:nonzero;stroke:none"
         transform="matrix(0.35277776,0,0,-0.35277776,86.773876,122.63983)"
         clip-path="url(#clipPath56)" />
      <path
         id="path57"
         d="m 0,0 c -2.433,4.955 -4.669,10.007 -7.065,14.98 -0.89,1.847 -2.127,3.532 -2.943,5.405 -0.347,0.798 -0.389,2.367 0.087,2.736 0.69,0.534 2.299,0.752 2.944,0.296 1.392,-0.986 2.701,-2.325 3.547,-3.805 C -0.579,14.626 0.518,9.044 1.791,3.503 2.674,-0.337 5.496,-8.565 5.595,-8.936 5.595,-8.936 1.542,-3.14 0,0"
         style="fill:#eff0c0;fill-opacity:1;fill-rule:nonzero;stroke:none"
         transform="matrix(0.35277776,0,0,-0.35277776,70.336901,139.0548)"
         clip-path="url(#clipPath58)" />
      <path
         id="path59"
         d="m 0,0 c -3.51,3.032 -7.173,5.881 -9.276,10.207 -2.556,5.258 -7.304,8.577 -11.368,12.503 -0.955,0.922 -1.803,2.09 -2.309,3.308 -0.673,1.619 0.119,2.435 1.806,1.918 5.788,-1.772 10.081,-5.356 12.574,-10.92 2.007,-4.481 3.826,-9.048 5.892,-13.5 C -2.075,2.21 -0.909,1.165 0,0"
         style="fill:#eff0c0;fill-opacity:1;fill-rule:nonzero;stroke:none"
         transform="matrix(0.35277776,0,0,-0.35277776,95.847497,147.09414)"
         clip-path="url(#clipPath60)" />
      <path
         id="path61"
         d="m 0,0 c 2.16,1.651 5.87,3.849 7.813,5.724 2.528,2.44 4.745,5.203 7.1,7.823 1.461,1.625 2.844,3.334 4.428,4.829 1.11,1.048 2.795,2.492 4.026,1.162 0.681,-0.736 0.267,-3.266 -0.51,-4.402 -1.443,-2.11 -3.28,-4.127 -5.371,-5.581 C 13.185,6.566 8.625,3.945 4.128,1.244 3.362,0.785 1.204,0.392 0,0"
         style="fill:#eff0c0;fill-opacity:1;fill-rule:nonzero;stroke:none"
         transform="matrix(0.35277776,0,0,-0.35277776,94.327024,125.5269)"
         clip-path="url(#clipPath62)" />
      <path
         id="path63"
         d="m 0,0 c -1.293,-0.086 -11.214,-2.163 -14.846,-3.288 -2.969,-0.921 -6.236,-0.991 -9.385,-1.136 -0.661,-0.03 -1.848,1.205 -1.936,1.958 -0.078,0.662 0.919,1.922 1.657,2.122 2.482,0.671 5.046,1.219 7.607,1.388 C -12.608,1.326 -0.005,0.17 0,0"
         style="fill:#eff0c0;fill-opacity:1;fill-rule:nonzero;stroke:none"
         transform="matrix(0.35277776,0,0,-0.35277776,85.95529,152.20833)"
         clip-path="url(#clipPath64)" />
      <path
         id="path65"
         d="m 0,0 c 1.625,-0.643 1.478,-3.021 -0.214,-3.461 -0.584,-0.153 -1.162,-0.262 -1.743,-0.273 -4.491,-0.089 -8.761,1.066 -12.932,2.698 -3.451,1.351 -6.964,2.544 -10.44,4.176 2.671,-0.216 5.352,-0.342 8.009,-0.666 C -12.45,1.879 -7.605,1.073 -2.729,0.54 -1.559,0.412 -0.697,0.276 0,0"
         style="fill:#eff0c0;fill-opacity:1;fill-rule:nonzero;stroke:none"
         transform="matrix(0.35277776,0,0,-0.35277776,112.08893,126.93582)"
         clip-path="url(#clipPath66)" />
      <path
         id="path67"
         d="m 0,0 c -1.613,1.194 -3.279,2.564 -4.309,4.232 -1.168,1.894 -0.044,3.262 2.073,2.53 1.722,-0.595 3.2,-1.97 4.702,-3.11 4.649,-3.531 6.878,-8.584 8.639,-13.923 0.257,-0.779 0.614,-1.524 0.925,-2.285 0,0 -9.158,10.429 -12.03,12.556"
         style="fill:#eff0c0;fill-opacity:1;fill-rule:nonzero;stroke:none"
         transform="matrix(0.35277776,0,0,-0.35277776,90.815334,136.60899)"
         clip-path="url(#clipPath68)" />
      <path
         id="path69"
         d="m 0,0 c 1.376,4.278 2.801,8.194 3.857,12.207 0.528,2.005 0.323,4.194 0.561,6.288 0.168,1.481 0.315,3.027 0.869,4.381 0.384,0.935 1.447,1.592 2.206,2.373 C 8.067,24.194 9.002,23.18 9.126,22.075 9.298,20.551 9.027,18.917 8.65,17.404 7.068,11.058 5.488,4.683 0,0"
         style="fill:#eff0c0;fill-opacity:1;fill-rule:nonzero;stroke:none"
         transform="matrix(0.35277776,0,0,-0.35277776,75.380249,126.36422)"
         clip-path="url(#clipPath70)" />
      <path
         id="path71"
         d="m 0,0 c 2.22,-5.075 4.448,-10.147 6.656,-15.228 0.542,-1.248 1.173,-2.489 1.469,-3.8 0.056,-0.246 0.068,-0.501 0.055,-0.766 C 8.127,-20.853 6.799,-21.369 6.072,-20.598 1.094,-15.325 -0.159,-0.07 0,0"
         style="fill:#eff0c0;fill-opacity:1;fill-rule:nonzero;stroke:none"
         transform="matrix(0.35277776,0,0,-0.35277776,103.12177,129.8256)"
         clip-path="url(#clipPath72)" />
      <path
         id="path73"
         d="m 0,0 c 1.565,-1.536 3.458,-2.736 5.038,-4.258 1.249,-1.203 2.278,-2.645 3.334,-4.035 1.023,-1.348 2.183,-2.665 2.846,-4.186 0.187,-0.429 0.207,-0.93 0.171,-1.456 -0.086,-1.242 -1.436,-2.117 -2.519,-1.502 -0.075,0.042 -0.144,0.091 -0.207,0.147 -1.394,1.259 -2.719,2.677 -3.747,4.245 -2.566,3.913 -4.983,7.927 -7.384,11.945 -0.474,0.793 -1.519,3.016 -1.812,3.918 0,0 3.141,-3.7 4.28,-4.818"
         style="fill:#eff0c0;fill-opacity:1;fill-rule:nonzero;stroke:none"
         transform="matrix(0.35277776,0,0,-0.35277776,109.86643,136.59273)"
         clip-path="url(#clipPath74)" />
      <path
         id="path75"
         d="m 0,0 c -3.734,0 -7.75,0.014 -11.765,-0.005 -2.323,-0.011 -4.656,-0.224 -6.964,-0.06 -1.363,0.096 -3.177,0.639 -3.304,2.733 0.444,2.285 3.124,2.156 4.78,1.795 C -11.454,3.202 -5.745,1.524 -0.004,-0.005 0.112,-0.036 0.203,-0.167 0,0"
         style="fill:#eff0c0;fill-opacity:1;fill-rule:nonzero;stroke:none"
         transform="matrix(0.35277776,0,0,-0.35277776,86.536069,147.31026)"
         clip-path="url(#clipPath76)" />
      <path
         id="path77"
         d="M 0,0 C 0.162,1.436 0.786,2.879 1.474,4.172 1.512,4.243 1.558,4.31 1.61,4.373 2.381,5.312 3.909,4.979 4.405,3.869 4.545,3.554 4.631,3.245 4.601,2.947 4.335,0.323 3.783,-2.276 3.251,-4.866 2.676,-7.674 2.094,-10.487 1.328,-13.245 0.916,-14.727 0.11,-16.099 -0.518,-17.521 -0.729,-17.451 -0.608,-5.395 0,0"
         style="fill:#eff0c0;fill-opacity:1;fill-rule:nonzero;stroke:none"
         transform="matrix(0.35277776,0,0,-0.35277776,84.435489,126.39505)"
         clip-path="url(#clipPath78)" />
      <path
         id="path79"
         d="m 0,0 c -0.921,-4.345 -2.914,-8.066 -6.039,-11.188 -1.389,-1.389 -2.352,-3.223 -3.806,-4.521 -1.087,-0.969 -2.596,-1.716 -4.023,-1.971 -1.051,-0.188 -2.226,0.808 -1.523,2.174 0.756,1.47 1.64,3.016 2.862,4.075 2.163,1.878 4.732,3.283 6.922,5.134 1.573,1.328 2.809,3.057 4.187,4.614 0.486,0.55 0.947,1.121 1.42,1.683"
         style="fill:#eff0c0;fill-opacity:1;fill-rule:nonzero;stroke:none"
         transform="matrix(0.35277776,0,0,-0.35277776,106.63086,143.32729)"
         clip-path="url(#clipPath80)" />
      <path
         id="path81"
         d="m 0,0 c -4.222,-4.981 -5.954,-11.093 -7.895,-17.117 -0.179,-0.558 -0.482,-1.256 -0.938,-1.506 -0.523,-0.288 -1.098,-0.483 -1.681,-0.662 -0.683,-0.209 -1.405,0.157 -1.654,0.827 -0.216,0.583 -0.391,1.155 -0.265,1.65 1.082,4.229 3.108,7.973 6.242,11.097 C -4.908,-4.431 -0.119,0.115 0,0"
         style="fill:#eff0c0;fill-opacity:1;fill-rule:nonzero;stroke:none"
         transform="matrix(0.35277776,0,0,-0.35277776,111.9572,146.58247)"
         clip-path="url(#clipPath82)" />
      <path
         id="path83"
         d="M 0,0 C 0.177,0.087 1.686,0.008 1.865,0.011 8.029,0.128 12.742,3.67 17.686,6.678 18.258,7.026 18.979,7.47 19.559,7.385 20.424,7.257 21.548,6.966 21.968,6.245 22.258,5.748 21.732,4.497 21.217,4.201 18.71,2.762 16.174,1.271 13.469,0.299 9.574,-1.1 4.131,-0.834 0,0"
         style="fill:#eff0c0;fill-opacity:1;fill-rule:nonzero;stroke:none"
         transform="matrix(0.35277776,0,0,-0.35277776,89.110393,124.15357)"
         clip-path="url(#clipPath84)" />
      <path
         id="path85"
         d="M 0,0 C 0.958,2.388 2.195,4.699 3.594,6.859 3.811,7.194 4.104,7.479 4.437,7.74 5.467,8.547 7.002,7.888 7.186,6.592 7.254,6.11 7.25,5.656 7.093,5.264 6.329,3.351 5.068,1.539 3.669,-0.001 0.694,-3.276 -6.899,-10.474 -7.546,-10.957 -7.67,-10.821 -1.699,-4.236 0,0"
         style="fill:#eff0c0;fill-opacity:1;fill-rule:nonzero;stroke:none"
         transform="matrix(0.35277776,0,0,-0.35277776,85.906678,116.39796)"
         clip-path="url(#clipPath86)" />
      <path
         id="path87"
         d="m 0,0 c 1.4,-3.361 4.325,-11.439 4.811,-14.554 0.327,-2.091 0.493,-4.254 0.33,-6.354 -0.032,-0.417 -0.288,-0.815 -0.615,-1.209 -0.617,-0.742 -1.732,-0.844 -2.445,-0.194 -0.458,0.417 -0.827,0.833 -0.825,1.248 C 1.285,-15.828 0.98,-3.165 0,0"
         style="fill:#eff0c0;fill-opacity:1;fill-rule:nonzero;stroke:none"
         transform="matrix(0.35277776,0,0,-0.35277776,107.02283,138.78587)"
         clip-path="url(#clipPath88)" />
      <path
         id="path89"
         d="m 0,0 c 4.448,2.822 8.79,5.588 13.147,8.329 0.515,0.324 1.138,0.767 1.667,0.714 C 15.2,9.005 15.581,8.913 15.96,8.797 16.925,8.503 17.377,7.385 16.888,6.503 16.76,6.271 16.609,6.066 16.418,5.91 11.64,2.031 5.974,0.557 0,0"
         style="fill:#eff0c0;fill-opacity:1;fill-rule:nonzero;stroke:none"
         transform="matrix(0.35277776,0,0,-0.35277776,103.72933,125.07721)"
         clip-path="url(#clipPath90)" />
      <path
         id="path91"
         d="m 0,0 c 5.23,-0.629 10.342,-1.234 15.451,-1.868 0.603,-0.075 1.366,-0.126 1.743,-0.501 0.275,-0.274 0.511,-0.587 0.731,-0.916 0.561,-0.839 0.204,-1.99 -0.732,-2.364 C 16.946,-5.748 16.7,-5.811 16.453,-5.81 10.299,-5.792 4.979,-3.348 0,0"
         style="fill:#eff0c0;fill-opacity:1;fill-rule:nonzero;stroke:none"
         transform="matrix(0.35277776,0,0,-0.35277776,111.51083,137.3905)"
         clip-path="url(#clipPath92)" />
      <path
         id="path93"
         d="m 0,0 c -4.008,-3.418 -7.919,-6.765 -11.849,-10.091 -0.464,-0.393 -1.019,-0.919 -1.55,-0.941 -0.388,-0.017 -0.778,0.021 -1.169,0.083 -0.996,0.156 -1.601,1.199 -1.241,2.141 0.095,0.248 0.215,0.472 0.383,0.653 C -11.24,-3.644 -5.837,-1.39 0,0"
         style="fill:#eff0c0;fill-opacity:1;fill-rule:nonzero;stroke:none"
         transform="matrix(0.35277776,0,0,-0.35277776,81.62519,154.64641)"
         clip-path="url(#clipPath94)" />
      <path
         id="path95"
         d="m 0,0 c -1.855,4.93 -3.676,9.745 -5.471,14.57 -0.212,0.57 -0.518,1.27 -0.359,1.778 0.116,0.37 0.284,0.724 0.475,1.071 0.485,0.884 1.671,1.099 2.435,0.441 0.201,-0.173 0.371,-0.363 0.484,-0.582 C 0.387,11.809 0.673,5.962 0,0"
         style="fill:#eff0c0;fill-opacity:1;fill-rule:nonzero;stroke:none"
         transform="matrix(0.35277776,0,0,-0.35277776,73.664725,123.46925)"
         clip-path="url(#clipPath96)" />
      <path
         id="path97"
         d="m 0,0 c 4.118,3.285 8.137,6.501 12.174,9.696 0.477,0.377 1.048,0.885 1.58,0.89 0.389,0.004 0.777,-0.047 1.166,-0.122 0.991,-0.189 1.561,-1.251 1.17,-2.181 C 15.987,8.038 15.859,7.818 15.686,7.644 11.354,3.272 5.879,1.197 0,0"
         style="fill:#eff0c0;fill-opacity:1;fill-rule:nonzero;stroke:none"
         transform="matrix(0.35277776,0,0,-0.35277776,99.843517,118.75261)"
         clip-path="url(#clipPath98)" />
      <path
         id="path99"
         d="m 0,0 c -0.981,0.571 -1.667,1.768 -2.279,2.802 -0.295,0.497 -0.377,1.587 -0.066,1.867 0.471,0.426 1.481,0.686 2.06,0.471 C 0.899,4.7 2.112,4.071 3.022,3.212 5.841,0.552 11.77,-5.594 12.025,-5.889 11.927,-6.046 3.842,-2.237 0,0"
         style="fill:#eff0c0;fill-opacity:1;fill-rule:nonzero;stroke:none"
         transform="matrix(0.35277776,0,0,-0.35277776,68.725306,146.07458)"
         clip-path="url(#clipPath100)" />
      <path
         id="path101"
         d="m 0,0 c -1.08,-4.195 -3.305,-10.318 -4.521,-14.473 -0.266,-0.906 -1.194,-1.728 -2.019,-2.293 -0.25,-0.171 -1.643,0.582 -1.714,1.037 -0.212,1.362 -0.503,3.038 0.086,4.137 C -6.32,-8.14 -0.258,0.111 0,0"
         style="fill:#eff0c0;fill-opacity:1;fill-rule:nonzero;stroke:none"
         transform="matrix(0.35277776,0,0,-0.35277776,106.47944,150.96793)"
         clip-path="url(#clipPath102)" />
      <path
         id="path103"
         d="m 0,0 c 1.362,-0.73 2.849,-1.272 4.087,-2.167 0.122,-0.089 0.221,-0.21 0.304,-0.353 0.567,-0.981 0,-2.28 -1.086,-2.6 C 3.06,-5.192 2.827,-5.22 2.616,-5.164 -1.229,-4.154 -3.94,-1.46 -6.45,1.436 -7.198,2.298 -9.818,4.654 -10.479,5.591 -10.365,5.718 -2.754,1.475 0,0"
         style="fill:#eff0c0;fill-opacity:1;fill-rule:nonzero;stroke:none"
         transform="matrix(0.35277776,0,0,-0.35277776,110.8184,130.31522)"
         clip-path="url(#clipPath104)" />
      <path
         id="path105"
         d="m 0,0 c 3.213,3.417 8.109,8.467 11.39,11.817 0.093,0.095 0.212,0.166 0.347,0.219 0.934,0.37 1.971,-0.307 2.128,-1.299 0.041,-0.255 0.033,-0.482 -0.068,-0.654 C 13.026,8.779 12.082,7.431 10.875,6.558 8.1,4.552 0,0 0,0"
         style="fill:#eff0c0;fill-opacity:1;fill-rule:nonzero;stroke:none"
         transform="matrix(0.35277776,0,0,-0.35277776,92.77646,119.32775)"
         clip-path="url(#clipPath106)" />
      <path
         id="path107"
         d="m 0,0 c -0.277,0.293 -0.414,0.718 -0.509,1.182 -0.159,0.779 0.495,1.477 1.286,1.4 C 1.262,2.535 1.745,2.477 2.222,2.388 2.58,2.321 2.986,1.993 3.184,1.67 5.072,-1.398 7.33,-5.963 9.189,-9.049 9.189,-9.049 2.623,-2.78 0,0"
         style="fill:#eff0c0;fill-opacity:1;fill-rule:nonzero;stroke:none"
         transform="matrix(0.35277776,0,0,-0.35277776,66.069278,134.61551)"
         clip-path="url(#clipPath108)" />
      <path
         id="path109"
         d="M 0,0 C 3.334,1.475 11.043,2.576 15.231,1.497 11.432,0.478 4.503,-1.686 0.697,-2.309 -0.703,-2.538 -1.297,-0.574 0,0"
         style="fill:#eff0c0;fill-opacity:1;fill-rule:nonzero;stroke:none"
         transform="matrix(0.35277776,0,0,-0.35277776,85.657263,157.44059)"
         clip-path="url(#clipPath110)" />
      <path
         id="path111"
         d="M 0,0 C -0.134,1.336 0.75,2.57 2.155,2.436 3.561,2.302 4.104,1.001 3.825,-0.371 3.266,-3.121 2.292,-8.064 1.674,-10.801 1.674,-10.801 0.286,-2.855 0,0"
         style="fill:#eff0c0;fill-opacity:1;fill-rule:nonzero;stroke:none"
         transform="matrix(0.35277776,0,0,-0.35277776,74.434696,120.37483)"
         clip-path="url(#clipPath112)" />
      <path
         id="path113"
         d="m 0,0 c 3.86,-2.593 7.754,-5.138 11.546,-7.827 0.285,-0.201 0.469,-0.544 0.621,-0.932 0.272,-0.69 -0.218,-1.451 -0.959,-1.501 -0.359,-0.024 -0.704,-0.011 -1.014,0.101 C 5.408,-8.422 -0.254,-0.324 0,0"
         style="fill:#eff0c0;fill-opacity:1;fill-rule:nonzero;stroke:none"
         transform="matrix(0.35277776,0,0,-0.35277776,97.563478,131.23714)"
         clip-path="url(#clipPath114)" />
      <path
         id="path115"
         d="M 0,0 C 2.706,2.786 5.365,5.622 8.163,8.312 8.231,8.377 8.311,8.43 8.4,8.473 9.485,8.998 10.631,7.708 9.986,6.69 9.932,6.606 9.87,6.531 9.798,6.469 7.686,4.653 5.448,2.974 3.181,1.352 2.281,0.708 1.183,0.341 0.175,-0.151 0.117,-0.101 0.058,-0.05 0,0"
         style="fill:#eff0c0;fill-opacity:1;fill-rule:nonzero;stroke:none"
         transform="matrix(0.35277776,0,0,-0.35277776,104.05032,123.54111)"
         clip-path="url(#clipPath116)" />
      <path
         id="path117"
         d="M 0,0 C 0.028,0.268 0.229,0.517 0.494,0.761 1.055,1.277 1.951,1.152 2.369,0.514 2.724,-0.027 3.017,-0.554 2.916,-0.991 2.237,-3.927 0.431,-8.387 -0.484,-11.268 -0.456,-8.272 -0.327,-3.153 0,0"
         style="fill:#eff0c0;fill-opacity:1;fill-rule:nonzero;stroke:none"
         transform="matrix(0.35277776,0,0,-0.35277776,82.691144,124.89112)"
         clip-path="url(#clipPath118)" />
      <path
         id="path119"
         d="M 0,0 C -0.07,0.997 1.207,1.576 1.877,0.835 1.974,0.728 2.042,0.617 2.072,0.496 2.881,-2.728 3.481,-6.003 3.907,-9.326 2.481,-6.408 0.266,-3.81 0,0"
         style="fill:#eff0c0;fill-opacity:1;fill-rule:nonzero;stroke:none"
         transform="matrix(0.35277776,0,0,-0.35277776,94.93338,142.28529)"
         clip-path="url(#clipPath120)" />
      <path
         id="path121"
         d="M 0,0 C 1.683,-2.949 2.136,-9.266 0.399,-12.284 0.25,-8.968 -1.526,-3.705 -1.207,-0.268 -1.149,0.359 -0.312,0.547 0,0"
         style="fill:#eff0c0;fill-opacity:1;fill-rule:nonzero;stroke:none"
         transform="matrix(0.35277776,0,0,-0.35277776,102.65586,141.20646)"
         clip-path="url(#clipPath122)" />
      <path
         id="path123"
         d="M 0,0 C 1.738,-1.73 2.864,-5.439 2.463,-8.747 1.097,-6.43 -1.756,-2.13 -1.756,-2.13 -1.928,-1.776 -2.044,-1.462 -2.117,-1.183 -2.445,0.068 -0.917,0.912 0,0"
         style="fill:#eff0c0;fill-opacity:1;fill-rule:nonzero;stroke:none"
         transform="matrix(0.35277776,0,0,-0.35277776,77.7041,137.60368)"
         clip-path="url(#clipPath124)" />
      <path
         id="path125"
         d="M 0,0 C 1.278,1.415 5.968,-5.096 7.944,-6.791 7.944,-6.791 -1.27,-1.414 0,0"
         style="fill:#eff0c0;fill-opacity:1;fill-rule:nonzero;stroke:none"
         transform="matrix(0.35277776,0,0,-0.35277776,87.849283,139.6801)"
         clip-path="url(#clipPath126)" />
    </g>
    <g
       id="g2"
       transform="translate(62.177728,-73.097857)"
       style="fill:#eff0c0;fill-opacity:1">
      <path
         id="path307"
         d="M 0,0 C 2.223,-4.481 5.439,-8.383 9.36,-11.421 H -9.36 C -5.439,-8.383 -2.223,-4.481 0,0 m 27.076,-18.205 c 0.689,-0.049 1.382,-0.084 2.082,-0.09 v 0.09 h 0.091 v 6.784 h -0.091 v 0.181 C 15.091,-11.09 3.688,0.376 3.648,14.469 H 3.407 -3.407 -3.649 C -3.686,1.142 -13.886,-9.829 -26.89,-11.111 v 25.743 h -7.646 v -88.57 h 7.646 v 49.783 l 50.139,-49.783 h 10.456 l -55.514,55.733 z"
         style="fill:#eff0c0;fill-opacity:1;fill-rule:nonzero;stroke:none"
         transform="matrix(0.35277776,0,0,-0.35277776,37.583533,186.19325)"
         clip-path="url(#clipPath308)" />
      <path
         id="path309"
         d="m 0,0 -36.55,34.927 -0.025,-0.026 v 0.304 h -7.839 V -53.41 h 7.839 V 24.107 L 0,-10.843 V -53.41 H 7.839 V 35.205 H 0 Z"
         style="fill:#eff0c0;fill-opacity:1;fill-rule:nonzero;stroke:none"
         transform="matrix(0.35277776,0,0,-0.35277776,190.52251,193.43501)"
         clip-path="url(#clipPath310)" />
      <path
         id="path311"
         d="m 0,0 h -0.242 -6.813 -0.242 c -0.04,-14.093 -11.442,-25.559 -25.51,-25.709 v -7.055 c 10.277,0.086 19.433,4.922 25.401,12.408 V -88.59 H 0.11 v 68.234 c 5.967,-7.486 15.123,-12.322 25.4,-12.408 v 7.055 C 11.442,-25.559 0.04,-14.093 0,0"
         style="fill:#eff0c0;fill-opacity:1;fill-rule:nonzero;stroke:none"
         transform="matrix(0.35277776,0,0,-0.35277776,96.684958,180.99211)"
         clip-path="url(#clipPath312)" />
      <path
         id="path313"
         d="M 0,0 V 0.305 H -23.517 V -6.75 h 9.661 c -5.247,-5.431 -9.225,-13.484 -11.725,-21.741 -4.253,14.241 -12.041,30.594 -20.98,38.7 8.007,2.889 14.583,8.793 18.332,16.348 5.335,-10.753 12.549,-14.94 25.321,-15.048 v 7.055 c -14.068,0.151 -21.633,8.369 -21.673,22.462 h -0.241 -6.814 -0.242 C -31.918,26.933 -43.32,15.467 -57.387,15.317 v -0.003 c -0.034,10e-4 -0.067,0.004 -0.1,0.004 V 8.263 c 14.093,-0.04 28.135,-41.301 28.285,-55.369 h 0.557 6.498 0.557 c 0.151,14.068 7.724,40.023 21.817,40.063 V 0.012 C 0.151,0.012 0.077,0.001 0,0"
         style="fill:#eff0c0;fill-opacity:1;fill-rule:nonzero;stroke:none"
         transform="matrix(0.35277776,0,0,-0.35277776,221.71533,195.6592)"
         clip-path="url(#clipPath314)" />
      <path
         id="path315"
         d="m 0,0 h -0.213 -6.006 -0.213 c -0.036,-12.423 -10.087,-22.53 -22.487,-22.663 v -6.219 c 8.896,0.075 16.833,4.192 22.097,10.589 V -70.24 c -5.264,6.397 -13.201,10.514 -22.097,10.589 v -6.22 c 12.4,-0.132 22.451,-10.239 22.487,-22.662 H -6.219 -0.213 0 c 0.035,12.423 10.086,22.53 22.487,22.662 v 6.22 C 13.591,-59.726 5.654,-63.843 0.39,-70.24 v 51.947 c 5.264,-6.397 13.201,-10.514 22.097,-10.589 v 6.219 C 10.086,-22.53 0.035,-12.423 0,0"
         style="fill:#eff0c0;fill-opacity:1;fill-rule:nonzero;stroke:none"
         transform="matrix(0.35277776,0,0,-0.35277776,156.22524,181.03981)"
         clip-path="url(#clipPath316)" />
      <path
         id="path317"
         d="m 0,0 c 5.335,-10.753 16.386,-18.188 29.158,-18.295 v 7.055 C 15.091,-11.09 3.689,0.376 3.649,14.469 H 3.407 -3.407 -3.649 C -3.685,1.534 -13.295,-9.18 -25.75,-10.971 v 25.46 h -7.839 v -88.773 h 7.839 v 56.214 c 5.209,0.586 10.053,2.383 14.236,5.12 l 35.615,-61.215 9.41,-0.076 L -5.43,-7.816 C -3.267,-5.495 -1.424,-2.871 0,0"
         style="fill:#eff0c0;fill-opacity:1;fill-rule:nonzero;stroke:none"
         transform="matrix(0.35277776,0,0,-0.35277776,126.84203,186.0864)"
         clip-path="url(#clipPath318)" />
      <path
         id="path319"
         d="M 0,0 C -3.7,7.458 -10.56,13.071 -18.815,15.105 -10.56,17.138 -3.7,22.752 0,30.209 3.649,22.856 10.371,17.299 18.472,15.195 V 15.014 C 10.371,12.91 3.648,7.354 0,0 M 18.472,21.595 C 9.611,24.591 3.208,32.965 3.18,42.818 H 2.969 -2.969 -3.18 C -3.209,32.368 -10.41,23.579 -20.11,21.109 v 21.895 h -7.213 v -89.065 h 7.213 V 9.1 c 9.7,-2.47 16.901,-11.258 16.93,-21.709 H -2.969 2.969 3.18 C 3.208,-2.756 9.611,5.618 18.472,8.614 v -54.675 h 7.242 v 89.065 h -7.242 z"
         style="fill:#eff0c0;fill-opacity:1;fill-rule:nonzero;stroke:none"
         transform="matrix(0.35277776,0,0,-0.35277776,67.282024,196.18646)"
         clip-path="url(#clipPath320)" />
    </g>
  </g>
</svg>
